<svg width="286" height="64" viewBox="0 0 286 64" fill="none" xmlns="http://www.w3.org/2000/svg">
<rect width="286" height="64" rx="32" fill="black"/>
<path d="M107.09 39.67L109.58 36.55C110.8 37.61 111.97 38.39 113.09 38.89C114.23 39.37 115.43 39.61 116.69 39.61C117.99 39.61 119.03 39.37 119.81 38.89C120.59 38.41 120.98 37.77 120.98 36.97C120.98 36.25 120.71 35.69 120.17 35.29C119.65 34.89 118.77 34.59 117.53 34.39L113.36 33.67C111.56 33.37 110.19 32.74 109.25 31.78C108.33 30.82 107.87 29.58 107.87 28.06C107.87 26.1 108.61 24.55 110.09 23.41C111.59 22.27 113.61 21.7 116.15 21.7C117.67 21.7 119.2 21.96 120.74 22.48C122.3 23 123.66 23.72 124.82 24.64L122.48 27.88C121.36 27.02 120.26 26.39 119.18 25.99C118.1 25.57 116.99 25.36 115.85 25.36C114.69 25.36 113.76 25.58 113.06 26.02C112.36 26.44 112.01 27.01 112.01 27.73C112.01 28.37 112.24 28.87 112.7 29.23C113.16 29.59 113.93 29.85 115.01 30.01L118.97 30.67C121.05 31.01 122.61 31.68 123.65 32.68C124.71 33.66 125.24 34.96 125.24 36.58C125.24 38.62 124.43 40.25 122.81 41.47C121.21 42.69 119.07 43.3 116.39 43.3C114.71 43.3 113.05 42.98 111.41 42.34C109.79 41.7 108.35 40.81 107.09 39.67ZM129.119 38.59V30.82H125.909V27.37H129.119V23.38L133.229 22.45V27.37H137.669V30.82H133.229V37.75C133.229 38.49 133.389 39.01 133.709 39.31C134.029 39.61 134.589 39.76 135.389 39.76C135.769 39.76 136.129 39.74 136.469 39.7C136.809 39.64 137.179 39.54 137.579 39.4V42.76C137.139 42.9 136.609 43.01 135.989 43.09C135.369 43.19 134.839 43.24 134.399 43.24C132.659 43.24 131.339 42.85 130.439 42.07C129.559 41.27 129.119 40.11 129.119 38.59ZM144.654 43.27C142.974 43.27 141.604 42.83 140.544 41.95C139.484 41.05 138.954 39.89 138.954 38.47C138.954 36.99 139.524 35.83 140.664 34.99C141.804 34.15 143.374 33.73 145.374 33.73C146.014 33.73 146.654 33.78 147.294 33.88C147.934 33.98 148.564 34.13 149.184 34.33V33.22C149.184 32.32 148.904 31.64 148.344 31.18C147.784 30.72 146.964 30.49 145.884 30.49C145.224 30.49 144.504 30.6 143.724 30.82C142.964 31.02 142.094 31.34 141.114 31.78L139.614 28.75C140.834 28.19 142.014 27.77 143.154 27.49C144.314 27.21 145.454 27.07 146.574 27.07C148.674 27.07 150.304 27.58 151.464 28.6C152.644 29.6 153.234 31.02 153.234 32.86V43H149.184V41.92C148.524 42.38 147.824 42.72 147.084 42.94C146.364 43.16 145.554 43.27 144.654 43.27ZM142.884 38.38C142.884 38.98 143.144 39.46 143.664 39.82C144.184 40.16 144.874 40.33 145.734 40.33C146.414 40.33 147.034 40.25 147.594 40.09C148.174 39.91 148.704 39.66 149.184 39.34V37C148.684 36.8 148.154 36.66 147.594 36.58C147.054 36.48 146.484 36.43 145.884 36.43C144.944 36.43 144.204 36.61 143.664 36.97C143.144 37.31 142.884 37.78 142.884 38.38ZM156.345 43V27.37H160.455V29.08C160.955 28.4 161.555 27.89 162.255 27.55C162.975 27.19 163.765 27.01 164.625 27.01C165.025 27.03 165.355 27.07 165.615 27.13C165.895 27.17 166.135 27.25 166.335 27.37V30.97C166.035 30.83 165.705 30.73 165.345 30.67C164.985 30.59 164.615 30.55 164.235 30.55C163.435 30.55 162.695 30.75 162.015 31.15C161.355 31.55 160.835 32.13 160.455 32.89V43H156.345ZM170.926 38.59V30.82H167.716V27.37H170.926V23.38L175.036 22.45V27.37H179.476V30.82H175.036V37.75C175.036 38.49 175.196 39.01 175.516 39.31C175.836 39.61 176.396 39.76 177.196 39.76C177.576 39.76 177.936 39.74 178.276 39.7C178.616 39.64 178.986 39.54 179.386 39.4V42.76C178.946 42.9 178.416 43.01 177.796 43.09C177.176 43.19 176.646 43.24 176.206 43.24C174.466 43.24 173.146 42.85 172.246 42.07C171.366 41.27 170.926 40.11 170.926 38.59Z" fill="white"/>
</svg>
