<svg width="375" height="298" viewBox="0 0 375 298" fill="none" xmlns="http://www.w3.org/2000/svg">
<path d="M2.12 142V44H52.24C57.28 44 61.9 44.7933 66.1 46.38C70.3933 47.8733 74.0333 50.02 77.02 52.82C80.1 55.5267 82.48 58.7933 84.16 62.62C85.9333 66.4467 86.82 70.6467 86.82 75.22C86.82 81.38 85.14 86.8867 81.78 91.74C78.42 96.5933 73.9867 100.28 68.48 102.8L89.9 142H63.02L44.54 106.3H26.2V142H2.12ZM50 64.58H26.2V86.7H50C53.7333 86.7 56.72 85.6733 58.96 83.62C61.2933 81.5667 62.46 78.9067 62.46 75.64C62.46 72.3733 61.2933 69.7133 58.96 67.66C56.72 65.6067 53.7333 64.58 50 64.58ZM91.4575 142L131.638 44H159.218L198.838 142H172.798L163.838 118.34H125.618L116.518 142H91.4575ZM132.898 99.16H156.698L144.938 67.8L132.898 99.16ZM250.342 121.14C255.102 121.14 259.489 120.113 263.502 118.06C267.609 116.007 271.296 112.973 274.562 108.96L290.382 124.5C285.809 130.193 279.789 134.767 272.322 138.22C264.949 141.673 257.342 143.4 249.502 143.4C242.129 143.4 235.176 142.093 228.642 139.48C222.202 136.867 216.649 133.32 211.982 128.84C207.316 124.36 203.629 119.04 200.922 112.88C198.216 106.72 196.862 100.093 196.862 93C196.862 85.9067 198.216 79.28 200.922 73.12C203.629 66.8667 207.316 61.5 211.982 57.02C216.742 52.54 222.342 48.9933 228.782 46.38C235.222 43.7667 242.129 42.46 249.502 42.46C253.516 42.46 257.529 42.9267 261.542 43.86C265.556 44.7933 269.382 46.1 273.022 47.78C276.662 49.3667 280.022 51.3733 283.102 53.8C286.182 56.1333 288.842 58.7467 291.082 61.64L274.842 77.6C271.389 73.3067 267.516 70.0867 263.222 67.94C259.022 65.7 254.449 64.58 249.502 64.58C245.582 64.58 241.896 65.3267 238.442 66.82C235.082 68.22 232.142 70.18 229.622 72.7C227.196 75.22 225.236 78.2533 223.742 81.8C222.342 85.2533 221.642 88.9867 221.642 93C221.642 97.0133 222.342 100.747 223.742 104.2C225.236 107.56 227.242 110.5 229.762 113.02C232.376 115.54 235.409 117.547 238.862 119.04C242.409 120.44 246.236 121.14 250.342 121.14ZM300.577 142V44H377.857V64.86H324.657V82.5H359.797V102.66H324.657V121.14H378.417V142H300.577Z" fill="black"/>
<path d="M2.12 142H1.12V143H2.12V142ZM2.12 44V43H1.12V44H2.12ZM66.1 46.38L65.7466 47.3155L65.759 47.3201L65.7715 47.3245L66.1 46.38ZM77.02 52.82L76.3361 53.5495L76.3478 53.5605L76.3599 53.5712L77.02 52.82ZM84.16 62.62L83.2444 63.022L83.2484 63.0313L83.2527 63.0405L84.16 62.62ZM81.78 91.74L80.9578 91.1708L80.9578 91.1708L81.78 91.74ZM68.48 102.8L68.0639 101.891L67.0877 102.337L67.6025 103.28L68.48 102.8ZM89.9 142V143H91.586L90.7775 141.52L89.9 142ZM63.02 142L62.1319 142.46L62.4116 143H63.02V142ZM44.54 106.3L45.4281 105.84L45.1484 105.3H44.54V106.3ZM26.2 106.3V105.3H25.2V106.3H26.2ZM26.2 142V143H27.2V142H26.2ZM26.2 64.58V63.58H25.2V64.58H26.2ZM26.2 86.7H25.2V87.7H26.2V86.7ZM58.96 83.62L58.2994 82.8693L58.2918 82.876L58.2843 82.8828L58.96 83.62ZM58.96 67.66L58.2843 68.3972L58.2918 68.404L58.2994 68.4107L58.96 67.66ZM3.12 142V44H1.12V142H3.12ZM2.12 45H52.24V43H2.12V45ZM52.24 45C57.174 45 61.6725 45.7764 65.7466 47.3155L66.4534 45.4445C62.1275 43.8103 57.386 43 52.24 43V45ZM65.7715 47.3245C69.9473 48.7769 73.4623 50.8553 76.3361 53.5495L77.7039 52.0905C74.6044 49.1846 70.8394 46.9697 66.4285 45.4355L65.7715 47.3245ZM76.3599 53.5712C79.3281 56.1796 81.6219 59.3263 83.2444 63.022L85.0757 62.218C83.3381 58.2603 80.8719 54.8737 77.6801 52.0688L76.3599 53.5712ZM83.2527 63.0405C84.96 66.7245 85.82 70.7795 85.82 75.22H87.82C87.82 70.5139 86.9067 66.1688 85.0673 62.1995L83.2527 63.0405ZM85.82 75.22C85.82 81.186 84.1968 86.4923 80.9578 91.1708L82.6022 92.3092C86.0832 87.2811 87.82 81.574 87.82 75.22H85.82ZM80.9578 91.1708C77.7029 95.8723 73.4115 99.4435 68.0639 101.891L68.8961 103.709C74.5618 101.117 79.1371 97.3143 82.6022 92.3092L80.9578 91.1708ZM67.6025 103.28L89.0225 142.48L90.7775 141.52L69.3575 102.32L67.6025 103.28ZM89.9 141H63.02V143H89.9V141ZM63.9081 141.54L45.4281 105.84L43.6519 106.76L62.1319 142.46L63.9081 141.54ZM44.54 105.3H26.2V107.3H44.54V105.3ZM25.2 106.3V142H27.2V106.3H25.2ZM26.2 141H2.12V143H26.2V141ZM50 63.58H26.2V65.58H50V63.58ZM25.2 64.58V86.7H27.2V64.58H25.2ZM26.2 87.7H50V85.7H26.2V87.7ZM50 87.7C53.9236 87.7 57.1714 86.6161 59.6357 84.3572L58.2843 82.8828C56.2686 84.7306 53.5431 85.7 50 85.7V87.7ZM59.6206 84.3707C62.1819 82.1168 63.46 79.1774 63.46 75.64H61.46C61.46 78.6359 60.4048 81.0165 58.2994 82.8693L59.6206 84.3707ZM63.46 75.64C63.46 72.1026 62.1819 69.1632 59.6206 66.9093L58.2994 68.4107C60.4048 70.2635 61.46 72.6441 61.46 75.64H63.46ZM59.6357 66.9228C57.1714 64.6639 53.9236 63.58 50 63.58V65.58C53.5431 65.58 56.2686 66.5494 58.2843 68.3972L59.6357 66.9228ZM91.4575 142L90.5322 141.621L89.9667 143H91.4575V142ZM131.638 44V43H130.967L130.712 43.6206L131.638 44ZM159.218 44L160.145 43.6252L159.892 43H159.218V44ZM198.838 142V143H200.32L199.765 141.625L198.838 142ZM172.798 142L171.862 142.354L172.107 143H172.798V142ZM163.838 118.34L164.773 117.986L164.528 117.34H163.838V118.34ZM125.618 118.34V117.34H124.931L124.684 117.981L125.618 118.34ZM116.518 142V143H117.204L117.451 142.359L116.518 142ZM132.898 99.16L131.964 98.8016L131.442 100.16H132.898V99.16ZM156.698 99.16V100.16H158.141L157.634 98.8089L156.698 99.16ZM144.938 67.8L145.874 67.4489L144.949 64.9813L144.004 67.4416L144.938 67.8ZM92.3828 142.379L132.563 44.3793L130.712 43.6206L90.5322 141.621L92.3828 142.379ZM131.638 45H159.218V43H131.638V45ZM158.29 44.3748L197.91 142.375L199.765 141.625L160.145 43.6252L158.29 44.3748ZM198.838 141H172.798V143H198.838V141ZM173.733 141.646L164.773 117.986L162.902 118.694L171.862 142.354L173.733 141.646ZM163.838 117.34H125.618V119.34H163.838V117.34ZM124.684 117.981L115.584 141.641L117.451 142.359L126.551 118.699L124.684 117.981ZM116.518 141H91.4575V143H116.518V141ZM132.898 100.16H156.698V98.16H132.898V100.16ZM157.634 98.8089L145.874 67.4489L144.001 68.1511L155.761 99.5111L157.634 98.8089ZM144.004 67.4416L131.964 98.8016L133.831 99.5184L145.871 68.1584L144.004 67.4416ZM263.502 118.06L263.055 117.166L263.047 117.17L263.502 118.06ZM274.562 108.96L275.263 108.247L274.48 107.477L273.787 108.329L274.562 108.96ZM290.382 124.5L291.162 125.126L291.729 124.421L291.083 123.787L290.382 124.5ZM272.322 138.22L271.902 137.312L271.898 137.314L272.322 138.22ZM228.642 139.48L228.266 140.407L228.271 140.408L228.642 139.48ZM211.982 128.84L211.29 129.561L211.29 129.561L211.982 128.84ZM200.922 112.88L200.007 113.282L200.007 113.282L200.922 112.88ZM200.922 73.12L201.838 73.5223L201.84 73.5172L200.922 73.12ZM211.982 57.02L211.297 56.2918L211.29 56.2986L211.982 57.02ZM273.022 47.78L272.603 48.688L272.613 48.6924L272.623 48.6967L273.022 47.78ZM283.102 53.8L282.483 54.5855L282.491 54.5914L282.498 54.5971L283.102 53.8ZM291.082 61.64L291.783 62.3532L292.417 61.7304L291.873 61.0278L291.082 61.64ZM274.842 77.6L274.063 78.2268L274.755 79.0875L275.543 78.3132L274.842 77.6ZM263.222 67.94L262.752 68.8223L262.763 68.8285L262.775 68.8344L263.222 67.94ZM238.442 66.82L238.827 67.7432L238.839 67.7379L238.442 66.82ZM229.622 72.7L228.915 71.9929L228.908 71.9996L228.902 72.0064L229.622 72.7ZM223.742 81.8L222.82 81.4119L222.815 81.4243L223.742 81.8ZM223.742 104.2L222.815 104.576L222.822 104.591L222.828 104.606L223.742 104.2ZM229.762 113.02L229.055 113.727L229.062 113.734L229.068 113.74L229.762 113.02ZM238.862 119.04L238.465 119.958L238.48 119.964L238.495 119.97L238.862 119.04ZM250.342 122.14C255.251 122.14 259.795 121.08 263.958 118.95L263.047 117.17C259.182 119.147 254.953 120.14 250.342 120.14V122.14ZM263.949 118.954C268.198 116.83 271.993 113.701 275.338 109.591L273.787 108.329C270.598 112.246 267.02 115.183 263.055 117.166L263.949 118.954ZM273.861 109.673L289.681 125.213L291.083 123.787L275.263 108.247L273.861 109.673ZM289.603 123.874C285.137 129.432 279.247 133.916 271.902 137.312L272.742 139.128C280.331 135.618 286.48 130.954 291.162 125.126L289.603 123.874ZM271.898 137.314C264.652 140.708 257.19 142.4 249.502 142.4V144.4C257.494 144.4 265.245 142.639 272.746 139.126L271.898 137.314ZM249.502 142.4C242.25 142.4 235.423 141.115 229.014 138.552L228.271 140.408C234.928 143.071 242.008 144.4 249.502 144.4V142.4ZM229.018 138.553C222.687 135.984 217.243 132.504 212.675 128.119L211.29 129.561C216.054 134.136 221.717 137.749 228.266 140.407L229.018 138.553ZM212.675 128.119C208.106 123.733 204.494 118.523 201.838 112.478L200.007 113.282C202.764 119.557 206.525 124.987 211.29 129.561L212.675 128.119ZM201.838 112.478C199.19 106.451 197.862 99.9625 197.862 93H195.862C195.862 100.224 197.241 106.989 200.007 113.282L201.838 112.478ZM197.862 93C197.862 86.0375 199.19 79.5487 201.838 73.5223L200.007 72.7177C197.241 79.0113 195.862 85.7758 195.862 93H197.862ZM201.84 73.5172C204.497 67.3792 208.109 62.1245 212.675 57.7414L211.29 56.2986C206.522 60.8755 202.761 66.3541 200.004 72.7228L201.84 73.5172ZM212.668 57.7482C217.332 53.3581 222.825 49.8765 229.158 47.3066L228.406 45.4534C221.859 48.1102 216.152 51.7219 211.297 56.2918L212.668 57.7482ZM229.158 47.3066C235.472 44.7446 242.25 43.46 249.502 43.46V41.46C242.008 41.46 234.973 42.7887 228.406 45.4534L229.158 47.3066ZM249.502 43.46C253.437 43.46 257.375 43.9175 261.316 44.834L261.769 42.886C257.683 41.9358 253.594 41.46 249.502 41.46V43.46ZM261.316 44.834C265.265 45.7524 269.027 47.0372 272.603 48.688L273.441 46.872C269.738 45.1627 265.846 43.8343 261.769 42.886L261.316 44.834ZM272.623 48.6967C276.185 50.2496 279.471 52.2124 282.483 54.5855L283.721 53.0145C280.573 50.5342 277.139 48.4837 273.422 46.8633L272.623 48.6967ZM282.498 54.5971C285.512 56.8802 288.108 59.4322 290.291 62.2522L291.873 61.0278C289.576 58.0611 286.852 55.3864 283.706 53.0029L282.498 54.5971ZM290.381 60.9268L274.141 76.8868L275.543 78.3132L291.783 62.3532L290.381 60.9268ZM275.621 76.9732C272.091 72.5844 268.109 69.2654 263.669 67.0456L262.775 68.8344C266.922 70.9079 270.686 74.029 274.063 78.2268L275.621 76.9732ZM263.693 67.0576C259.342 64.7373 254.606 63.58 249.502 63.58V65.58C254.291 65.58 258.702 66.6627 262.752 68.8223L263.693 67.0576ZM249.502 63.58C245.452 63.58 241.629 64.3523 238.045 65.9021L238.839 67.7379C242.162 66.301 245.713 65.58 249.502 65.58V63.58ZM238.058 65.8969C234.58 67.3461 231.529 69.3785 228.915 71.9929L230.329 73.4071C232.755 70.9815 235.585 69.0939 238.827 67.7431L238.058 65.8969ZM228.902 72.0064C226.382 74.6234 224.357 77.7632 222.821 81.4119L224.664 82.1881C226.114 78.7434 228.009 75.8166 230.343 73.3936L228.902 72.0064ZM222.815 81.4243C221.363 85.0059 220.642 88.8679 220.642 93H222.642C222.642 89.1054 223.321 85.5008 224.669 82.1757L222.815 81.4243ZM220.642 93C220.642 97.1321 221.363 100.994 222.815 104.576L224.669 103.824C223.321 100.499 222.642 96.8946 222.642 93H220.642ZM222.828 104.606C224.37 108.075 226.446 111.118 229.055 113.727L230.469 112.313C228.039 109.882 226.101 107.045 224.656 103.794L222.828 104.606ZM229.068 113.74C231.771 116.346 234.906 118.419 238.465 119.958L239.259 118.122C235.912 116.675 232.98 114.734 230.456 112.3L229.068 113.74ZM238.495 119.97C242.167 121.42 246.12 122.14 250.342 122.14V120.14C246.351 120.14 242.65 119.46 239.229 118.11L238.495 119.97ZM300.577 142H299.577V143H300.577V142ZM300.577 44V43H299.577V44H300.577ZM377.857 44H378.857V43H377.857V44ZM377.857 64.86V65.86H378.857V64.86H377.857ZM324.657 64.86V63.86H323.657V64.86H324.657ZM324.657 82.5H323.657V83.5H324.657V82.5ZM359.797 82.5H360.797V81.5H359.797V82.5ZM359.797 102.66V103.66H360.797V102.66H359.797ZM324.657 102.66V101.66H323.657V102.66H324.657ZM324.657 121.14H323.657V122.14H324.657V121.14ZM378.417 121.14H379.417V120.14H378.417V121.14ZM378.417 142V143H379.417V142H378.417ZM301.577 142V44H299.577V142H301.577ZM300.577 45H377.857V43H300.577V45ZM376.857 44V64.86H378.857V44H376.857ZM377.857 63.86H324.657V65.86H377.857V63.86ZM323.657 64.86V82.5H325.657V64.86H323.657ZM324.657 83.5H359.797V81.5H324.657V83.5ZM358.797 82.5V102.66H360.797V82.5H358.797ZM359.797 101.66H324.657V103.66H359.797V101.66ZM323.657 102.66V121.14H325.657V102.66H323.657ZM324.657 122.14H378.417V120.14H324.657V122.14ZM377.417 121.14V142H379.417V121.14H377.417ZM378.417 141H300.577V143H378.417V141Z" fill="black"/>
<path d="M191.511 264.613C189.511 267.298 185.489 267.298 183.489 264.613L172.228 249.486C169.772 246.187 172.126 241.5 176.238 241.5H198.762C202.874 241.5 205.228 246.187 202.772 249.486L191.511 264.613Z" fill="black"/>
<path d="M191.511 265.387C189.511 262.702 185.489 262.702 183.489 265.387L172.228 280.514C169.772 283.813 172.126 288.5 176.238 288.5H198.762C202.874 288.5 205.228 283.813 202.772 280.514L191.511 265.387Z" fill="black"/>
</svg>
