<svg width="834" height="1194" viewBox="0 0 834 1194" fill="none" xmlns="http://www.w3.org/2000/svg">
<path d="M1.922 643V426.7H112.544C123.668 426.7 133.865 428.451 143.135 431.953C152.611 435.249 160.645 439.987 167.237 446.167C174.035 452.141 179.288 459.351 182.996 467.797C186.91 476.243 188.867 485.513 188.867 495.607C188.867 509.203 185.159 521.357 177.743 532.069C170.327 542.781 160.542 550.918 148.388 556.48L195.665 643H136.337L95.549 564.205H55.07V643H1.922ZM107.6 472.123H55.07V520.945H107.6C115.84 520.945 122.432 518.679 127.376 514.147C132.526 509.615 135.101 503.744 135.101 496.534C135.101 489.324 132.526 483.453 127.376 478.921C122.432 474.389 115.84 472.123 107.6 472.123ZM199.103 643L287.786 426.7H348.659L436.106 643H378.632L358.856 590.779H274.499L254.414 643H199.103ZM290.567 548.446H343.097L317.141 479.23L290.567 548.446ZM549.784 596.959C560.29 596.959 569.972 594.693 578.83 590.161C587.894 585.629 596.031 578.934 603.241 570.076L638.158 604.375C628.064 616.941 614.777 627.035 598.297 634.657C582.023 642.279 565.234 646.09 547.93 646.09C531.656 646.09 516.309 643.206 501.889 637.438C487.675 631.67 475.418 623.842 465.118 613.954C454.818 604.066 446.681 592.324 440.707 578.728C434.733 565.132 431.746 550.506 431.746 534.85C431.746 519.194 434.733 504.568 440.707 490.972C446.681 477.17 454.818 465.325 465.118 455.437C475.624 445.549 487.984 437.721 502.198 431.953C516.412 426.185 531.656 423.301 547.93 423.301C556.788 423.301 565.646 424.331 574.504 426.391C583.362 428.451 591.808 431.335 599.842 435.043C607.876 438.545 615.292 442.974 622.09 448.33C628.888 453.48 634.759 459.248 639.703 465.634L603.859 500.86C596.237 491.384 587.688 484.277 578.212 479.539C568.942 474.595 558.848 472.123 547.93 472.123C539.278 472.123 531.141 473.771 523.519 477.067C516.103 480.157 509.614 484.483 504.052 490.045C498.696 495.607 494.37 502.302 491.074 510.13C487.984 517.752 486.439 525.992 486.439 534.85C486.439 543.708 487.984 551.948 491.074 559.57C494.37 566.986 498.799 573.475 504.361 579.037C510.129 584.599 516.824 589.028 524.446 592.324C532.274 595.414 540.72 596.959 549.784 596.959ZM660.659 643V426.7H831.227V472.741H713.807V511.675H791.366V556.171H713.807V596.959H832.463V643H660.659Z" fill="black"/>
<path d="M1.922 643H0.922001V644H1.922V643ZM1.922 426.7V425.7H0.922001V426.7H1.922ZM143.135 431.953L142.782 432.888L142.794 432.893L142.806 432.897L143.135 431.953ZM167.237 446.167L166.553 446.897L166.565 446.908L166.577 446.918L167.237 446.167ZM182.996 467.797L182.08 468.199L182.084 468.208L182.089 468.217L182.996 467.797ZM177.743 532.069L176.921 531.5L176.921 531.5L177.743 532.069ZM148.388 556.48L147.972 555.571L146.996 556.017L147.51 556.96L148.388 556.48ZM195.665 643V644H197.351L196.543 642.52L195.665 643ZM136.337 643L135.449 643.46L135.729 644H136.337V643ZM95.549 564.205L96.4371 563.745L96.1574 563.205H95.549V564.205ZM55.07 564.205V563.205H54.07V564.205H55.07ZM55.07 643V644H56.07V643H55.07ZM55.07 472.123V471.123H54.07V472.123H55.07ZM55.07 520.945H54.07V521.945H55.07V520.945ZM127.376 514.147L126.715 513.396L126.708 513.403L126.7 513.41L127.376 514.147ZM127.376 478.921L126.7 479.658L126.708 479.665L126.715 479.672L127.376 478.921ZM2.922 643V426.7H0.922001V643H2.922ZM1.922 427.7H112.544V425.7H1.922V427.7ZM112.544 427.7C123.562 427.7 133.638 429.434 142.782 432.888L143.488 431.018C134.092 427.468 123.774 425.7 112.544 425.7V427.7ZM142.806 432.897C152.165 436.153 160.074 440.822 166.553 446.897L167.921 445.437C161.216 439.152 153.057 434.345 143.464 431.008L142.806 432.897ZM166.577 446.918C173.263 452.794 178.43 459.884 182.08 468.199L183.912 467.395C180.146 458.818 174.807 451.488 167.897 445.416L166.577 446.918ZM182.089 468.217C185.937 476.521 187.867 485.646 187.867 495.607H189.867C189.867 485.38 187.883 475.965 183.903 467.377L182.089 468.217ZM187.867 495.607C187.867 509.009 184.216 520.963 176.921 531.5L178.565 532.638C186.102 521.751 189.867 509.397 189.867 495.607H187.867ZM176.921 531.5C169.61 542.06 159.967 550.081 147.972 555.571L148.804 557.389C161.117 551.755 171.044 543.502 178.565 532.638L176.921 531.5ZM147.51 556.96L194.787 643.48L196.543 642.52L149.266 556L147.51 556.96ZM195.665 642H136.337V644H195.665V642ZM137.225 642.54L96.4371 563.745L94.6609 564.665L135.449 643.46L137.225 642.54ZM95.549 563.205H55.07V565.205H95.549V563.205ZM54.07 564.205V643H56.07V564.205H54.07ZM55.07 642H1.922V644H55.07V642ZM107.6 471.123H55.07V473.123H107.6V471.123ZM54.07 472.123V520.945H56.07V472.123H54.07ZM55.07 521.945H107.6V519.945H55.07V521.945ZM107.6 521.945C116.03 521.945 122.883 519.622 128.052 514.884L126.7 513.41C121.981 517.736 115.65 519.945 107.6 519.945V521.945ZM128.037 514.898C133.415 510.165 136.101 504.015 136.101 496.534H134.101C134.101 503.473 131.637 509.065 126.715 513.396L128.037 514.898ZM136.101 496.534C136.101 489.053 133.415 482.903 128.037 478.17L126.715 479.672C131.637 484.003 134.101 489.595 134.101 496.534H136.101ZM128.052 478.184C122.883 473.446 116.03 471.123 107.6 471.123V473.123C115.65 473.123 121.981 475.332 126.7 479.658L128.052 478.184ZM199.103 643L198.177 642.621L197.612 644H199.103V643ZM287.786 426.7V425.7H287.115L286.86 426.321L287.786 426.7ZM348.659 426.7L349.586 426.325L349.333 425.7H348.659V426.7ZM436.106 643V644H437.589L437.033 642.625L436.106 643ZM378.632 643L377.696 643.354L377.941 644H378.632V643ZM358.856 590.779L359.791 590.425L359.546 589.779H358.856V590.779ZM274.499 590.779V589.779H273.812L273.565 590.42L274.499 590.779ZM254.414 643V644H255.1L255.347 643.359L254.414 643ZM290.567 548.446L289.633 548.088L289.112 549.446H290.567V548.446ZM343.097 548.446V549.446H344.54L344.033 548.095L343.097 548.446ZM317.141 479.23L318.077 478.879L317.152 476.411L316.207 478.872L317.141 479.23ZM200.028 643.379L288.711 427.079L286.86 426.321L198.177 642.621L200.028 643.379ZM287.786 427.7H348.659V425.7H287.786V427.7ZM347.732 427.075L435.179 643.375L437.033 642.625L349.586 426.325L347.732 427.075ZM436.106 642H378.632V644H436.106V642ZM379.567 642.646L359.791 590.425L357.92 591.133L377.696 643.354L379.567 642.646ZM358.856 589.779H274.499V591.779H358.856V589.779ZM273.565 590.42L253.48 642.641L255.347 643.359L275.432 591.138L273.565 590.42ZM254.414 642H199.103V644H254.414V642ZM290.567 549.446H343.097V547.446H290.567V549.446ZM344.033 548.095L318.077 478.879L316.204 479.581L342.16 548.797L344.033 548.095ZM316.207 478.872L289.633 548.088L291.5 548.804L318.074 479.588L316.207 478.872ZM578.83 590.161L578.383 589.267L578.374 589.271L578.83 590.161ZM603.241 570.076L603.942 569.363L603.158 568.593L602.465 569.445L603.241 570.076ZM638.158 604.375L638.937 605.001L639.504 604.296L638.859 603.662L638.158 604.375ZM598.297 634.657L597.877 633.749L597.873 633.751L598.297 634.657ZM501.889 637.438L501.513 638.365L501.517 638.366L501.889 637.438ZM465.118 613.954L464.425 614.675L464.425 614.675L465.118 613.954ZM440.707 578.728L439.791 579.13L439.791 579.13L440.707 578.728ZM440.707 490.972L441.622 491.374L441.625 491.369L440.707 490.972ZM465.118 455.437L464.432 454.709L464.425 454.716L465.118 455.437ZM599.842 435.043L599.423 435.951L599.432 435.955L599.442 435.96L599.842 435.043ZM622.09 448.33L621.471 449.115L621.478 449.121L621.486 449.127L622.09 448.33ZM639.703 465.634L640.404 466.347L641.038 465.724L640.494 465.022L639.703 465.634ZM603.859 500.86L603.08 501.487L603.772 502.347L604.56 501.573L603.859 500.86ZM578.212 479.539L577.741 480.421L577.753 480.428L577.765 480.433L578.212 479.539ZM523.519 477.067L523.903 477.99L523.916 477.985L523.519 477.067ZM504.052 490.045L503.345 489.338L503.338 489.345L503.332 489.351L504.052 490.045ZM491.074 510.13L490.152 509.742L490.147 509.754L491.074 510.13ZM491.074 559.57L490.147 559.946L490.153 559.961L490.16 559.976L491.074 559.57ZM504.361 579.037L503.654 579.744L503.66 579.751L503.667 579.757L504.361 579.037ZM524.446 592.324L524.049 593.242L524.064 593.248L524.079 593.254L524.446 592.324ZM549.784 597.959C560.439 597.959 570.278 595.659 579.285 591.051L578.374 589.271C569.665 593.727 560.141 595.959 549.784 595.959V597.959ZM579.277 591.055C588.483 586.452 596.728 579.661 604.016 570.707L602.465 569.445C595.333 578.207 587.305 584.806 578.383 589.267L579.277 591.055ZM602.54 570.789L637.457 605.088L638.859 603.662L603.942 569.363L602.54 570.789ZM637.378 603.749C627.392 616.18 614.235 626.184 597.877 633.749L598.717 635.565C615.319 627.886 628.735 617.702 638.937 605.001L637.378 603.749ZM597.873 633.751C581.726 641.314 565.082 645.09 547.93 645.09V647.09C565.386 647.09 582.319 643.244 598.721 635.563L597.873 633.751ZM547.93 645.09C531.777 645.09 516.556 642.228 502.26 636.51L501.517 638.366C516.061 644.184 531.535 647.09 547.93 647.09V645.09ZM502.265 636.511C488.16 630.788 476.012 623.026 465.81 613.233L464.425 614.675C474.823 624.658 487.19 632.552 501.513 638.365L502.265 636.511ZM465.81 613.233C455.609 603.439 447.546 591.807 441.622 578.326L439.791 579.13C445.816 592.841 454.027 604.693 464.425 614.675L465.81 613.233ZM441.622 578.326C435.707 564.863 432.746 550.375 432.746 534.85H430.746C430.746 550.637 433.759 565.401 439.791 579.13L441.622 578.326ZM432.746 534.85C432.746 519.325 435.707 504.837 441.622 491.374L439.791 490.57C433.759 504.299 430.746 519.063 430.746 534.85H432.746ZM441.625 491.369C447.549 477.683 455.611 465.949 465.81 456.158L464.425 454.716C454.024 464.7 445.813 476.657 439.789 490.575L441.625 491.369ZM465.803 456.165C476.214 446.367 488.467 438.604 502.574 432.88L501.822 431.026C487.501 436.838 475.034 444.731 464.432 454.709L465.803 456.165ZM502.574 432.88C516.661 427.163 531.777 424.301 547.93 424.301V422.301C531.535 422.301 516.162 425.207 501.822 431.026L502.574 432.88ZM547.93 424.301C556.71 424.301 565.492 425.322 574.277 427.365L574.73 425.417C565.8 423.34 556.866 422.301 547.93 422.301V424.301ZM574.277 427.365C583.071 429.41 591.452 432.272 599.423 435.951L600.261 434.135C592.163 430.398 583.653 427.492 574.73 425.417L574.277 427.365ZM599.442 435.96C607.399 439.428 614.741 443.813 621.471 449.115L622.709 447.544C615.843 442.135 608.353 437.662 600.241 434.126L599.442 435.96ZM621.486 449.127C628.218 454.227 634.025 459.934 638.912 466.246L640.494 465.022C635.493 458.562 629.558 452.733 622.694 447.533L621.486 449.127ZM639.002 464.921L603.158 500.147L604.56 501.573L640.404 466.347L639.002 464.921ZM604.638 500.233C596.939 490.662 588.281 483.456 578.659 478.645L577.765 480.433C587.094 485.098 595.534 492.106 603.08 501.487L604.638 500.233ZM578.682 478.657C569.262 473.632 559.005 471.123 547.93 471.123V473.123C558.69 473.123 568.622 475.558 577.741 480.421L578.682 478.657ZM547.93 471.123C539.147 471.123 530.874 472.797 523.122 476.149L523.916 477.985C531.407 474.745 539.409 473.123 547.93 473.123V471.123ZM523.134 476.144C515.6 479.283 509.001 483.682 503.345 489.338L504.759 490.752C510.227 485.284 516.605 481.031 523.903 477.99L523.134 476.144ZM503.332 489.351C497.882 495.01 493.491 501.812 490.152 509.742L491.995 510.518C495.249 502.792 499.51 496.204 504.772 490.739L503.332 489.351ZM490.147 509.754C487.005 517.505 485.439 525.873 485.439 534.85H487.439C487.439 526.111 488.963 517.999 492.001 510.506L490.147 509.754ZM485.439 534.85C485.439 543.827 487.005 552.195 490.147 559.946L492.001 559.194C488.963 551.701 487.439 543.589 487.439 534.85H485.439ZM490.16 559.976C493.504 567.501 498.002 574.093 503.654 579.744L505.068 578.33C499.595 572.857 495.235 566.471 491.988 559.164L490.16 559.976ZM503.667 579.757C509.524 585.405 516.321 589.9 524.049 593.242L524.843 591.406C517.327 588.156 510.733 583.793 505.055 578.317L503.667 579.757ZM524.079 593.254C532.032 596.394 540.604 597.959 549.784 597.959V595.959C540.836 595.959 532.515 594.434 524.813 591.394L524.079 593.254ZM660.659 643H659.659V644H660.659V643ZM660.659 426.7V425.7H659.659V426.7H660.659ZM831.227 426.7H832.227V425.7H831.227V426.7ZM831.227 472.741V473.741H832.227V472.741H831.227ZM713.807 472.741V471.741H712.807V472.741H713.807ZM713.807 511.675H712.807V512.675H713.807V511.675ZM791.366 511.675H792.366V510.675H791.366V511.675ZM791.366 556.171V557.171H792.366V556.171H791.366ZM713.807 556.171V555.171H712.807V556.171H713.807ZM713.807 596.959H712.807V597.959H713.807V596.959ZM832.463 596.959H833.463V595.959H832.463V596.959ZM832.463 643V644H833.463V643H832.463ZM661.659 643V426.7H659.659V643H661.659ZM660.659 427.7H831.227V425.7H660.659V427.7ZM830.227 426.7V472.741H832.227V426.7H830.227ZM831.227 471.741H713.807V473.741H831.227V471.741ZM712.807 472.741V511.675H714.807V472.741H712.807ZM713.807 512.675H791.366V510.675H713.807V512.675ZM790.366 511.675V556.171H792.366V511.675H790.366ZM791.366 555.171H713.807V557.171H791.366V555.171ZM712.807 556.171V596.959H714.807V556.171H712.807ZM713.807 597.959H832.463V595.959H713.807V597.959ZM831.463 596.959V643H833.463V596.959H831.463ZM832.463 642H660.659V644H832.463V642Z" fill="black"/>
<path d="M1.922 364H0.922001V365H1.922V364ZM1.922 147.7V146.7H0.922001V147.7H1.922ZM143.135 152.953L142.782 153.888L142.794 153.893L142.806 153.897L143.135 152.953ZM167.237 167.167L166.553 167.897L166.565 167.908L166.577 167.918L167.237 167.167ZM182.996 188.797L182.08 189.199L182.084 189.208L182.089 189.217L182.996 188.797ZM177.743 253.069L176.921 252.5L176.921 252.5L177.743 253.069ZM148.388 277.48L147.972 276.571L146.996 277.017L147.51 277.96L148.388 277.48ZM195.665 364V365H197.351L196.543 363.52L195.665 364ZM136.337 364L135.449 364.46L135.729 365H136.337V364ZM95.549 285.205L96.4371 284.745L96.1574 284.205H95.549V285.205ZM55.07 285.205V284.205H54.07V285.205H55.07ZM55.07 364V365H56.07V364H55.07ZM55.07 193.123V192.123H54.07V193.123H55.07ZM55.07 241.945H54.07V242.945H55.07V241.945ZM127.376 235.147L126.715 234.396L126.708 234.403L126.7 234.41L127.376 235.147ZM127.376 199.921L126.7 200.658L126.708 200.665L126.715 200.672L127.376 199.921ZM2.922 364V147.7H0.922001V364H2.922ZM1.922 148.7H112.544V146.7H1.922V148.7ZM112.544 148.7C123.562 148.7 133.638 150.434 142.782 153.888L143.488 152.018C134.092 148.468 123.774 146.7 112.544 146.7V148.7ZM142.806 153.897C152.165 157.153 160.074 161.822 166.553 167.897L167.921 166.437C161.216 160.152 153.057 155.345 143.464 152.008L142.806 153.897ZM166.577 167.918C173.263 173.794 178.43 180.884 182.08 189.199L183.912 188.395C180.146 179.818 174.807 172.488 167.897 166.416L166.577 167.918ZM182.089 189.217C185.937 197.521 187.867 206.646 187.867 216.607H189.867C189.867 206.38 187.883 196.965 183.903 188.377L182.089 189.217ZM187.867 216.607C187.867 230.009 184.216 241.963 176.921 252.5L178.565 253.638C186.102 242.751 189.867 230.397 189.867 216.607H187.867ZM176.921 252.5C169.61 263.06 159.967 271.081 147.972 276.571L148.804 278.389C161.117 272.755 171.044 264.502 178.565 253.638L176.921 252.5ZM147.51 277.96L194.787 364.48L196.543 363.52L149.266 277L147.51 277.96ZM195.665 363H136.337V365H195.665V363ZM137.225 363.54L96.4371 284.745L94.6609 285.665L135.449 364.46L137.225 363.54ZM95.549 284.205H55.07V286.205H95.549V284.205ZM54.07 285.205V364H56.07V285.205H54.07ZM55.07 363H1.922V365H55.07V363ZM107.6 192.123H55.07V194.123H107.6V192.123ZM54.07 193.123V241.945H56.07V193.123H54.07ZM55.07 242.945H107.6V240.945H55.07V242.945ZM107.6 242.945C116.03 242.945 122.883 240.622 128.052 235.884L126.7 234.41C121.981 238.736 115.65 240.945 107.6 240.945V242.945ZM128.037 235.898C133.415 231.165 136.101 225.015 136.101 217.534H134.101C134.101 224.473 131.637 230.065 126.715 234.396L128.037 235.898ZM136.101 217.534C136.101 210.053 133.415 203.903 128.037 199.17L126.715 200.672C131.637 205.003 134.101 210.595 134.101 217.534H136.101ZM128.052 199.184C122.883 194.446 116.03 192.123 107.6 192.123V194.123C115.65 194.123 121.981 196.332 126.7 200.658L128.052 199.184ZM199.103 364L198.177 363.621L197.612 365H199.103V364ZM287.786 147.7V146.7H287.115L286.86 147.321L287.786 147.7ZM348.659 147.7L349.586 147.325L349.333 146.7H348.659V147.7ZM436.106 364V365H437.589L437.033 363.625L436.106 364ZM378.632 364L377.696 364.354L377.941 365H378.632V364ZM358.856 311.779L359.791 311.425L359.546 310.779H358.856V311.779ZM274.499 311.779V310.779H273.812L273.565 311.42L274.499 311.779ZM254.414 364V365H255.1L255.347 364.359L254.414 364ZM290.567 269.446L289.633 269.088L289.112 270.446H290.567V269.446ZM343.097 269.446V270.446H344.54L344.033 269.095L343.097 269.446ZM317.141 200.23L318.077 199.879L317.152 197.411L316.207 199.872L317.141 200.23ZM200.028 364.379L288.711 148.079L286.86 147.321L198.177 363.621L200.028 364.379ZM287.786 148.7H348.659V146.7H287.786V148.7ZM347.732 148.075L435.179 364.375L437.033 363.625L349.586 147.325L347.732 148.075ZM436.106 363H378.632V365H436.106V363ZM379.567 363.646L359.791 311.425L357.92 312.133L377.696 364.354L379.567 363.646ZM358.856 310.779H274.499V312.779H358.856V310.779ZM273.565 311.42L253.48 363.641L255.347 364.359L275.432 312.138L273.565 311.42ZM254.414 363H199.103V365H254.414V363ZM290.567 270.446H343.097V268.446H290.567V270.446ZM344.033 269.095L318.077 199.879L316.204 200.581L342.16 269.797L344.033 269.095ZM316.207 199.872L289.633 269.088L291.5 269.804L318.074 200.588L316.207 199.872ZM578.83 311.161L578.383 310.267L578.374 310.271L578.83 311.161ZM603.241 291.076L603.942 290.363L603.158 289.593L602.465 290.445L603.241 291.076ZM638.158 325.375L638.937 326.001L639.504 325.296L638.859 324.662L638.158 325.375ZM598.297 355.657L597.877 354.749L597.873 354.751L598.297 355.657ZM501.889 358.438L501.513 359.365L501.517 359.366L501.889 358.438ZM465.118 334.954L464.425 335.675L464.425 335.675L465.118 334.954ZM440.707 299.728L439.791 300.13L439.791 300.13L440.707 299.728ZM440.707 211.972L441.622 212.374L441.625 212.369L440.707 211.972ZM465.118 176.437L464.432 175.709L464.425 175.716L465.118 176.437ZM599.842 156.043L599.423 156.951L599.432 156.955L599.442 156.96L599.842 156.043ZM622.09 169.33L621.471 170.115L621.478 170.121L621.486 170.127L622.09 169.33ZM639.703 186.634L640.404 187.347L641.038 186.724L640.494 186.022L639.703 186.634ZM603.859 221.86L603.08 222.487L603.772 223.347L604.56 222.573L603.859 221.86ZM578.212 200.539L577.741 201.421L577.753 201.428L577.765 201.433L578.212 200.539ZM523.519 198.067L523.903 198.99L523.916 198.985L523.519 198.067ZM504.052 211.045L503.345 210.338L503.338 210.345L503.332 210.351L504.052 211.045ZM491.074 231.13L490.152 230.742L490.147 230.754L491.074 231.13ZM491.074 280.57L490.147 280.946L490.153 280.961L490.16 280.976L491.074 280.57ZM504.361 300.037L503.654 300.744L503.66 300.751L503.667 300.757L504.361 300.037ZM524.446 313.324L524.049 314.242L524.064 314.248L524.079 314.254L524.446 313.324ZM549.784 318.959C560.439 318.959 570.278 316.659 579.285 312.051L578.374 310.271C569.665 314.727 560.141 316.959 549.784 316.959V318.959ZM579.277 312.055C588.483 307.452 596.728 300.661 604.016 291.707L602.465 290.445C595.333 299.207 587.305 305.806 578.383 310.267L579.277 312.055ZM602.54 291.789L637.457 326.088L638.859 324.662L603.942 290.363L602.54 291.789ZM637.378 324.749C627.392 337.18 614.235 347.184 597.877 354.749L598.717 356.565C615.319 348.886 628.735 338.702 638.937 326.001L637.378 324.749ZM597.873 354.751C581.726 362.314 565.082 366.09 547.93 366.09V368.09C565.386 368.09 582.319 364.244 598.721 356.563L597.873 354.751ZM547.93 366.09C531.777 366.09 516.556 363.228 502.26 357.51L501.517 359.366C516.061 365.184 531.535 368.09 547.93 368.09V366.09ZM502.265 357.511C488.16 351.788 476.012 344.026 465.81 334.233L464.425 335.675C474.823 345.658 487.19 353.552 501.513 359.365L502.265 357.511ZM465.81 334.233C455.609 324.439 447.546 312.807 441.622 299.326L439.791 300.13C445.816 313.841 454.027 325.693 464.425 335.675L465.81 334.233ZM441.622 299.326C435.707 285.863 432.746 271.375 432.746 255.85H430.746C430.746 271.637 433.759 286.401 439.791 300.13L441.622 299.326ZM432.746 255.85C432.746 240.325 435.707 225.837 441.622 212.374L439.791 211.57C433.759 225.299 430.746 240.063 430.746 255.85H432.746ZM441.625 212.369C447.549 198.683 455.611 186.949 465.81 177.158L464.425 175.716C454.024 185.7 445.813 197.657 439.789 211.575L441.625 212.369ZM465.803 177.165C476.214 167.367 488.467 159.604 502.574 153.88L501.822 152.026C487.501 157.838 475.034 165.731 464.432 175.709L465.803 177.165ZM502.574 153.88C516.661 148.163 531.777 145.301 547.93 145.301V143.301C531.535 143.301 516.162 146.207 501.822 152.026L502.574 153.88ZM547.93 145.301C556.71 145.301 565.492 146.322 574.277 148.365L574.73 146.417C565.8 144.34 556.866 143.301 547.93 143.301V145.301ZM574.277 148.365C583.071 150.41 591.452 153.272 599.423 156.951L600.261 155.135C592.163 151.398 583.653 148.492 574.73 146.417L574.277 148.365ZM599.442 156.96C607.399 160.428 614.741 164.813 621.471 170.115L622.709 168.544C615.843 163.135 608.353 158.662 600.241 155.126L599.442 156.96ZM621.486 170.127C628.218 175.227 634.025 180.934 638.912 187.246L640.494 186.022C635.493 179.562 629.558 173.733 622.694 168.533L621.486 170.127ZM639.002 185.921L603.158 221.147L604.56 222.573L640.404 187.347L639.002 185.921ZM604.638 221.233C596.939 211.662 588.281 204.456 578.659 199.645L577.765 201.433C587.094 206.098 595.534 213.106 603.08 222.487L604.638 221.233ZM578.682 199.657C569.262 194.632 559.005 192.123 547.93 192.123V194.123C558.69 194.123 568.622 196.558 577.741 201.421L578.682 199.657ZM547.93 192.123C539.147 192.123 530.874 193.797 523.122 197.149L523.916 198.985C531.407 195.745 539.409 194.123 547.93 194.123V192.123ZM523.134 197.144C515.6 200.283 509.001 204.682 503.345 210.338L504.759 211.752C510.227 206.284 516.605 202.031 523.903 198.99L523.134 197.144ZM503.332 210.351C497.882 216.01 493.491 222.812 490.152 230.742L491.995 231.518C495.249 223.792 499.51 217.204 504.772 211.739L503.332 210.351ZM490.147 230.754C487.005 238.505 485.439 246.873 485.439 255.85H487.439C487.439 247.111 488.963 238.999 492.001 231.506L490.147 230.754ZM485.439 255.85C485.439 264.827 487.005 273.195 490.147 280.946L492.001 280.194C488.963 272.701 487.439 264.589 487.439 255.85H485.439ZM490.16 280.976C493.504 288.501 498.002 295.093 503.654 300.744L505.068 299.33C499.595 293.857 495.235 287.471 491.988 280.164L490.16 280.976ZM503.667 300.757C509.524 306.405 516.321 310.9 524.049 314.242L524.843 312.406C517.327 309.156 510.733 304.793 505.055 299.317L503.667 300.757ZM524.079 314.254C532.032 317.394 540.604 318.959 549.784 318.959V316.959C540.836 316.959 532.515 315.434 524.813 312.394L524.079 314.254ZM660.659 364H659.659V365H660.659V364ZM660.659 147.7V146.7H659.659V147.7H660.659ZM831.227 147.7H832.227V146.7H831.227V147.7ZM831.227 193.741V194.741H832.227V193.741H831.227ZM713.807 193.741V192.741H712.807V193.741H713.807ZM713.807 232.675H712.807V233.675H713.807V232.675ZM791.366 232.675H792.366V231.675H791.366V232.675ZM791.366 277.171V278.171H792.366V277.171H791.366ZM713.807 277.171V276.171H712.807V277.171H713.807ZM713.807 317.959H712.807V318.959H713.807V317.959ZM832.463 317.959H833.463V316.959H832.463V317.959ZM832.463 364V365H833.463V364H832.463ZM661.659 364V147.7H659.659V364H661.659ZM660.659 148.7H831.227V146.7H660.659V148.7ZM830.227 147.7V193.741H832.227V147.7H830.227ZM831.227 192.741H713.807V194.741H831.227V192.741ZM712.807 193.741V232.675H714.807V193.741H712.807ZM713.807 233.675H791.366V231.675H713.807V233.675ZM790.366 232.675V277.171H792.366V232.675H790.366ZM791.366 276.171H713.807V278.171H791.366V276.171ZM712.807 277.171V317.959H714.807V277.171H712.807ZM713.807 318.959H832.463V316.959H713.807V318.959ZM831.463 317.959V364H833.463V317.959H831.463ZM832.463 363H660.659V365H832.463V363Z" fill="black"/>
<path d="M3.922 110H2.922V111H3.922V110ZM3.922 -106.3V-107.3H2.922V-106.3H3.922ZM145.135 -101.047L144.782 -100.112L144.794 -100.107L144.806 -100.103L145.135 -101.047ZM169.237 -86.833L168.553 -86.1035L168.565 -86.0925L168.577 -86.0818L169.237 -86.833ZM184.996 -65.203L184.08 -64.801L184.084 -64.7917L184.089 -64.7825L184.996 -65.203ZM179.743 -0.931008L178.921 -1.50022L178.921 -1.50022L179.743 -0.931008ZM150.388 23.48L149.972 22.5707L148.996 23.0174L149.51 23.9595L150.388 23.48ZM197.665 110V111H199.351L198.543 109.52L197.665 110ZM138.337 110L137.449 110.46L137.729 111H138.337V110ZM97.549 31.205L98.4371 30.7453L98.1574 30.205H97.549V31.205ZM57.07 31.205V30.205H56.07V31.205H57.07ZM57.07 110V111H58.07V110H57.07ZM57.07 -60.877V-61.877H56.07V-60.877H57.07ZM57.07 -12.055H56.07V-11.055H57.07V-12.055ZM129.376 -18.853L128.715 -19.6037L128.708 -19.597L128.7 -19.5902L129.376 -18.853ZM129.376 -54.079L128.7 -53.3419L128.708 -53.335L128.715 -53.3283L129.376 -54.079ZM4.922 110V-106.3H2.922V110H4.922ZM3.922 -105.3H114.544V-107.3H3.922V-105.3ZM114.544 -105.3C125.562 -105.3 135.638 -103.566 144.782 -100.112L145.488 -101.982C136.092 -105.532 125.774 -107.3 114.544 -107.3V-105.3ZM144.806 -100.103C154.165 -96.8474 162.074 -92.1777 168.553 -86.1035L169.921 -87.5625C163.216 -93.8484 155.057 -98.6546 145.464 -101.992L144.806 -100.103ZM168.577 -86.0818C175.263 -80.2061 180.43 -73.116 184.08 -64.801L185.912 -65.605C182.146 -74.182 176.807 -81.5119 169.897 -87.5842L168.577 -86.0818ZM184.089 -64.7825C187.937 -56.4791 189.867 -47.3542 189.867 -37.393H191.867C191.867 -47.6198 189.883 -57.0349 185.903 -65.6235L184.089 -64.7825ZM189.867 -37.393C189.867 -23.991 186.216 -12.0374 178.921 -1.50022L180.565 -0.361798C188.102 -11.2486 191.867 -23.603 191.867 -37.393H189.867ZM178.921 -1.50022C171.61 9.06001 161.967 17.0815 149.972 22.5707L150.804 24.3893C163.117 18.7545 173.044 10.502 180.565 -0.361798L178.921 -1.50022ZM149.51 23.9595L196.787 110.48L198.543 109.52L151.266 23.0005L149.51 23.9595ZM197.665 109H138.337V111H197.665V109ZM139.225 109.54L98.4371 30.7453L96.6609 31.6647L137.449 110.46L139.225 109.54ZM97.549 30.205H57.07V32.205H97.549V30.205ZM56.07 31.205V110H58.07V31.205H56.07ZM57.07 109H3.922V111H57.07V109ZM109.6 -61.877H57.07V-59.877H109.6V-61.877ZM56.07 -60.877V-12.055H58.07V-60.877H56.07ZM57.07 -11.055H109.6V-13.055H57.07V-11.055ZM109.6 -11.055C118.03 -11.055 124.883 -13.3782 130.052 -18.1159L128.7 -19.5902C123.981 -15.2638 117.65 -13.055 109.6 -13.055V-11.055ZM130.037 -18.1023C135.415 -22.8349 138.101 -28.9853 138.101 -36.466H136.101C136.101 -29.5267 133.637 -23.9351 128.715 -19.6037L130.037 -18.1023ZM138.101 -36.466C138.101 -43.9467 135.415 -50.0971 130.037 -54.8297L128.715 -53.3283C133.637 -48.9969 136.101 -43.4053 136.101 -36.466H138.101ZM130.052 -54.8162C124.883 -59.5538 118.03 -61.877 109.6 -61.877V-59.877C117.65 -59.877 123.981 -57.6682 128.7 -53.3419L130.052 -54.8162ZM201.103 110L200.177 109.621L199.612 111H201.103V110ZM289.786 -106.3V-107.3H289.115L288.86 -106.679L289.786 -106.3ZM350.659 -106.3L351.586 -106.675L351.333 -107.3H350.659V-106.3ZM438.106 110V111H439.589L439.033 109.625L438.106 110ZM380.632 110L379.696 110.354L379.941 111H380.632V110ZM360.856 57.779L361.791 57.4248L361.546 56.779H360.856V57.779ZM276.499 57.779V56.779H275.812L275.565 57.42L276.499 57.779ZM256.414 110V111H257.1L257.347 110.359L256.414 110ZM292.567 15.446L291.633 15.0876L291.112 16.446H292.567V15.446ZM345.097 15.446V16.446H346.54L346.033 15.0949L345.097 15.446ZM319.141 -53.77L320.077 -54.1211L319.152 -56.5887L318.207 -54.1284L319.141 -53.77ZM202.028 110.379L290.711 -105.921L288.86 -106.679L200.177 109.621L202.028 110.379ZM289.786 -105.3H350.659V-107.3H289.786V-105.3ZM349.732 -105.925L437.179 110.375L439.033 109.625L351.586 -106.675L349.732 -105.925ZM438.106 109H380.632V111H438.106V109ZM381.567 109.646L361.791 57.4248L359.92 58.1331L379.696 110.354L381.567 109.646ZM360.856 56.779H276.499V58.779H360.856V56.779ZM275.565 57.42L255.48 109.641L257.347 110.359L277.432 58.138L275.565 57.42ZM256.414 109H201.103V111H256.414V109ZM292.567 16.446H345.097V14.446H292.567V16.446ZM346.033 15.0949L320.077 -54.1211L318.204 -53.4189L344.16 15.7971L346.033 15.0949ZM318.207 -54.1284L291.633 15.0876L293.5 15.8044L320.074 -53.4116L318.207 -54.1284ZM580.83 57.161L580.383 56.2665L580.374 56.2708L580.83 57.161ZM605.241 37.076L605.942 36.3626L605.158 35.5932L604.465 36.4447L605.241 37.076ZM640.158 71.375L640.937 72.0013L641.504 71.2958L640.859 70.6616L640.158 71.375ZM600.297 101.657L599.877 100.749L599.873 100.751L600.297 101.657ZM503.889 104.438L503.513 105.365L503.517 105.366L503.889 104.438ZM467.118 80.954L466.425 81.6754L466.425 81.6754L467.118 80.954ZM442.707 45.728L441.791 46.1303L441.791 46.1303L442.707 45.728ZM442.707 -42.028L443.622 -41.6257L443.625 -41.6308L442.707 -42.028ZM467.118 -77.563L466.432 -78.2913L466.425 -78.2844L467.118 -77.563ZM601.842 -97.957L601.423 -97.0491L601.432 -97.0446L601.442 -97.0403L601.842 -97.957ZM624.09 -84.67L623.471 -83.8845L623.478 -83.8787L623.486 -83.8729L624.09 -84.67ZM641.703 -67.366L642.404 -66.6528L643.038 -67.2756L642.494 -67.9782L641.703 -67.366ZM605.859 -32.14L605.08 -31.5132L605.772 -30.6525L606.56 -31.4268L605.859 -32.14ZM580.212 -53.461L579.741 -52.5787L579.753 -52.5725L579.765 -52.5666L580.212 -53.461ZM525.519 -55.933L525.903 -55.0098L525.916 -55.0151L525.519 -55.933ZM506.052 -42.955L505.345 -43.6621L505.338 -43.6554L505.332 -43.6487L506.052 -42.955ZM493.074 -22.87L492.152 -23.2581L492.147 -23.2457L493.074 -22.87ZM493.074 26.57L492.147 26.9457L492.153 26.961L492.16 26.9761L493.074 26.57ZM506.361 46.037L505.654 46.7441L505.66 46.7505L505.667 46.7568L506.361 46.037ZM526.446 59.324L526.049 60.2419L526.064 60.2482L526.079 60.2542L526.446 59.324ZM551.784 64.959C562.439 64.959 572.278 62.6594 581.285 58.0512L580.374 56.2708C571.665 60.7266 562.141 62.959 551.784 62.959V64.959ZM581.277 58.0554C590.483 53.4524 598.728 46.6613 606.016 37.7073L604.465 36.4447C597.333 45.2067 589.305 51.8056 580.383 56.2666L581.277 58.0554ZM604.54 37.7894L639.457 72.0884L640.859 70.6616L605.942 36.3626L604.54 37.7894ZM639.378 70.7487C629.392 83.18 616.235 93.1839 599.877 100.749L600.717 102.565C617.319 94.8861 630.735 84.702 640.937 72.0013L639.378 70.7487ZM599.873 100.751C583.726 108.314 567.082 112.09 549.93 112.09V114.09C567.386 114.09 584.319 110.244 600.721 102.563L599.873 100.751ZM549.93 112.09C533.777 112.09 518.556 109.228 504.26 103.51L503.517 105.366C518.061 111.184 533.535 114.09 549.93 114.09V112.09ZM504.265 103.511C490.16 97.7875 478.012 90.0264 467.81 80.2326L466.425 81.6754C476.823 91.6576 489.19 99.5525 503.513 105.365L504.265 103.511ZM467.81 80.2326C457.609 70.439 449.546 58.8067 443.622 45.3257L441.791 46.1303C447.816 59.8413 456.027 71.693 466.425 81.6754L467.81 80.2326ZM443.622 45.3257C437.707 31.8633 434.746 17.3752 434.746 1.84999H432.746C432.746 17.6368 435.759 32.4007 441.791 46.1303L443.622 45.3257ZM434.746 1.84999C434.746 -13.6752 437.707 -28.1634 443.622 -41.6257L441.791 -42.4303C435.759 -28.7007 432.746 -13.9368 432.746 1.84999H434.746ZM443.625 -41.6308C449.549 -55.3174 457.611 -67.0505 467.81 -76.8416L466.425 -78.2844C456.024 -68.2995 447.813 -56.3426 441.789 -42.4252L443.625 -41.6308ZM467.803 -76.8348C478.214 -86.6329 490.467 -94.3959 504.574 -100.12L503.822 -101.974C489.501 -96.1621 477.034 -88.2691 466.432 -78.2912L467.803 -76.8348ZM504.574 -100.12C518.661 -105.837 533.777 -108.699 549.93 -108.699V-110.699C533.535 -110.699 518.162 -107.793 503.822 -101.974L504.574 -100.12ZM549.93 -108.699C558.71 -108.699 567.492 -107.678 576.277 -105.635L576.73 -107.583C567.8 -109.66 558.866 -110.699 549.93 -110.699V-108.699ZM576.277 -105.635C585.071 -103.59 593.452 -100.728 601.423 -97.0491L602.261 -98.865C594.163 -102.602 585.653 -105.508 576.73 -107.583L576.277 -105.635ZM601.442 -97.0403C609.399 -93.5721 616.741 -89.1869 623.471 -83.8845L624.709 -85.4555C617.843 -90.8651 610.353 -95.338 602.241 -98.8737L601.442 -97.0403ZM623.486 -83.8729C630.218 -78.7731 636.025 -73.0664 640.912 -66.7538L642.494 -67.9782C637.493 -74.4376 631.558 -80.2669 624.694 -85.4671L623.486 -83.8729ZM641.002 -68.0792L605.158 -32.8532L606.56 -31.4268L642.404 -66.6528L641.002 -68.0792ZM606.638 -32.7668C598.939 -42.3383 590.281 -49.5443 580.659 -54.3554L579.765 -52.5666C589.094 -47.9018 597.534 -40.8937 605.08 -31.5132L606.638 -32.7668ZM580.682 -54.3434C571.262 -59.3677 561.005 -61.877 549.93 -61.877V-59.877C560.69 -59.877 570.622 -57.4423 579.741 -52.5787L580.682 -54.3434ZM549.93 -61.877C541.147 -61.877 532.874 -60.2033 525.122 -56.8509L525.916 -55.0151C533.407 -58.2547 541.409 -59.877 549.93 -59.877V-61.877ZM525.134 -56.8561C517.6 -53.7169 511.001 -49.3185 505.345 -43.6621L506.759 -42.2479C512.227 -47.7155 518.605 -51.9691 525.903 -55.0099L525.134 -56.8561ZM505.332 -43.6487C499.882 -37.9896 495.491 -31.1881 492.152 -23.2581L493.995 -22.4819C497.249 -30.2079 501.51 -36.7964 506.772 -42.2614L505.332 -43.6487ZM492.147 -23.2457C489.005 -15.4954 487.439 -7.12678 487.439 1.84999H489.439C489.439 -6.88922 490.963 -15.0006 494.001 -22.4943L492.147 -23.2457ZM487.439 1.84999C487.439 10.8268 489.005 19.1954 492.147 26.9457L494.001 26.1943C490.963 18.7006 489.439 10.5892 489.439 1.84999H487.439ZM492.16 26.9761C495.504 34.5007 500.002 41.0926 505.654 46.7441L507.068 45.3299C501.595 39.8574 497.235 33.4713 493.988 26.1639L492.16 26.9761ZM505.667 46.7568C511.524 52.4052 518.321 56.9 526.049 60.2419L526.843 58.4061C519.327 55.156 512.733 50.7928 507.055 45.3172L505.667 46.7568ZM526.079 60.2542C534.032 63.3938 542.604 64.959 551.784 64.959V62.959C542.836 62.959 534.515 61.4342 526.813 58.3938L526.079 60.2542ZM662.659 110H661.659V111H662.659V110ZM662.659 -106.3V-107.3H661.659V-106.3H662.659ZM833.227 -106.3H834.227V-107.3H833.227V-106.3ZM833.227 -60.259V-59.259H834.227V-60.259H833.227ZM715.807 -60.259V-61.259H714.807V-60.259H715.807ZM715.807 -21.325H714.807V-20.325H715.807V-21.325ZM793.366 -21.325H794.366V-22.325H793.366V-21.325ZM793.366 23.171V24.171H794.366V23.171H793.366ZM715.807 23.171V22.171H714.807V23.171H715.807ZM715.807 63.959H714.807V64.959H715.807V63.959ZM834.463 63.959H835.463V62.959H834.463V63.959ZM834.463 110V111H835.463V110H834.463ZM663.659 110V-106.3H661.659V110H663.659ZM662.659 -105.3H833.227V-107.3H662.659V-105.3ZM832.227 -106.3V-60.259H834.227V-106.3H832.227ZM833.227 -61.259H715.807V-59.259H833.227V-61.259ZM714.807 -60.259V-21.325H716.807V-60.259H714.807ZM715.807 -20.325H793.366V-22.325H715.807V-20.325ZM792.366 -21.325V23.171H794.366V-21.325H792.366ZM793.366 22.171H715.807V24.171H793.366V22.171ZM714.807 23.171V63.959H716.807V23.171H714.807ZM715.807 64.959H834.463V62.959H715.807V64.959ZM833.463 63.959V110H835.463V63.959H833.463ZM834.463 109H662.659V111H834.463V109Z" fill="black"/>
<path d="M3.922 920H2.922V921H3.922V920ZM3.922 703.7V702.7H2.922V703.7H3.922ZM145.135 708.953L144.782 709.888L144.794 709.893L144.806 709.897L145.135 708.953ZM169.237 723.167L168.553 723.897L168.565 723.908L168.577 723.918L169.237 723.167ZM184.996 744.797L184.08 745.199L184.084 745.208L184.089 745.217L184.996 744.797ZM179.743 809.069L178.921 808.5L178.921 808.5L179.743 809.069ZM150.388 833.48L149.972 832.571L148.996 833.017L149.51 833.96L150.388 833.48ZM197.665 920V921H199.351L198.543 919.52L197.665 920ZM138.337 920L137.449 920.46L137.729 921H138.337V920ZM97.549 841.205L98.4371 840.745L98.1574 840.205H97.549V841.205ZM57.07 841.205V840.205H56.07V841.205H57.07ZM57.07 920V921H58.07V920H57.07ZM57.07 749.123V748.123H56.07V749.123H57.07ZM57.07 797.945H56.07V798.945H57.07V797.945ZM129.376 791.147L128.715 790.396L128.708 790.403L128.7 790.41L129.376 791.147ZM129.376 755.921L128.7 756.658L128.708 756.665L128.715 756.672L129.376 755.921ZM4.922 920V703.7H2.922V920H4.922ZM3.922 704.7H114.544V702.7H3.922V704.7ZM114.544 704.7C125.562 704.7 135.638 706.434 144.782 709.888L145.488 708.018C136.092 704.468 125.774 702.7 114.544 702.7V704.7ZM144.806 709.897C154.165 713.153 162.074 717.822 168.553 723.897L169.921 722.437C163.216 716.152 155.057 711.345 145.464 708.008L144.806 709.897ZM168.577 723.918C175.263 729.794 180.43 736.884 184.08 745.199L185.912 744.395C182.146 735.818 176.807 728.488 169.897 722.416L168.577 723.918ZM184.089 745.217C187.937 753.521 189.867 762.646 189.867 772.607H191.867C191.867 762.38 189.883 752.965 185.903 744.377L184.089 745.217ZM189.867 772.607C189.867 786.009 186.216 797.963 178.921 808.5L180.565 809.638C188.102 798.751 191.867 786.397 191.867 772.607H189.867ZM178.921 808.5C171.61 819.06 161.967 827.081 149.972 832.571L150.804 834.389C163.117 828.755 173.044 820.502 180.565 809.638L178.921 808.5ZM149.51 833.96L196.787 920.48L198.543 919.52L151.266 833L149.51 833.96ZM197.665 919H138.337V921H197.665V919ZM139.225 919.54L98.4371 840.745L96.6609 841.665L137.449 920.46L139.225 919.54ZM97.549 840.205H57.07V842.205H97.549V840.205ZM56.07 841.205V920H58.07V841.205H56.07ZM57.07 919H3.922V921H57.07V919ZM109.6 748.123H57.07V750.123H109.6V748.123ZM56.07 749.123V797.945H58.07V749.123H56.07ZM57.07 798.945H109.6V796.945H57.07V798.945ZM109.6 798.945C118.03 798.945 124.883 796.622 130.052 791.884L128.7 790.41C123.981 794.736 117.65 796.945 109.6 796.945V798.945ZM130.037 791.898C135.415 787.165 138.101 781.015 138.101 773.534H136.101C136.101 780.473 133.637 786.065 128.715 790.396L130.037 791.898ZM138.101 773.534C138.101 766.053 135.415 759.903 130.037 755.17L128.715 756.672C133.637 761.003 136.101 766.595 136.101 773.534H138.101ZM130.052 755.184C124.883 750.446 118.03 748.123 109.6 748.123V750.123C117.65 750.123 123.981 752.332 128.7 756.658L130.052 755.184ZM201.103 920L200.177 919.621L199.612 921H201.103V920ZM289.786 703.7V702.7H289.115L288.86 703.321L289.786 703.7ZM350.659 703.7L351.586 703.325L351.333 702.7H350.659V703.7ZM438.106 920V921H439.589L439.033 919.625L438.106 920ZM380.632 920L379.696 920.354L379.941 921H380.632V920ZM360.856 867.779L361.791 867.425L361.546 866.779H360.856V867.779ZM276.499 867.779V866.779H275.812L275.565 867.42L276.499 867.779ZM256.414 920V921H257.1L257.347 920.359L256.414 920ZM292.567 825.446L291.633 825.088L291.112 826.446H292.567V825.446ZM345.097 825.446V826.446H346.54L346.033 825.095L345.097 825.446ZM319.141 756.23L320.077 755.879L319.152 753.411L318.207 755.872L319.141 756.23ZM202.028 920.379L290.711 704.079L288.86 703.321L200.177 919.621L202.028 920.379ZM289.786 704.7H350.659V702.7H289.786V704.7ZM349.732 704.075L437.179 920.375L439.033 919.625L351.586 703.325L349.732 704.075ZM438.106 919H380.632V921H438.106V919ZM381.567 919.646L361.791 867.425L359.92 868.133L379.696 920.354L381.567 919.646ZM360.856 866.779H276.499V868.779H360.856V866.779ZM275.565 867.42L255.48 919.641L257.347 920.359L277.432 868.138L275.565 867.42ZM256.414 919H201.103V921H256.414V919ZM292.567 826.446H345.097V824.446H292.567V826.446ZM346.033 825.095L320.077 755.879L318.204 756.581L344.16 825.797L346.033 825.095ZM318.207 755.872L291.633 825.088L293.5 825.804L320.074 756.588L318.207 755.872ZM580.83 867.161L580.383 866.267L580.374 866.271L580.83 867.161ZM605.241 847.076L605.942 846.363L605.158 845.593L604.465 846.445L605.241 847.076ZM640.158 881.375L640.937 882.001L641.504 881.296L640.859 880.662L640.158 881.375ZM600.297 911.657L599.877 910.749L599.873 910.751L600.297 911.657ZM503.889 914.438L503.513 915.365L503.517 915.366L503.889 914.438ZM467.118 890.954L466.425 891.675L466.425 891.675L467.118 890.954ZM442.707 855.728L441.791 856.13L441.791 856.13L442.707 855.728ZM442.707 767.972L443.622 768.374L443.625 768.369L442.707 767.972ZM467.118 732.437L466.432 731.709L466.425 731.716L467.118 732.437ZM601.842 712.043L601.423 712.951L601.432 712.955L601.442 712.96L601.842 712.043ZM624.09 725.33L623.471 726.115L623.478 726.121L623.486 726.127L624.09 725.33ZM641.703 742.634L642.404 743.347L643.038 742.724L642.494 742.022L641.703 742.634ZM605.859 777.86L605.08 778.487L605.772 779.347L606.56 778.573L605.859 777.86ZM580.212 756.539L579.741 757.421L579.753 757.428L579.765 757.433L580.212 756.539ZM525.519 754.067L525.903 754.99L525.916 754.985L525.519 754.067ZM506.052 767.045L505.345 766.338L505.338 766.345L505.332 766.351L506.052 767.045ZM493.074 787.13L492.152 786.742L492.147 786.754L493.074 787.13ZM493.074 836.57L492.147 836.946L492.153 836.961L492.16 836.976L493.074 836.57ZM506.361 856.037L505.654 856.744L505.66 856.751L505.667 856.757L506.361 856.037ZM526.446 869.324L526.049 870.242L526.064 870.248L526.079 870.254L526.446 869.324ZM551.784 874.959C562.439 874.959 572.278 872.659 581.285 868.051L580.374 866.271C571.665 870.727 562.141 872.959 551.784 872.959V874.959ZM581.277 868.055C590.483 863.452 598.728 856.661 606.016 847.707L604.465 846.445C597.333 855.207 589.305 861.806 580.383 866.267L581.277 868.055ZM604.54 847.789L639.457 882.088L640.859 880.662L605.942 846.363L604.54 847.789ZM639.378 880.749C629.392 893.18 616.235 903.184 599.877 910.749L600.717 912.565C617.319 904.886 630.735 894.702 640.937 882.001L639.378 880.749ZM599.873 910.751C583.726 918.314 567.082 922.09 549.93 922.09V924.09C567.386 924.09 584.319 920.244 600.721 912.563L599.873 910.751ZM549.93 922.09C533.777 922.09 518.556 919.228 504.26 913.51L503.517 915.366C518.061 921.184 533.535 924.09 549.93 924.09V922.09ZM504.265 913.511C490.16 907.788 478.012 900.026 467.81 890.233L466.425 891.675C476.823 901.658 489.19 909.552 503.513 915.365L504.265 913.511ZM467.81 890.233C457.609 880.439 449.546 868.807 443.622 855.326L441.791 856.13C447.816 869.841 456.027 881.693 466.425 891.675L467.81 890.233ZM443.622 855.326C437.707 841.863 434.746 827.375 434.746 811.85H432.746C432.746 827.637 435.759 842.401 441.791 856.13L443.622 855.326ZM434.746 811.85C434.746 796.325 437.707 781.837 443.622 768.374L441.791 767.57C435.759 781.299 432.746 796.063 432.746 811.85H434.746ZM443.625 768.369C449.549 754.683 457.611 742.949 467.81 733.158L466.425 731.716C456.024 741.7 447.813 753.657 441.789 767.575L443.625 768.369ZM467.803 733.165C478.214 723.367 490.467 715.604 504.574 709.88L503.822 708.026C489.501 713.838 477.034 721.731 466.432 731.709L467.803 733.165ZM504.574 709.88C518.661 704.163 533.777 701.301 549.93 701.301V699.301C533.535 699.301 518.162 702.207 503.822 708.026L504.574 709.88ZM549.93 701.301C558.71 701.301 567.492 702.322 576.277 704.365L576.73 702.417C567.8 700.34 558.866 699.301 549.93 699.301V701.301ZM576.277 704.365C585.071 706.41 593.452 709.272 601.423 712.951L602.261 711.135C594.163 707.398 585.653 704.492 576.73 702.417L576.277 704.365ZM601.442 712.96C609.399 716.428 616.741 720.813 623.471 726.115L624.709 724.544C617.843 719.135 610.353 714.662 602.241 711.126L601.442 712.96ZM623.486 726.127C630.218 731.227 636.025 736.934 640.912 743.246L642.494 742.022C637.493 735.562 631.558 729.733 624.694 724.533L623.486 726.127ZM641.002 741.921L605.158 777.147L606.56 778.573L642.404 743.347L641.002 741.921ZM606.638 777.233C598.939 767.662 590.281 760.456 580.659 755.645L579.765 757.433C589.094 762.098 597.534 769.106 605.08 778.487L606.638 777.233ZM580.682 755.657C571.262 750.632 561.005 748.123 549.93 748.123V750.123C560.69 750.123 570.622 752.558 579.741 757.421L580.682 755.657ZM549.93 748.123C541.147 748.123 532.874 749.797 525.122 753.149L525.916 754.985C533.407 751.745 541.409 750.123 549.93 750.123V748.123ZM525.134 753.144C517.6 756.283 511.001 760.682 505.345 766.338L506.759 767.752C512.227 762.284 518.605 758.031 525.903 754.99L525.134 753.144ZM505.332 766.351C499.882 772.01 495.491 778.812 492.152 786.742L493.995 787.518C497.249 779.792 501.51 773.204 506.772 767.739L505.332 766.351ZM492.147 786.754C489.005 794.505 487.439 802.873 487.439 811.85H489.439C489.439 803.111 490.963 794.999 494.001 787.506L492.147 786.754ZM487.439 811.85C487.439 820.827 489.005 829.195 492.147 836.946L494.001 836.194C490.963 828.701 489.439 820.589 489.439 811.85H487.439ZM492.16 836.976C495.504 844.501 500.002 851.093 505.654 856.744L507.068 855.33C501.595 849.857 497.235 843.471 493.988 836.164L492.16 836.976ZM505.667 856.757C511.524 862.405 518.321 866.9 526.049 870.242L526.843 868.406C519.327 865.156 512.733 860.793 507.055 855.317L505.667 856.757ZM526.079 870.254C534.032 873.394 542.604 874.959 551.784 874.959V872.959C542.836 872.959 534.515 871.434 526.813 868.394L526.079 870.254ZM662.659 920H661.659V921H662.659V920ZM662.659 703.7V702.7H661.659V703.7H662.659ZM833.227 703.7H834.227V702.7H833.227V703.7ZM833.227 749.741V750.741H834.227V749.741H833.227ZM715.807 749.741V748.741H714.807V749.741H715.807ZM715.807 788.675H714.807V789.675H715.807V788.675ZM793.366 788.675H794.366V787.675H793.366V788.675ZM793.366 833.171V834.171H794.366V833.171H793.366ZM715.807 833.171V832.171H714.807V833.171H715.807ZM715.807 873.959H714.807V874.959H715.807V873.959ZM834.463 873.959H835.463V872.959H834.463V873.959ZM834.463 920V921H835.463V920H834.463ZM663.659 920V703.7H661.659V920H663.659ZM662.659 704.7H833.227V702.7H662.659V704.7ZM832.227 703.7V749.741H834.227V703.7H832.227ZM833.227 748.741H715.807V750.741H833.227V748.741ZM714.807 749.741V788.675H716.807V749.741H714.807ZM715.807 789.675H793.366V787.675H715.807V789.675ZM792.366 788.675V833.171H794.366V788.675H792.366ZM793.366 832.171H715.807V834.171H793.366V832.171ZM714.807 833.171V873.959H716.807V833.171H714.807ZM715.807 874.959H834.463V872.959H715.807V874.959ZM833.463 873.959V920H835.463V873.959H833.463ZM834.463 919H662.659V921H834.463V919Z" fill="black"/>
<path d="M3.922 1176H2.922V1177H3.922V1176ZM3.922 959.7V958.7H2.922V959.7H3.922ZM145.135 964.953L144.782 965.888L144.794 965.893L144.806 965.897L145.135 964.953ZM169.237 979.167L168.553 979.897L168.565 979.908L168.577 979.918L169.237 979.167ZM184.996 1000.8L184.08 1001.2L184.084 1001.21L184.089 1001.22L184.996 1000.8ZM179.743 1065.07L178.921 1064.5L178.921 1064.5L179.743 1065.07ZM150.388 1089.48L149.972 1088.57L148.996 1089.02L149.51 1089.96L150.388 1089.48ZM197.665 1176V1177H199.351L198.543 1175.52L197.665 1176ZM138.337 1176L137.449 1176.46L137.729 1177H138.337V1176ZM97.549 1097.2L98.4371 1096.75L98.1574 1096.2H97.549V1097.2ZM57.07 1097.2V1096.2H56.07V1097.2H57.07ZM57.07 1176V1177H58.07V1176H57.07ZM57.07 1005.12V1004.12H56.07V1005.12H57.07ZM57.07 1053.94H56.07V1054.94H57.07V1053.94ZM129.376 1047.15L128.715 1046.4L128.708 1046.4L128.7 1046.41L129.376 1047.15ZM129.376 1011.92L128.7 1012.66L128.708 1012.67L128.715 1012.67L129.376 1011.92ZM4.922 1176V959.7H2.922V1176H4.922ZM3.922 960.7H114.544V958.7H3.922V960.7ZM114.544 960.7C125.562 960.7 135.638 962.434 144.782 965.888L145.488 964.018C136.092 960.468 125.774 958.7 114.544 958.7V960.7ZM144.806 965.897C154.165 969.153 162.074 973.822 168.553 979.897L169.921 978.437C163.216 972.152 155.057 967.345 145.464 964.008L144.806 965.897ZM168.577 979.918C175.263 985.794 180.43 992.884 184.08 1001.2L185.912 1000.4C182.146 991.818 176.807 984.488 169.897 978.416L168.577 979.918ZM184.089 1001.22C187.937 1009.52 189.867 1018.65 189.867 1028.61H191.867C191.867 1018.38 189.883 1008.97 185.903 1000.38L184.089 1001.22ZM189.867 1028.61C189.867 1042.01 186.216 1053.96 178.921 1064.5L180.565 1065.64C188.102 1054.75 191.867 1042.4 191.867 1028.61H189.867ZM178.921 1064.5C171.61 1075.06 161.967 1083.08 149.972 1088.57L150.804 1090.39C163.117 1084.75 173.044 1076.5 180.565 1065.64L178.921 1064.5ZM149.51 1089.96L196.787 1176.48L198.543 1175.52L151.266 1089L149.51 1089.96ZM197.665 1175H138.337V1177H197.665V1175ZM139.225 1175.54L98.4371 1096.75L96.6609 1097.66L137.449 1176.46L139.225 1175.54ZM97.549 1096.2H57.07V1098.2H97.549V1096.2ZM56.07 1097.2V1176H58.07V1097.2H56.07ZM57.07 1175H3.922V1177H57.07V1175ZM109.6 1004.12H57.07V1006.12H109.6V1004.12ZM56.07 1005.12V1053.94H58.07V1005.12H56.07ZM57.07 1054.94H109.6V1052.94H57.07V1054.94ZM109.6 1054.94C118.03 1054.94 124.883 1052.62 130.052 1047.88L128.7 1046.41C123.981 1050.74 117.65 1052.94 109.6 1052.94V1054.94ZM130.037 1047.9C135.415 1043.17 138.101 1037.01 138.101 1029.53H136.101C136.101 1036.47 133.637 1042.06 128.715 1046.4L130.037 1047.9ZM138.101 1029.53C138.101 1022.05 135.415 1015.9 130.037 1011.17L128.715 1012.67C133.637 1017 136.101 1022.59 136.101 1029.53H138.101ZM130.052 1011.18C124.883 1006.45 118.03 1004.12 109.6 1004.12V1006.12C117.65 1006.12 123.981 1008.33 128.7 1012.66L130.052 1011.18ZM201.103 1176L200.177 1175.62L199.612 1177H201.103V1176ZM289.786 959.7V958.7H289.115L288.86 959.321L289.786 959.7ZM350.659 959.7L351.586 959.325L351.333 958.7H350.659V959.7ZM438.106 1176V1177H439.589L439.033 1175.63L438.106 1176ZM380.632 1176L379.696 1176.35L379.941 1177H380.632V1176ZM360.856 1123.78L361.791 1123.42L361.546 1122.78H360.856V1123.78ZM276.499 1123.78V1122.78H275.812L275.565 1123.42L276.499 1123.78ZM256.414 1176V1177H257.1L257.347 1176.36L256.414 1176ZM292.567 1081.45L291.633 1081.09L291.112 1082.45H292.567V1081.45ZM345.097 1081.45V1082.45H346.54L346.033 1081.09L345.097 1081.45ZM319.141 1012.23L320.077 1011.88L319.152 1009.41L318.207 1011.87L319.141 1012.23ZM202.028 1176.38L290.711 960.079L288.86 959.321L200.177 1175.62L202.028 1176.38ZM289.786 960.7H350.659V958.7H289.786V960.7ZM349.732 960.075L437.179 1176.37L439.033 1175.63L351.586 959.325L349.732 960.075ZM438.106 1175H380.632V1177H438.106V1175ZM381.567 1175.65L361.791 1123.42L359.92 1124.13L379.696 1176.35L381.567 1175.65ZM360.856 1122.78H276.499V1124.78H360.856V1122.78ZM275.565 1123.42L255.48 1175.64L257.347 1176.36L277.432 1124.14L275.565 1123.42ZM256.414 1175H201.103V1177H256.414V1175ZM292.567 1082.45H345.097V1080.45H292.567V1082.45ZM346.033 1081.09L320.077 1011.88L318.204 1012.58L344.16 1081.8L346.033 1081.09ZM318.207 1011.87L291.633 1081.09L293.5 1081.8L320.074 1012.59L318.207 1011.87ZM580.83 1123.16L580.383 1122.27L580.374 1122.27L580.83 1123.16ZM605.241 1103.08L605.942 1102.36L605.158 1101.59L604.465 1102.44L605.241 1103.08ZM640.158 1137.38L640.937 1138L641.504 1137.3L640.859 1136.66L640.158 1137.38ZM600.297 1167.66L599.877 1166.75L599.873 1166.75L600.297 1167.66ZM503.889 1170.44L503.513 1171.36L503.517 1171.37L503.889 1170.44ZM467.118 1146.95L466.425 1147.68L466.425 1147.68L467.118 1146.95ZM442.707 1111.73L441.791 1112.13L441.791 1112.13L442.707 1111.73ZM442.707 1023.97L443.622 1024.37L443.625 1024.37L442.707 1023.97ZM467.118 988.437L466.432 987.709L466.425 987.716L467.118 988.437ZM601.842 968.043L601.423 968.951L601.432 968.955L601.442 968.96L601.842 968.043ZM624.09 981.33L623.471 982.115L623.478 982.121L623.486 982.127L624.09 981.33ZM641.703 998.634L642.404 999.347L643.038 998.724L642.494 998.022L641.703 998.634ZM605.859 1033.86L605.08 1034.49L605.772 1035.35L606.56 1034.57L605.859 1033.86ZM580.212 1012.54L579.741 1013.42L579.753 1013.43L579.765 1013.43L580.212 1012.54ZM525.519 1010.07L525.903 1010.99L525.916 1010.98L525.519 1010.07ZM506.052 1023.04L505.345 1022.34L505.338 1022.34L505.332 1022.35L506.052 1023.04ZM493.074 1043.13L492.152 1042.74L492.147 1042.75L493.074 1043.13ZM493.074 1092.57L492.147 1092.95L492.153 1092.96L492.16 1092.98L493.074 1092.57ZM506.361 1112.04L505.654 1112.74L505.66 1112.75L505.667 1112.76L506.361 1112.04ZM526.446 1125.32L526.049 1126.24L526.064 1126.25L526.079 1126.25L526.446 1125.32ZM551.784 1130.96C562.439 1130.96 572.278 1128.66 581.285 1124.05L580.374 1122.27C571.665 1126.73 562.141 1128.96 551.784 1128.96V1130.96ZM581.277 1124.06C590.483 1119.45 598.728 1112.66 606.016 1103.71L604.465 1102.44C597.333 1111.21 589.305 1117.81 580.383 1122.27L581.277 1124.06ZM604.54 1103.79L639.457 1138.09L640.859 1136.66L605.942 1102.36L604.54 1103.79ZM639.378 1136.75C629.392 1149.18 616.235 1159.18 599.877 1166.75L600.717 1168.56C617.319 1160.89 630.735 1150.7 640.937 1138L639.378 1136.75ZM599.873 1166.75C583.726 1174.31 567.082 1178.09 549.93 1178.09V1180.09C567.386 1180.09 584.319 1176.24 600.721 1168.56L599.873 1166.75ZM549.93 1178.09C533.777 1178.09 518.556 1175.23 504.26 1169.51L503.517 1171.37C518.061 1177.18 533.535 1180.09 549.93 1180.09V1178.09ZM504.265 1169.51C490.16 1163.79 478.012 1156.03 467.81 1146.23L466.425 1147.68C476.823 1157.66 489.19 1165.55 503.513 1171.36L504.265 1169.51ZM467.81 1146.23C457.609 1136.44 449.546 1124.81 443.622 1111.33L441.791 1112.13C447.816 1125.84 456.027 1137.69 466.425 1147.68L467.81 1146.23ZM443.622 1111.33C437.707 1097.86 434.746 1083.38 434.746 1067.85H432.746C432.746 1083.64 435.759 1098.4 441.791 1112.13L443.622 1111.33ZM434.746 1067.85C434.746 1052.32 437.707 1037.84 443.622 1024.37L441.791 1023.57C435.759 1037.3 432.746 1052.06 432.746 1067.85H434.746ZM443.625 1024.37C449.549 1010.68 457.611 998.949 467.81 989.158L466.425 987.716C456.024 997.7 447.813 1009.66 441.789 1023.57L443.625 1024.37ZM467.803 989.165C478.214 979.367 490.467 971.604 504.574 965.88L503.822 964.026C489.501 969.838 477.034 977.731 466.432 987.709L467.803 989.165ZM504.574 965.88C518.661 960.163 533.777 957.301 549.93 957.301V955.301C533.535 955.301 518.162 958.207 503.822 964.026L504.574 965.88ZM549.93 957.301C558.71 957.301 567.492 958.322 576.277 960.365L576.73 958.417C567.8 956.34 558.866 955.301 549.93 955.301V957.301ZM576.277 960.365C585.071 962.41 593.452 965.272 601.423 968.951L602.261 967.135C594.163 963.398 585.653 960.492 576.73 958.417L576.277 960.365ZM601.442 968.96C609.399 972.428 616.741 976.813 623.471 982.115L624.709 980.544C617.843 975.135 610.353 970.662 602.241 967.126L601.442 968.96ZM623.486 982.127C630.218 987.227 636.025 992.934 640.912 999.246L642.494 998.022C637.493 991.562 631.558 985.733 624.694 980.533L623.486 982.127ZM641.002 997.921L605.158 1033.15L606.56 1034.57L642.404 999.347L641.002 997.921ZM606.638 1033.23C598.939 1023.66 590.281 1016.46 580.659 1011.64L579.765 1013.43C589.094 1018.1 597.534 1025.11 605.08 1034.49L606.638 1033.23ZM580.682 1011.66C571.262 1006.63 561.005 1004.12 549.93 1004.12V1006.12C560.69 1006.12 570.622 1008.56 579.741 1013.42L580.682 1011.66ZM549.93 1004.12C541.147 1004.12 532.874 1005.8 525.122 1009.15L525.916 1010.98C533.407 1007.75 541.409 1006.12 549.93 1006.12V1004.12ZM525.134 1009.14C517.6 1012.28 511.001 1016.68 505.345 1022.34L506.759 1023.75C512.227 1018.28 518.605 1014.03 525.903 1010.99L525.134 1009.14ZM505.332 1022.35C499.882 1028.01 495.491 1034.81 492.152 1042.74L493.995 1043.52C497.249 1035.79 501.51 1029.2 506.772 1023.74L505.332 1022.35ZM492.147 1042.75C489.005 1050.5 487.439 1058.87 487.439 1067.85H489.439C489.439 1059.11 490.963 1051 494.001 1043.51L492.147 1042.75ZM487.439 1067.85C487.439 1076.83 489.005 1085.2 492.147 1092.95L494.001 1092.19C490.963 1084.7 489.439 1076.59 489.439 1067.85H487.439ZM492.16 1092.98C495.504 1100.5 500.002 1107.09 505.654 1112.74L507.068 1111.33C501.595 1105.86 497.235 1099.47 493.988 1092.16L492.16 1092.98ZM505.667 1112.76C511.524 1118.41 518.321 1122.9 526.049 1126.24L526.843 1124.41C519.327 1121.16 512.733 1116.79 507.055 1111.32L505.667 1112.76ZM526.079 1126.25C534.032 1129.39 542.604 1130.96 551.784 1130.96V1128.96C542.836 1128.96 534.515 1127.43 526.813 1124.39L526.079 1126.25ZM662.659 1176H661.659V1177H662.659V1176ZM662.659 959.7V958.7H661.659V959.7H662.659ZM833.227 959.7H834.227V958.7H833.227V959.7ZM833.227 1005.74V1006.74H834.227V1005.74H833.227ZM715.807 1005.74V1004.74H714.807V1005.74H715.807ZM715.807 1044.67H714.807V1045.67H715.807V1044.67ZM793.366 1044.67H794.366V1043.67H793.366V1044.67ZM793.366 1089.17V1090.17H794.366V1089.17H793.366ZM715.807 1089.17V1088.17H714.807V1089.17H715.807ZM715.807 1129.96H714.807V1130.96H715.807V1129.96ZM834.463 1129.96H835.463V1128.96H834.463V1129.96ZM834.463 1176V1177H835.463V1176H834.463ZM663.659 1176V959.7H661.659V1176H663.659ZM662.659 960.7H833.227V958.7H662.659V960.7ZM832.227 959.7V1005.74H834.227V959.7H832.227ZM833.227 1004.74H715.807V1006.74H833.227V1004.74ZM714.807 1005.74V1044.67H716.807V1005.74H714.807ZM715.807 1045.67H793.366V1043.67H715.807V1045.67ZM792.366 1044.67V1089.17H794.366V1044.67H792.366ZM793.366 1088.17H715.807V1090.17H793.366V1088.17ZM714.807 1089.17V1129.96H716.807V1089.17H714.807ZM715.807 1130.96H834.463V1128.96H715.807V1130.96ZM833.463 1129.96V1176H835.463V1129.96H833.463ZM834.463 1175H662.659V1177H834.463V1175Z" fill="black"/>
</svg>
