<svg width="375" height="812" viewBox="0 0 375 812" fill="none" xmlns="http://www.w3.org/2000/svg">
<rect width="375" height="812" fill="white"/>
<path d="M0.12 261H-0.88V262H0.12V261ZM0.12 163V162H-0.88V163H0.12ZM64.1 165.38L63.7466 166.315L63.759 166.32L63.7715 166.324L64.1 165.38ZM75.02 171.82L74.3361 172.55L74.3478 172.561L74.3599 172.571L75.02 171.82ZM82.16 181.62L81.2444 182.022L81.2484 182.031L81.2527 182.04L82.16 181.62ZM79.78 210.74L78.9578 210.171L78.9578 210.171L79.78 210.74ZM66.48 221.8L66.0639 220.891L65.0877 221.337L65.6025 222.28L66.48 221.8ZM87.9 261V262H89.586L88.7775 260.52L87.9 261ZM61.02 261L60.1319 261.46L60.4116 262H61.02V261ZM42.54 225.3L43.4281 224.84L43.1484 224.3H42.54V225.3ZM24.2 225.3V224.3H23.2V225.3H24.2ZM24.2 261V262H25.2V261H24.2ZM24.2 183.58V182.58H23.2V183.58H24.2ZM24.2 205.7H23.2V206.7H24.2V205.7ZM56.96 202.62L56.2994 201.869L56.2918 201.876L56.2843 201.883L56.96 202.62ZM56.96 186.66L56.2843 187.397L56.2918 187.404L56.2994 187.411L56.96 186.66ZM1.12 261V163H-0.88V261H1.12ZM0.12 164H50.24V162H0.12V164ZM50.24 164C55.174 164 59.6725 164.776 63.7466 166.315L64.4534 164.445C60.1275 162.81 55.386 162 50.24 162V164ZM63.7715 166.324C67.9473 167.777 71.4623 169.855 74.3361 172.55L75.7039 171.09C72.6044 168.185 68.8394 165.97 64.4285 164.435L63.7715 166.324ZM74.3599 172.571C77.3281 175.18 79.6219 178.326 81.2444 182.022L83.0757 181.218C81.3381 177.26 78.8719 173.874 75.6801 171.069L74.3599 172.571ZM81.2527 182.04C82.96 185.725 83.82 189.779 83.82 194.22H85.82C85.82 189.514 84.9067 185.169 83.0673 181.2L81.2527 182.04ZM83.82 194.22C83.82 200.186 82.1968 205.492 78.9578 210.171L80.6022 211.309C84.0832 206.281 85.82 200.574 85.82 194.22H83.82ZM78.9578 210.171C75.7029 214.872 71.4115 218.443 66.0639 220.891L66.8961 222.709C72.5618 220.117 77.1371 216.314 80.6022 211.309L78.9578 210.171ZM65.6025 222.28L87.0225 261.48L88.7775 260.52L67.3575 221.32L65.6025 222.28ZM87.9 260H61.02V262H87.9V260ZM61.9081 260.54L43.4281 224.84L41.6519 225.76L60.1319 261.46L61.9081 260.54ZM42.54 224.3H24.2V226.3H42.54V224.3ZM23.2 225.3V261H25.2V225.3H23.2ZM24.2 260H0.12V262H24.2V260ZM48 182.58H24.2V184.58H48V182.58ZM23.2 183.58V205.7H25.2V183.58H23.2ZM24.2 206.7H48V204.7H24.2V206.7ZM48 206.7C51.9236 206.7 55.1714 205.616 57.6357 203.357L56.2843 201.883C54.2686 203.731 51.5431 204.7 48 204.7V206.7ZM57.6206 203.371C60.1819 201.117 61.46 198.177 61.46 194.64H59.46C59.46 197.636 58.4048 200.017 56.2994 201.869L57.6206 203.371ZM61.46 194.64C61.46 191.103 60.1819 188.163 57.6206 185.909L56.2994 187.411C58.4048 189.263 59.46 191.644 59.46 194.64H61.46ZM57.6357 185.923C55.1714 183.664 51.9236 182.58 48 182.58V184.58C51.5431 184.58 54.2686 185.549 56.2843 187.397L57.6357 185.923ZM89.4575 261L88.5322 260.621L87.9667 262H89.4575V261ZM129.638 163V162H128.967L128.712 162.621L129.638 163ZM157.218 163L158.145 162.625L157.892 162H157.218V163ZM196.838 261V262H198.32L197.765 260.625L196.838 261ZM170.798 261L169.862 261.354L170.107 262H170.798V261ZM161.838 237.34L162.773 236.986L162.528 236.34H161.838V237.34ZM123.618 237.34V236.34H122.931L122.684 236.981L123.618 237.34ZM114.518 261V262H115.204L115.451 261.359L114.518 261ZM130.898 218.16L129.964 217.802L129.442 219.16H130.898V218.16ZM154.698 218.16V219.16H156.141L155.634 217.809L154.698 218.16ZM142.938 186.8L143.874 186.449L142.949 183.981L142.004 186.442L142.938 186.8ZM90.3828 261.379L130.563 163.379L128.712 162.621L88.5322 260.621L90.3828 261.379ZM129.638 164H157.218V162H129.638V164ZM156.29 163.375L195.91 261.375L197.765 260.625L158.145 162.625L156.29 163.375ZM196.838 260H170.798V262H196.838V260ZM171.733 260.646L162.773 236.986L160.902 237.694L169.862 261.354L171.733 260.646ZM161.838 236.34H123.618V238.34H161.838V236.34ZM122.684 236.981L113.584 260.641L115.451 261.359L124.551 237.699L122.684 236.981ZM114.518 260H89.4575V262H114.518V260ZM130.898 219.16H154.698V217.16H130.898V219.16ZM155.634 217.809L143.874 186.449L142.001 187.151L153.761 218.511L155.634 217.809ZM142.004 186.442L129.964 217.802L131.831 218.518L143.871 187.158L142.004 186.442ZM261.502 237.06L261.055 236.166L261.047 236.17L261.502 237.06ZM272.562 227.96L273.263 227.247L272.48 226.477L271.787 227.329L272.562 227.96ZM288.382 243.5L289.162 244.126L289.729 243.421L289.083 242.787L288.382 243.5ZM270.322 257.22L269.902 256.312L269.898 256.314L270.322 257.22ZM226.642 258.48L226.266 259.407L226.271 259.408L226.642 258.48ZM209.982 247.84L209.29 248.561L209.29 248.561L209.982 247.84ZM198.922 231.88L198.007 232.282L198.007 232.282L198.922 231.88ZM198.922 192.12L199.838 192.522L199.84 192.517L198.922 192.12ZM209.982 176.02L209.297 175.292L209.29 175.299L209.982 176.02ZM271.022 166.78L270.603 167.688L270.613 167.692L270.623 167.697L271.022 166.78ZM281.102 172.8L280.483 173.585L280.491 173.591L280.498 173.597L281.102 172.8ZM289.082 180.64L289.783 181.353L290.417 180.73L289.873 180.028L289.082 180.64ZM272.842 196.6L272.063 197.227L272.755 198.087L273.543 197.313L272.842 196.6ZM261.222 186.94L260.752 187.822L260.763 187.829L260.775 187.834L261.222 186.94ZM236.442 185.82L236.827 186.743L236.839 186.738L236.442 185.82ZM227.622 191.7L226.915 190.993L226.908 191L226.902 191.006L227.622 191.7ZM221.742 200.8L220.82 200.412L220.815 200.424L221.742 200.8ZM221.742 223.2L220.815 223.576L220.822 223.591L220.828 223.606L221.742 223.2ZM227.762 232.02L227.055 232.727L227.062 232.734L227.068 232.74L227.762 232.02ZM236.862 238.04L236.465 238.958L236.48 238.964L236.495 238.97L236.862 238.04ZM248.342 241.14C253.251 241.14 257.795 240.08 261.958 237.95L261.047 236.17C257.182 238.147 252.953 239.14 248.342 239.14V241.14ZM261.949 237.954C266.198 235.83 269.993 232.701 273.338 228.591L271.787 227.329C268.598 231.246 265.02 234.183 261.055 236.166L261.949 237.954ZM271.861 228.673L287.681 244.213L289.083 242.787L273.263 227.247L271.861 228.673ZM287.603 242.874C283.137 248.432 277.247 252.916 269.902 256.312L270.742 258.128C278.331 254.618 284.48 249.954 289.162 244.126L287.603 242.874ZM269.898 256.314C262.652 259.708 255.19 261.4 247.502 261.4V263.4C255.494 263.4 263.245 261.639 270.746 258.126L269.898 256.314ZM247.502 261.4C240.25 261.4 233.423 260.115 227.014 257.552L226.271 259.408C232.928 262.071 240.008 263.4 247.502 263.4V261.4ZM227.018 257.553C220.687 254.984 215.243 251.504 210.675 247.119L209.29 248.561C214.054 253.136 219.717 256.749 226.266 259.407L227.018 257.553ZM210.675 247.119C206.106 242.733 202.494 237.523 199.838 231.478L198.007 232.282C200.764 238.557 204.525 243.987 209.29 248.561L210.675 247.119ZM199.838 231.478C197.19 225.451 195.862 218.962 195.862 212H193.862C193.862 219.224 195.241 225.989 198.007 232.282L199.838 231.478ZM195.862 212C195.862 205.038 197.19 198.549 199.838 192.522L198.007 191.718C195.241 198.011 193.862 204.776 193.862 212H195.862ZM199.84 192.517C202.497 186.379 206.109 181.125 210.675 176.741L209.29 175.299C204.522 179.875 200.761 185.354 198.004 191.723L199.84 192.517ZM210.668 176.748C215.332 172.358 220.825 168.876 227.158 166.307L226.406 164.453C219.859 167.11 214.152 170.722 209.297 175.292L210.668 176.748ZM227.158 166.307C233.472 163.745 240.25 162.46 247.502 162.46V160.46C240.008 160.46 232.973 161.789 226.406 164.453L227.158 166.307ZM247.502 162.46C251.437 162.46 255.375 162.917 259.316 163.834L259.769 161.886C255.683 160.936 251.594 160.46 247.502 160.46V162.46ZM259.316 163.834C263.265 164.752 267.027 166.037 270.603 167.688L271.441 165.872C267.738 164.163 263.846 162.834 259.769 161.886L259.316 163.834ZM270.623 167.697C274.185 169.25 277.471 171.212 280.483 173.585L281.721 172.015C278.573 169.534 275.139 167.484 271.422 165.863L270.623 167.697ZM280.498 173.597C283.512 175.88 286.108 178.432 288.291 181.252L289.873 180.028C287.576 177.061 284.852 174.386 281.706 172.003L280.498 173.597ZM288.381 179.927L272.141 195.887L273.543 197.313L289.783 181.353L288.381 179.927ZM273.621 195.973C270.091 191.584 266.109 188.265 261.669 186.046L260.775 187.834C264.922 189.908 268.686 193.029 272.063 197.227L273.621 195.973ZM261.693 186.058C257.342 183.737 252.606 182.58 247.502 182.58V184.58C252.291 184.58 256.702 185.663 260.752 187.822L261.693 186.058ZM247.502 182.58C243.452 182.58 239.629 183.352 236.045 184.902L236.839 186.738C240.162 185.301 243.713 184.58 247.502 184.58V182.58ZM236.058 184.897C232.58 186.346 229.529 188.379 226.915 190.993L228.329 192.407C230.755 189.981 233.585 188.094 236.827 186.743L236.058 184.897ZM226.902 191.006C224.382 193.623 222.357 196.763 220.821 200.412L222.664 201.188C224.114 197.743 226.009 194.817 228.343 192.394L226.902 191.006ZM220.815 200.424C219.363 204.006 218.642 207.868 218.642 212H220.642C220.642 208.105 221.321 204.501 222.669 201.176L220.815 200.424ZM218.642 212C218.642 216.132 219.363 219.994 220.815 223.576L222.669 222.824C221.321 219.499 220.642 215.895 220.642 212H218.642ZM220.828 223.606C222.37 227.075 224.446 230.118 227.055 232.727L228.469 231.313C226.039 228.882 224.101 226.045 222.656 222.794L220.828 223.606ZM227.068 232.74C229.771 235.346 232.906 237.419 236.465 238.958L237.259 237.122C233.912 235.675 230.98 233.734 228.456 231.3L227.068 232.74ZM236.495 238.97C240.167 240.42 244.12 241.14 248.342 241.14V239.14C244.351 239.14 240.65 238.46 237.229 237.11L236.495 238.97ZM298.577 261H297.577V262H298.577V261ZM298.577 163V162H297.577V163H298.577ZM375.857 163H376.857V162H375.857V163ZM375.857 183.86V184.86H376.857V183.86H375.857ZM322.657 183.86V182.86H321.657V183.86H322.657ZM322.657 201.5H321.657V202.5H322.657V201.5ZM357.797 201.5H358.797V200.5H357.797V201.5ZM357.797 221.66V222.66H358.797V221.66H357.797ZM322.657 221.66V220.66H321.657V221.66H322.657ZM322.657 240.14H321.657V241.14H322.657V240.14ZM376.417 240.14H377.417V239.14H376.417V240.14ZM376.417 261V262H377.417V261H376.417ZM299.577 261V163H297.577V261H299.577ZM298.577 164H375.857V162H298.577V164ZM374.857 163V183.86H376.857V163H374.857ZM375.857 182.86H322.657V184.86H375.857V182.86ZM321.657 183.86V201.5H323.657V183.86H321.657ZM322.657 202.5H357.797V200.5H322.657V202.5ZM356.797 201.5V221.66H358.797V201.5H356.797ZM357.797 220.66H322.657V222.66H357.797V220.66ZM321.657 221.66V240.14H323.657V221.66H321.657ZM322.657 241.14H376.417V239.14H322.657V241.14ZM375.417 240.14V261H377.417V240.14H375.417ZM376.417 260H298.577V262H376.417V260Z" fill="black"/>
<path d="M0.12 548H-0.88V549H0.12V548ZM0.12 450V449H-0.88V450H0.12ZM64.1 452.38L63.7466 453.315L63.759 453.32L63.7715 453.324L64.1 452.38ZM75.02 458.82L74.3361 459.55L74.3478 459.561L74.3599 459.571L75.02 458.82ZM82.16 468.62L81.2444 469.022L81.2484 469.031L81.2527 469.04L82.16 468.62ZM79.78 497.74L78.9578 497.171L78.9578 497.171L79.78 497.74ZM66.48 508.8L66.0639 507.891L65.0877 508.337L65.6025 509.28L66.48 508.8ZM87.9 548V549H89.586L88.7775 547.52L87.9 548ZM61.02 548L60.1319 548.46L60.4116 549H61.02V548ZM42.54 512.3L43.4281 511.84L43.1484 511.3H42.54V512.3ZM24.2 512.3V511.3H23.2V512.3H24.2ZM24.2 548V549H25.2V548H24.2ZM24.2 470.58V469.58H23.2V470.58H24.2ZM24.2 492.7H23.2V493.7H24.2V492.7ZM56.96 489.62L56.2994 488.869L56.2918 488.876L56.2843 488.883L56.96 489.62ZM56.96 473.66L56.2843 474.397L56.2918 474.404L56.2994 474.411L56.96 473.66ZM1.12 548V450H-0.88V548H1.12ZM0.12 451H50.24V449H0.12V451ZM50.24 451C55.174 451 59.6725 451.776 63.7466 453.315L64.4534 451.445C60.1275 449.81 55.386 449 50.24 449V451ZM63.7715 453.324C67.9473 454.777 71.4623 456.855 74.3361 459.55L75.7039 458.09C72.6044 455.185 68.8394 452.97 64.4285 451.435L63.7715 453.324ZM74.3599 459.571C77.3281 462.18 79.6219 465.326 81.2444 469.022L83.0757 468.218C81.3381 464.26 78.8719 460.874 75.6801 458.069L74.3599 459.571ZM81.2527 469.04C82.96 472.725 83.82 476.779 83.82 481.22H85.82C85.82 476.514 84.9067 472.169 83.0673 468.2L81.2527 469.04ZM83.82 481.22C83.82 487.186 82.1968 492.492 78.9578 497.171L80.6022 498.309C84.0832 493.281 85.82 487.574 85.82 481.22H83.82ZM78.9578 497.171C75.7029 501.872 71.4115 505.443 66.0639 507.891L66.8961 509.709C72.5618 507.117 77.1371 503.314 80.6022 498.309L78.9578 497.171ZM65.6025 509.28L87.0225 548.48L88.7775 547.52L67.3575 508.32L65.6025 509.28ZM87.9 547H61.02V549H87.9V547ZM61.9081 547.54L43.4281 511.84L41.6519 512.76L60.1319 548.46L61.9081 547.54ZM42.54 511.3H24.2V513.3H42.54V511.3ZM23.2 512.3V548H25.2V512.3H23.2ZM24.2 547H0.12V549H24.2V547ZM48 469.58H24.2V471.58H48V469.58ZM23.2 470.58V492.7H25.2V470.58H23.2ZM24.2 493.7H48V491.7H24.2V493.7ZM48 493.7C51.9236 493.7 55.1714 492.616 57.6357 490.357L56.2843 488.883C54.2686 490.731 51.5431 491.7 48 491.7V493.7ZM57.6206 490.371C60.1819 488.117 61.46 485.177 61.46 481.64H59.46C59.46 484.636 58.4048 487.017 56.2994 488.869L57.6206 490.371ZM61.46 481.64C61.46 478.103 60.1819 475.163 57.6206 472.909L56.2994 474.411C58.4048 476.263 59.46 478.644 59.46 481.64H61.46ZM57.6357 472.923C55.1714 470.664 51.9236 469.58 48 469.58V471.58C51.5431 471.58 54.2686 472.549 56.2843 474.397L57.6357 472.923ZM89.4575 548L88.5322 547.621L87.9667 549H89.4575V548ZM129.638 450V449H128.967L128.712 449.621L129.638 450ZM157.218 450L158.145 449.625L157.892 449H157.218V450ZM196.838 548V549H198.32L197.765 547.625L196.838 548ZM170.798 548L169.862 548.354L170.107 549H170.798V548ZM161.838 524.34L162.773 523.986L162.528 523.34H161.838V524.34ZM123.618 524.34V523.34H122.931L122.684 523.981L123.618 524.34ZM114.518 548V549H115.204L115.451 548.359L114.518 548ZM130.898 505.16L129.964 504.802L129.442 506.16H130.898V505.16ZM154.698 505.16V506.16H156.141L155.634 504.809L154.698 505.16ZM142.938 473.8L143.874 473.449L142.949 470.981L142.004 473.442L142.938 473.8ZM90.3828 548.379L130.563 450.379L128.712 449.621L88.5322 547.621L90.3828 548.379ZM129.638 451H157.218V449H129.638V451ZM156.29 450.375L195.91 548.375L197.765 547.625L158.145 449.625L156.29 450.375ZM196.838 547H170.798V549H196.838V547ZM171.733 547.646L162.773 523.986L160.902 524.694L169.862 548.354L171.733 547.646ZM161.838 523.34H123.618V525.34H161.838V523.34ZM122.684 523.981L113.584 547.641L115.451 548.359L124.551 524.699L122.684 523.981ZM114.518 547H89.4575V549H114.518V547ZM130.898 506.16H154.698V504.16H130.898V506.16ZM155.634 504.809L143.874 473.449L142.001 474.151L153.761 505.511L155.634 504.809ZM142.004 473.442L129.964 504.802L131.831 505.518L143.871 474.158L142.004 473.442ZM261.502 524.06L261.055 523.166L261.047 523.17L261.502 524.06ZM272.562 514.96L273.263 514.247L272.48 513.477L271.787 514.329L272.562 514.96ZM288.382 530.5L289.162 531.126L289.729 530.421L289.083 529.787L288.382 530.5ZM270.322 544.22L269.902 543.312L269.898 543.314L270.322 544.22ZM226.642 545.48L226.266 546.407L226.271 546.408L226.642 545.48ZM209.982 534.84L209.29 535.561L209.29 535.561L209.982 534.84ZM198.922 518.88L198.007 519.282L198.007 519.282L198.922 518.88ZM198.922 479.12L199.838 479.522L199.84 479.517L198.922 479.12ZM209.982 463.02L209.297 462.292L209.29 462.299L209.982 463.02ZM271.022 453.78L270.603 454.688L270.613 454.692L270.623 454.697L271.022 453.78ZM281.102 459.8L280.483 460.585L280.491 460.591L280.498 460.597L281.102 459.8ZM289.082 467.64L289.783 468.353L290.417 467.73L289.873 467.028L289.082 467.64ZM272.842 483.6L272.063 484.227L272.755 485.087L273.543 484.313L272.842 483.6ZM261.222 473.94L260.752 474.822L260.763 474.829L260.775 474.834L261.222 473.94ZM236.442 472.82L236.827 473.743L236.839 473.738L236.442 472.82ZM227.622 478.7L226.915 477.993L226.908 478L226.902 478.006L227.622 478.7ZM221.742 487.8L220.82 487.412L220.815 487.424L221.742 487.8ZM221.742 510.2L220.815 510.576L220.822 510.591L220.828 510.606L221.742 510.2ZM227.762 519.02L227.055 519.727L227.062 519.734L227.068 519.74L227.762 519.02ZM236.862 525.04L236.465 525.958L236.48 525.964L236.495 525.97L236.862 525.04ZM248.342 528.14C253.251 528.14 257.795 527.08 261.958 524.95L261.047 523.17C257.182 525.147 252.953 526.14 248.342 526.14V528.14ZM261.949 524.954C266.198 522.83 269.993 519.701 273.338 515.591L271.787 514.329C268.598 518.246 265.02 521.183 261.055 523.166L261.949 524.954ZM271.861 515.673L287.681 531.213L289.083 529.787L273.263 514.247L271.861 515.673ZM287.603 529.874C283.137 535.432 277.247 539.916 269.902 543.312L270.742 545.128C278.331 541.618 284.48 536.954 289.162 531.126L287.603 529.874ZM269.898 543.314C262.652 546.708 255.19 548.4 247.502 548.4V550.4C255.494 550.4 263.245 548.639 270.746 545.126L269.898 543.314ZM247.502 548.4C240.25 548.4 233.423 547.115 227.014 544.552L226.271 546.408C232.928 549.071 240.008 550.4 247.502 550.4V548.4ZM227.018 544.553C220.687 541.984 215.243 538.504 210.675 534.119L209.29 535.561C214.054 540.136 219.717 543.749 226.266 546.407L227.018 544.553ZM210.675 534.119C206.106 529.733 202.494 524.523 199.838 518.478L198.007 519.282C200.764 525.557 204.525 530.987 209.29 535.561L210.675 534.119ZM199.838 518.478C197.19 512.451 195.862 505.962 195.862 499H193.862C193.862 506.224 195.241 512.989 198.007 519.282L199.838 518.478ZM195.862 499C195.862 492.038 197.19 485.549 199.838 479.522L198.007 478.718C195.241 485.011 193.862 491.776 193.862 499H195.862ZM199.84 479.517C202.497 473.379 206.109 468.125 210.675 463.741L209.29 462.299C204.522 466.875 200.761 472.354 198.004 478.723L199.84 479.517ZM210.668 463.748C215.332 459.358 220.825 455.876 227.158 453.307L226.406 451.453C219.859 454.11 214.152 457.722 209.297 462.292L210.668 463.748ZM227.158 453.307C233.472 450.745 240.25 449.46 247.502 449.46V447.46C240.008 447.46 232.973 448.789 226.406 451.453L227.158 453.307ZM247.502 449.46C251.437 449.46 255.375 449.917 259.316 450.834L259.769 448.886C255.683 447.936 251.594 447.46 247.502 447.46V449.46ZM259.316 450.834C263.265 451.752 267.027 453.037 270.603 454.688L271.441 452.872C267.738 451.163 263.846 449.834 259.769 448.886L259.316 450.834ZM270.623 454.697C274.185 456.25 277.471 458.212 280.483 460.585L281.721 459.015C278.573 456.534 275.139 454.484 271.422 452.863L270.623 454.697ZM280.498 460.597C283.512 462.88 286.108 465.432 288.291 468.252L289.873 467.028C287.576 464.061 284.852 461.386 281.706 459.003L280.498 460.597ZM288.381 466.927L272.141 482.887L273.543 484.313L289.783 468.353L288.381 466.927ZM273.621 482.973C270.091 478.584 266.109 475.265 261.669 473.046L260.775 474.834C264.922 476.908 268.686 480.029 272.063 484.227L273.621 482.973ZM261.693 473.058C257.342 470.737 252.606 469.58 247.502 469.58V471.58C252.291 471.58 256.702 472.663 260.752 474.822L261.693 473.058ZM247.502 469.58C243.452 469.58 239.629 470.352 236.045 471.902L236.839 473.738C240.162 472.301 243.713 471.58 247.502 471.58V469.58ZM236.058 471.897C232.58 473.346 229.529 475.379 226.915 477.993L228.329 479.407C230.755 476.981 233.585 475.094 236.827 473.743L236.058 471.897ZM226.902 478.006C224.382 480.623 222.357 483.763 220.821 487.412L222.664 488.188C224.114 484.743 226.009 481.817 228.343 479.394L226.902 478.006ZM220.815 487.424C219.363 491.006 218.642 494.868 218.642 499H220.642C220.642 495.105 221.321 491.501 222.669 488.176L220.815 487.424ZM218.642 499C218.642 503.132 219.363 506.994 220.815 510.576L222.669 509.824C221.321 506.499 220.642 502.895 220.642 499H218.642ZM220.828 510.606C222.37 514.075 224.446 517.118 227.055 519.727L228.469 518.313C226.039 515.882 224.101 513.045 222.656 509.794L220.828 510.606ZM227.068 519.74C229.771 522.346 232.906 524.419 236.465 525.958L237.259 524.122C233.912 522.675 230.98 520.734 228.456 518.3L227.068 519.74ZM236.495 525.97C240.167 527.42 244.12 528.14 248.342 528.14V526.14C244.351 526.14 240.65 525.46 237.229 524.11L236.495 525.97ZM298.577 548H297.577V549H298.577V548ZM298.577 450V449H297.577V450H298.577ZM375.857 450H376.857V449H375.857V450ZM375.857 470.86V471.86H376.857V470.86H375.857ZM322.657 470.86V469.86H321.657V470.86H322.657ZM322.657 488.5H321.657V489.5H322.657V488.5ZM357.797 488.5H358.797V487.5H357.797V488.5ZM357.797 508.66V509.66H358.797V508.66H357.797ZM322.657 508.66V507.66H321.657V508.66H322.657ZM322.657 527.14H321.657V528.14H322.657V527.14ZM376.417 527.14H377.417V526.14H376.417V527.14ZM376.417 548V549H377.417V548H376.417ZM299.577 548V450H297.577V548H299.577ZM298.577 451H375.857V449H298.577V451ZM374.857 450V470.86H376.857V450H374.857ZM375.857 469.86H322.657V471.86H375.857V469.86ZM321.657 470.86V488.5H323.657V470.86H321.657ZM322.657 489.5H357.797V487.5H322.657V489.5ZM356.797 488.5V508.66H358.797V488.5H356.797ZM357.797 507.66H322.657V509.66H357.797V507.66ZM321.657 508.66V527.14H323.657V508.66H321.657ZM322.657 528.14H376.417V526.14H322.657V528.14ZM375.417 527.14V548H377.417V527.14H375.417ZM376.417 547H298.577V549H376.417V547Z" fill="black"/>
<path d="M0.12 660H-0.88V661H0.12V660ZM0.12 562V561H-0.88V562H0.12ZM64.1 564.38L63.7466 565.315L63.759 565.32L63.7715 565.324L64.1 564.38ZM75.02 570.82L74.3361 571.55L74.3478 571.561L74.3599 571.571L75.02 570.82ZM82.16 580.62L81.2444 581.022L81.2484 581.031L81.2527 581.04L82.16 580.62ZM79.78 609.74L78.9578 609.171L78.9578 609.171L79.78 609.74ZM66.48 620.8L66.0639 619.891L65.0877 620.337L65.6025 621.28L66.48 620.8ZM87.9 660V661H89.586L88.7775 659.52L87.9 660ZM61.02 660L60.1319 660.46L60.4116 661H61.02V660ZM42.54 624.3L43.4281 623.84L43.1484 623.3H42.54V624.3ZM24.2 624.3V623.3H23.2V624.3H24.2ZM24.2 660V661H25.2V660H24.2ZM24.2 582.58V581.58H23.2V582.58H24.2ZM24.2 604.7H23.2V605.7H24.2V604.7ZM56.96 601.62L56.2994 600.869L56.2918 600.876L56.2843 600.883L56.96 601.62ZM56.96 585.66L56.2843 586.397L56.2918 586.404L56.2994 586.411L56.96 585.66ZM1.12 660V562H-0.88V660H1.12ZM0.12 563H50.24V561H0.12V563ZM50.24 563C55.174 563 59.6725 563.776 63.7466 565.315L64.4534 563.445C60.1275 561.81 55.386 561 50.24 561V563ZM63.7715 565.324C67.9473 566.777 71.4623 568.855 74.3361 571.55L75.7039 570.09C72.6044 567.185 68.8394 564.97 64.4285 563.435L63.7715 565.324ZM74.3599 571.571C77.3281 574.18 79.6219 577.326 81.2444 581.022L83.0757 580.218C81.3381 576.26 78.8719 572.874 75.6801 570.069L74.3599 571.571ZM81.2527 581.04C82.96 584.725 83.82 588.779 83.82 593.22H85.82C85.82 588.514 84.9067 584.169 83.0673 580.2L81.2527 581.04ZM83.82 593.22C83.82 599.186 82.1968 604.492 78.9578 609.171L80.6022 610.309C84.0832 605.281 85.82 599.574 85.82 593.22H83.82ZM78.9578 609.171C75.7029 613.872 71.4115 617.443 66.0639 619.891L66.8961 621.709C72.5618 619.117 77.1371 615.314 80.6022 610.309L78.9578 609.171ZM65.6025 621.28L87.0225 660.48L88.7775 659.52L67.3575 620.32L65.6025 621.28ZM87.9 659H61.02V661H87.9V659ZM61.9081 659.54L43.4281 623.84L41.6519 624.76L60.1319 660.46L61.9081 659.54ZM42.54 623.3H24.2V625.3H42.54V623.3ZM23.2 624.3V660H25.2V624.3H23.2ZM24.2 659H0.12V661H24.2V659ZM48 581.58H24.2V583.58H48V581.58ZM23.2 582.58V604.7H25.2V582.58H23.2ZM24.2 605.7H48V603.7H24.2V605.7ZM48 605.7C51.9236 605.7 55.1714 604.616 57.6357 602.357L56.2843 600.883C54.2686 602.731 51.5431 603.7 48 603.7V605.7ZM57.6206 602.371C60.1819 600.117 61.46 597.177 61.46 593.64H59.46C59.46 596.636 58.4048 599.017 56.2994 600.869L57.6206 602.371ZM61.46 593.64C61.46 590.103 60.1819 587.163 57.6206 584.909L56.2994 586.411C58.4048 588.263 59.46 590.644 59.46 593.64H61.46ZM57.6357 584.923C55.1714 582.664 51.9236 581.58 48 581.58V583.58C51.5431 583.58 54.2686 584.549 56.2843 586.397L57.6357 584.923ZM89.4575 660L88.5322 659.621L87.9667 661H89.4575V660ZM129.638 562V561H128.967L128.712 561.621L129.638 562ZM157.218 562L158.145 561.625L157.892 561H157.218V562ZM196.838 660V661H198.32L197.765 659.625L196.838 660ZM170.798 660L169.862 660.354L170.107 661H170.798V660ZM161.838 636.34L162.773 635.986L162.528 635.34H161.838V636.34ZM123.618 636.34V635.34H122.931L122.684 635.981L123.618 636.34ZM114.518 660V661H115.204L115.451 660.359L114.518 660ZM130.898 617.16L129.964 616.802L129.442 618.16H130.898V617.16ZM154.698 617.16V618.16H156.141L155.634 616.809L154.698 617.16ZM142.938 585.8L143.874 585.449L142.949 582.981L142.004 585.442L142.938 585.8ZM90.3828 660.379L130.563 562.379L128.712 561.621L88.5322 659.621L90.3828 660.379ZM129.638 563H157.218V561H129.638V563ZM156.29 562.375L195.91 660.375L197.765 659.625L158.145 561.625L156.29 562.375ZM196.838 659H170.798V661H196.838V659ZM171.733 659.646L162.773 635.986L160.902 636.694L169.862 660.354L171.733 659.646ZM161.838 635.34H123.618V637.34H161.838V635.34ZM122.684 635.981L113.584 659.641L115.451 660.359L124.551 636.699L122.684 635.981ZM114.518 659H89.4575V661H114.518V659ZM130.898 618.16H154.698V616.16H130.898V618.16ZM155.634 616.809L143.874 585.449L142.001 586.151L153.761 617.511L155.634 616.809ZM142.004 585.442L129.964 616.802L131.831 617.518L143.871 586.158L142.004 585.442ZM261.502 636.06L261.055 635.166L261.047 635.17L261.502 636.06ZM272.562 626.96L273.263 626.247L272.48 625.477L271.787 626.329L272.562 626.96ZM288.382 642.5L289.162 643.126L289.729 642.421L289.083 641.787L288.382 642.5ZM270.322 656.22L269.902 655.312L269.898 655.314L270.322 656.22ZM226.642 657.48L226.266 658.407L226.271 658.408L226.642 657.48ZM209.982 646.84L209.29 647.561L209.29 647.561L209.982 646.84ZM198.922 630.88L198.007 631.282L198.007 631.282L198.922 630.88ZM198.922 591.12L199.838 591.522L199.84 591.517L198.922 591.12ZM209.982 575.02L209.297 574.292L209.29 574.299L209.982 575.02ZM271.022 565.78L270.603 566.688L270.613 566.692L270.623 566.697L271.022 565.78ZM281.102 571.8L280.483 572.585L280.491 572.591L280.498 572.597L281.102 571.8ZM289.082 579.64L289.783 580.353L290.417 579.73L289.873 579.028L289.082 579.64ZM272.842 595.6L272.063 596.227L272.755 597.087L273.543 596.313L272.842 595.6ZM261.222 585.94L260.752 586.822L260.763 586.829L260.775 586.834L261.222 585.94ZM236.442 584.82L236.827 585.743L236.839 585.738L236.442 584.82ZM227.622 590.7L226.915 589.993L226.908 590L226.902 590.006L227.622 590.7ZM221.742 599.8L220.82 599.412L220.815 599.424L221.742 599.8ZM221.742 622.2L220.815 622.576L220.822 622.591L220.828 622.606L221.742 622.2ZM227.762 631.02L227.055 631.727L227.062 631.734L227.068 631.74L227.762 631.02ZM236.862 637.04L236.465 637.958L236.48 637.964L236.495 637.97L236.862 637.04ZM248.342 640.14C253.251 640.14 257.795 639.08 261.958 636.95L261.047 635.17C257.182 637.147 252.953 638.14 248.342 638.14V640.14ZM261.949 636.954C266.198 634.83 269.993 631.701 273.338 627.591L271.787 626.329C268.598 630.246 265.02 633.183 261.055 635.166L261.949 636.954ZM271.861 627.673L287.681 643.213L289.083 641.787L273.263 626.247L271.861 627.673ZM287.603 641.874C283.137 647.432 277.247 651.916 269.902 655.312L270.742 657.128C278.331 653.618 284.48 648.954 289.162 643.126L287.603 641.874ZM269.898 655.314C262.652 658.708 255.19 660.4 247.502 660.4V662.4C255.494 662.4 263.245 660.639 270.746 657.126L269.898 655.314ZM247.502 660.4C240.25 660.4 233.423 659.115 227.014 656.552L226.271 658.408C232.928 661.071 240.008 662.4 247.502 662.4V660.4ZM227.018 656.553C220.687 653.984 215.243 650.504 210.675 646.119L209.29 647.561C214.054 652.136 219.717 655.749 226.266 658.407L227.018 656.553ZM210.675 646.119C206.106 641.733 202.494 636.523 199.838 630.478L198.007 631.282C200.764 637.557 204.525 642.987 209.29 647.561L210.675 646.119ZM199.838 630.478C197.19 624.451 195.862 617.962 195.862 611H193.862C193.862 618.224 195.241 624.989 198.007 631.282L199.838 630.478ZM195.862 611C195.862 604.038 197.19 597.549 199.838 591.522L198.007 590.718C195.241 597.011 193.862 603.776 193.862 611H195.862ZM199.84 591.517C202.497 585.379 206.109 580.125 210.675 575.741L209.29 574.299C204.522 578.875 200.761 584.354 198.004 590.723L199.84 591.517ZM210.668 575.748C215.332 571.358 220.825 567.876 227.158 565.307L226.406 563.453C219.859 566.11 214.152 569.722 209.297 574.292L210.668 575.748ZM227.158 565.307C233.472 562.745 240.25 561.46 247.502 561.46V559.46C240.008 559.46 232.973 560.789 226.406 563.453L227.158 565.307ZM247.502 561.46C251.437 561.46 255.375 561.917 259.316 562.834L259.769 560.886C255.683 559.936 251.594 559.46 247.502 559.46V561.46ZM259.316 562.834C263.265 563.752 267.027 565.037 270.603 566.688L271.441 564.872C267.738 563.163 263.846 561.834 259.769 560.886L259.316 562.834ZM270.623 566.697C274.185 568.25 277.471 570.212 280.483 572.585L281.721 571.015C278.573 568.534 275.139 566.484 271.422 564.863L270.623 566.697ZM280.498 572.597C283.512 574.88 286.108 577.432 288.291 580.252L289.873 579.028C287.576 576.061 284.852 573.386 281.706 571.003L280.498 572.597ZM288.381 578.927L272.141 594.887L273.543 596.313L289.783 580.353L288.381 578.927ZM273.621 594.973C270.091 590.584 266.109 587.265 261.669 585.046L260.775 586.834C264.922 588.908 268.686 592.029 272.063 596.227L273.621 594.973ZM261.693 585.058C257.342 582.737 252.606 581.58 247.502 581.58V583.58C252.291 583.58 256.702 584.663 260.752 586.822L261.693 585.058ZM247.502 581.58C243.452 581.58 239.629 582.352 236.045 583.902L236.839 585.738C240.162 584.301 243.713 583.58 247.502 583.58V581.58ZM236.058 583.897C232.58 585.346 229.529 587.379 226.915 589.993L228.329 591.407C230.755 588.981 233.585 587.094 236.827 585.743L236.058 583.897ZM226.902 590.006C224.382 592.623 222.357 595.763 220.821 599.412L222.664 600.188C224.114 596.743 226.009 593.817 228.343 591.394L226.902 590.006ZM220.815 599.424C219.363 603.006 218.642 606.868 218.642 611H220.642C220.642 607.105 221.321 603.501 222.669 600.176L220.815 599.424ZM218.642 611C218.642 615.132 219.363 618.994 220.815 622.576L222.669 621.824C221.321 618.499 220.642 614.895 220.642 611H218.642ZM220.828 622.606C222.37 626.075 224.446 629.118 227.055 631.727L228.469 630.313C226.039 627.882 224.101 625.045 222.656 621.794L220.828 622.606ZM227.068 631.74C229.771 634.346 232.906 636.419 236.465 637.958L237.259 636.122C233.912 634.675 230.98 632.734 228.456 630.3L227.068 631.74ZM236.495 637.97C240.167 639.42 244.12 640.14 248.342 640.14V638.14C244.351 638.14 240.65 637.46 237.229 636.11L236.495 637.97ZM298.577 660H297.577V661H298.577V660ZM298.577 562V561H297.577V562H298.577ZM375.857 562H376.857V561H375.857V562ZM375.857 582.86V583.86H376.857V582.86H375.857ZM322.657 582.86V581.86H321.657V582.86H322.657ZM322.657 600.5H321.657V601.5H322.657V600.5ZM357.797 600.5H358.797V599.5H357.797V600.5ZM357.797 620.66V621.66H358.797V620.66H357.797ZM322.657 620.66V619.66H321.657V620.66H322.657ZM322.657 639.14H321.657V640.14H322.657V639.14ZM376.417 639.14H377.417V638.14H376.417V639.14ZM376.417 660V661H377.417V660H376.417ZM299.577 660V562H297.577V660H299.577ZM298.577 563H375.857V561H298.577V563ZM374.857 562V582.86H376.857V562H374.857ZM375.857 581.86H322.657V583.86H375.857V581.86ZM321.657 582.86V600.5H323.657V582.86H321.657ZM322.657 601.5H357.797V599.5H322.657V601.5ZM356.797 600.5V620.66H358.797V600.5H356.797ZM357.797 619.66H322.657V621.66H357.797V619.66ZM321.657 620.66V639.14H323.657V620.66H321.657ZM322.657 640.14H376.417V638.14H322.657V640.14ZM375.417 639.14V660H377.417V639.14H375.417ZM376.417 659H298.577V661H376.417V659Z" fill="black"/>
<path d="M0.12 774H-0.88V775H0.12V774ZM0.12 676V675H-0.88V676H0.12ZM64.1 678.38L63.7466 679.315L63.759 679.32L63.7715 679.324L64.1 678.38ZM75.02 684.82L74.3361 685.55L74.3478 685.561L74.3599 685.571L75.02 684.82ZM82.16 694.62L81.2444 695.022L81.2484 695.031L81.2527 695.04L82.16 694.62ZM79.78 723.74L78.9578 723.171L78.9578 723.171L79.78 723.74ZM66.48 734.8L66.0639 733.891L65.0877 734.337L65.6025 735.28L66.48 734.8ZM87.9 774V775H89.586L88.7775 773.52L87.9 774ZM61.02 774L60.1319 774.46L60.4116 775H61.02V774ZM42.54 738.3L43.4281 737.84L43.1484 737.3H42.54V738.3ZM24.2 738.3V737.3H23.2V738.3H24.2ZM24.2 774V775H25.2V774H24.2ZM24.2 696.58V695.58H23.2V696.58H24.2ZM24.2 718.7H23.2V719.7H24.2V718.7ZM56.96 715.62L56.2994 714.869L56.2918 714.876L56.2843 714.883L56.96 715.62ZM56.96 699.66L56.2843 700.397L56.2918 700.404L56.2994 700.411L56.96 699.66ZM1.12 774V676H-0.88V774H1.12ZM0.12 677H50.24V675H0.12V677ZM50.24 677C55.174 677 59.6725 677.776 63.7466 679.315L64.4534 677.445C60.1275 675.81 55.386 675 50.24 675V677ZM63.7715 679.324C67.9473 680.777 71.4623 682.855 74.3361 685.55L75.7039 684.09C72.6044 681.185 68.8394 678.97 64.4285 677.435L63.7715 679.324ZM74.3599 685.571C77.3281 688.18 79.6219 691.326 81.2444 695.022L83.0757 694.218C81.3381 690.26 78.8719 686.874 75.6801 684.069L74.3599 685.571ZM81.2527 695.04C82.96 698.725 83.82 702.779 83.82 707.22H85.82C85.82 702.514 84.9067 698.169 83.0673 694.2L81.2527 695.04ZM83.82 707.22C83.82 713.186 82.1968 718.492 78.9578 723.171L80.6022 724.309C84.0832 719.281 85.82 713.574 85.82 707.22H83.82ZM78.9578 723.171C75.7029 727.872 71.4115 731.443 66.0639 733.891L66.8961 735.709C72.5618 733.117 77.1371 729.314 80.6022 724.309L78.9578 723.171ZM65.6025 735.28L87.0225 774.48L88.7775 773.52L67.3575 734.32L65.6025 735.28ZM87.9 773H61.02V775H87.9V773ZM61.9081 773.54L43.4281 737.84L41.6519 738.76L60.1319 774.46L61.9081 773.54ZM42.54 737.3H24.2V739.3H42.54V737.3ZM23.2 738.3V774H25.2V738.3H23.2ZM24.2 773H0.12V775H24.2V773ZM48 695.58H24.2V697.58H48V695.58ZM23.2 696.58V718.7H25.2V696.58H23.2ZM24.2 719.7H48V717.7H24.2V719.7ZM48 719.7C51.9236 719.7 55.1714 718.616 57.6357 716.357L56.2843 714.883C54.2686 716.731 51.5431 717.7 48 717.7V719.7ZM57.6206 716.371C60.1819 714.117 61.46 711.177 61.46 707.64H59.46C59.46 710.636 58.4048 713.017 56.2994 714.869L57.6206 716.371ZM61.46 707.64C61.46 704.103 60.1819 701.163 57.6206 698.909L56.2994 700.411C58.4048 702.263 59.46 704.644 59.46 707.64H61.46ZM57.6357 698.923C55.1714 696.664 51.9236 695.58 48 695.58V697.58C51.5431 697.58 54.2686 698.549 56.2843 700.397L57.6357 698.923ZM89.4575 774L88.5322 773.621L87.9667 775H89.4575V774ZM129.638 676V675H128.967L128.712 675.621L129.638 676ZM157.218 676L158.145 675.625L157.892 675H157.218V676ZM196.838 774V775H198.32L197.765 773.625L196.838 774ZM170.798 774L169.862 774.354L170.107 775H170.798V774ZM161.838 750.34L162.773 749.986L162.528 749.34H161.838V750.34ZM123.618 750.34V749.34H122.931L122.684 749.981L123.618 750.34ZM114.518 774V775H115.204L115.451 774.359L114.518 774ZM130.898 731.16L129.964 730.802L129.442 732.16H130.898V731.16ZM154.698 731.16V732.16H156.141L155.634 730.809L154.698 731.16ZM142.938 699.8L143.874 699.449L142.949 696.981L142.004 699.442L142.938 699.8ZM90.3828 774.379L130.563 676.379L128.712 675.621L88.5322 773.621L90.3828 774.379ZM129.638 677H157.218V675H129.638V677ZM156.29 676.375L195.91 774.375L197.765 773.625L158.145 675.625L156.29 676.375ZM196.838 773H170.798V775H196.838V773ZM171.733 773.646L162.773 749.986L160.902 750.694L169.862 774.354L171.733 773.646ZM161.838 749.34H123.618V751.34H161.838V749.34ZM122.684 749.981L113.584 773.641L115.451 774.359L124.551 750.699L122.684 749.981ZM114.518 773H89.4575V775H114.518V773ZM130.898 732.16H154.698V730.16H130.898V732.16ZM155.634 730.809L143.874 699.449L142.001 700.151L153.761 731.511L155.634 730.809ZM142.004 699.442L129.964 730.802L131.831 731.518L143.871 700.158L142.004 699.442ZM261.502 750.06L261.055 749.166L261.047 749.17L261.502 750.06ZM272.562 740.96L273.263 740.247L272.48 739.477L271.787 740.329L272.562 740.96ZM288.382 756.5L289.162 757.126L289.729 756.421L289.083 755.787L288.382 756.5ZM270.322 770.22L269.902 769.312L269.898 769.314L270.322 770.22ZM226.642 771.48L226.266 772.407L226.271 772.408L226.642 771.48ZM209.982 760.84L209.29 761.561L209.29 761.561L209.982 760.84ZM198.922 744.88L198.007 745.282L198.007 745.282L198.922 744.88ZM198.922 705.12L199.838 705.522L199.84 705.517L198.922 705.12ZM209.982 689.02L209.297 688.292L209.29 688.299L209.982 689.02ZM271.022 679.78L270.603 680.688L270.613 680.692L270.623 680.697L271.022 679.78ZM281.102 685.8L280.483 686.585L280.491 686.591L280.498 686.597L281.102 685.8ZM289.082 693.64L289.783 694.353L290.417 693.73L289.873 693.028L289.082 693.64ZM272.842 709.6L272.063 710.227L272.755 711.087L273.543 710.313L272.842 709.6ZM261.222 699.94L260.752 700.822L260.763 700.829L260.775 700.834L261.222 699.94ZM236.442 698.82L236.827 699.743L236.839 699.738L236.442 698.82ZM227.622 704.7L226.915 703.993L226.908 704L226.902 704.006L227.622 704.7ZM221.742 713.8L220.82 713.412L220.815 713.424L221.742 713.8ZM221.742 736.2L220.815 736.576L220.822 736.591L220.828 736.606L221.742 736.2ZM227.762 745.02L227.055 745.727L227.062 745.734L227.068 745.74L227.762 745.02ZM236.862 751.04L236.465 751.958L236.48 751.964L236.495 751.97L236.862 751.04ZM248.342 754.14C253.251 754.14 257.795 753.08 261.958 750.95L261.047 749.17C257.182 751.147 252.953 752.14 248.342 752.14V754.14ZM261.949 750.954C266.198 748.83 269.993 745.701 273.338 741.591L271.787 740.329C268.598 744.246 265.02 747.183 261.055 749.166L261.949 750.954ZM271.861 741.673L287.681 757.213L289.083 755.787L273.263 740.247L271.861 741.673ZM287.603 755.874C283.137 761.432 277.247 765.916 269.902 769.312L270.742 771.128C278.331 767.618 284.48 762.954 289.162 757.126L287.603 755.874ZM269.898 769.314C262.652 772.708 255.19 774.4 247.502 774.4V776.4C255.494 776.4 263.245 774.639 270.746 771.126L269.898 769.314ZM247.502 774.4C240.25 774.4 233.423 773.115 227.014 770.552L226.271 772.408C232.928 775.071 240.008 776.4 247.502 776.4V774.4ZM227.018 770.553C220.687 767.984 215.243 764.504 210.675 760.119L209.29 761.561C214.054 766.136 219.717 769.749 226.266 772.407L227.018 770.553ZM210.675 760.119C206.106 755.733 202.494 750.523 199.838 744.478L198.007 745.282C200.764 751.557 204.525 756.987 209.29 761.561L210.675 760.119ZM199.838 744.478C197.19 738.451 195.862 731.962 195.862 725H193.862C193.862 732.224 195.241 738.989 198.007 745.282L199.838 744.478ZM195.862 725C195.862 718.038 197.19 711.549 199.838 705.522L198.007 704.718C195.241 711.011 193.862 717.776 193.862 725H195.862ZM199.84 705.517C202.497 699.379 206.109 694.125 210.675 689.741L209.29 688.299C204.522 692.875 200.761 698.354 198.004 704.723L199.84 705.517ZM210.668 689.748C215.332 685.358 220.825 681.876 227.158 679.307L226.406 677.453C219.859 680.11 214.152 683.722 209.297 688.292L210.668 689.748ZM227.158 679.307C233.472 676.745 240.25 675.46 247.502 675.46V673.46C240.008 673.46 232.973 674.789 226.406 677.453L227.158 679.307ZM247.502 675.46C251.437 675.46 255.375 675.917 259.316 676.834L259.769 674.886C255.683 673.936 251.594 673.46 247.502 673.46V675.46ZM259.316 676.834C263.265 677.752 267.027 679.037 270.603 680.688L271.441 678.872C267.738 677.163 263.846 675.834 259.769 674.886L259.316 676.834ZM270.623 680.697C274.185 682.25 277.471 684.212 280.483 686.585L281.721 685.015C278.573 682.534 275.139 680.484 271.422 678.863L270.623 680.697ZM280.498 686.597C283.512 688.88 286.108 691.432 288.291 694.252L289.873 693.028C287.576 690.061 284.852 687.386 281.706 685.003L280.498 686.597ZM288.381 692.927L272.141 708.887L273.543 710.313L289.783 694.353L288.381 692.927ZM273.621 708.973C270.091 704.584 266.109 701.265 261.669 699.046L260.775 700.834C264.922 702.908 268.686 706.029 272.063 710.227L273.621 708.973ZM261.693 699.058C257.342 696.737 252.606 695.58 247.502 695.58V697.58C252.291 697.58 256.702 698.663 260.752 700.822L261.693 699.058ZM247.502 695.58C243.452 695.58 239.629 696.352 236.045 697.902L236.839 699.738C240.162 698.301 243.713 697.58 247.502 697.58V695.58ZM236.058 697.897C232.58 699.346 229.529 701.379 226.915 703.993L228.329 705.407C230.755 702.981 233.585 701.094 236.827 699.743L236.058 697.897ZM226.902 704.006C224.382 706.623 222.357 709.763 220.821 713.412L222.664 714.188C224.114 710.743 226.009 707.817 228.343 705.394L226.902 704.006ZM220.815 713.424C219.363 717.006 218.642 720.868 218.642 725H220.642C220.642 721.105 221.321 717.501 222.669 714.176L220.815 713.424ZM218.642 725C218.642 729.132 219.363 732.994 220.815 736.576L222.669 735.824C221.321 732.499 220.642 728.895 220.642 725H218.642ZM220.828 736.606C222.37 740.075 224.446 743.118 227.055 745.727L228.469 744.313C226.039 741.882 224.101 739.045 222.656 735.794L220.828 736.606ZM227.068 745.74C229.771 748.346 232.906 750.419 236.465 751.958L237.259 750.122C233.912 748.675 230.98 746.734 228.456 744.3L227.068 745.74ZM236.495 751.97C240.167 753.42 244.12 754.14 248.342 754.14V752.14C244.351 752.14 240.65 751.46 237.229 750.11L236.495 751.97ZM298.577 774H297.577V775H298.577V774ZM298.577 676V675H297.577V676H298.577ZM375.857 676H376.857V675H375.857V676ZM375.857 696.86V697.86H376.857V696.86H375.857ZM322.657 696.86V695.86H321.657V696.86H322.657ZM322.657 714.5H321.657V715.5H322.657V714.5ZM357.797 714.5H358.797V713.5H357.797V714.5ZM357.797 734.66V735.66H358.797V734.66H357.797ZM322.657 734.66V733.66H321.657V734.66H322.657ZM322.657 753.14H321.657V754.14H322.657V753.14ZM376.417 753.14H377.417V752.14H376.417V753.14ZM376.417 774V775H377.417V774H376.417ZM299.577 774V676H297.577V774H299.577ZM298.577 677H375.857V675H298.577V677ZM374.857 676V696.86H376.857V676H374.857ZM375.857 695.86H322.657V697.86H375.857V695.86ZM321.657 696.86V714.5H323.657V696.86H321.657ZM322.657 715.5H357.797V713.5H322.657V715.5ZM356.797 714.5V734.66H358.797V714.5H356.797ZM357.797 733.66H322.657V735.66H357.797V733.66ZM321.657 734.66V753.14H323.657V734.66H321.657ZM322.657 754.14H376.417V752.14H322.657V754.14ZM375.417 753.14V774H377.417V753.14H375.417ZM376.417 773H298.577V775H376.417V773Z" fill="black"/>
<path d="M0.12 146H-0.88V147H0.12V146ZM0.12 48V47H-0.88V48H0.12ZM64.1 50.38L63.7466 51.3155L63.759 51.3201L63.7715 51.3245L64.1 50.38ZM75.02 56.82L74.3361 57.5495L74.3478 57.5605L74.3599 57.5712L75.02 56.82ZM82.16 66.62L81.2444 67.022L81.2484 67.0313L81.2527 67.0405L82.16 66.62ZM79.78 95.74L78.9578 95.1708L78.9578 95.1708L79.78 95.74ZM66.48 106.8L66.0639 105.891L65.0877 106.337L65.6025 107.28L66.48 106.8ZM87.9 146V147H89.586L88.7775 145.52L87.9 146ZM61.02 146L60.1319 146.46L60.4116 147H61.02V146ZM42.54 110.3L43.4281 109.84L43.1484 109.3H42.54V110.3ZM24.2 110.3V109.3H23.2V110.3H24.2ZM24.2 146V147H25.2V146H24.2ZM24.2 68.58V67.58H23.2V68.58H24.2ZM24.2 90.7H23.2V91.7H24.2V90.7ZM56.96 87.62L56.2994 86.8693L56.2918 86.876L56.2843 86.8828L56.96 87.62ZM56.96 71.66L56.2843 72.3972L56.2918 72.404L56.2994 72.4107L56.96 71.66ZM1.12 146V48H-0.88V146H1.12ZM0.12 49H50.24V47H0.12V49ZM50.24 49C55.174 49 59.6725 49.7764 63.7466 51.3155L64.4534 49.4445C60.1275 47.8103 55.386 47 50.24 47V49ZM63.7715 51.3245C67.9473 52.7769 71.4623 54.8553 74.3361 57.5495L75.7039 56.0905C72.6044 53.1846 68.8394 50.9697 64.4285 49.4355L63.7715 51.3245ZM74.3599 57.5712C77.3281 60.1796 79.6219 63.3263 81.2444 67.022L83.0757 66.218C81.3381 62.2603 78.8719 58.8737 75.6801 56.0688L74.3599 57.5712ZM81.2527 67.0405C82.96 70.7245 83.82 74.7795 83.82 79.22H85.82C85.82 74.5139 84.9067 70.1688 83.0673 66.1995L81.2527 67.0405ZM83.82 79.22C83.82 85.186 82.1968 90.4923 78.9578 95.1708L80.6022 96.3092C84.0832 91.2811 85.82 85.574 85.82 79.22H83.82ZM78.9578 95.1708C75.7029 99.8723 71.4115 103.443 66.0639 105.891L66.8961 107.709C72.5618 105.117 77.1371 101.314 80.6022 96.3092L78.9578 95.1708ZM65.6025 107.28L87.0225 146.48L88.7775 145.52L67.3575 106.32L65.6025 107.28ZM87.9 145H61.02V147H87.9V145ZM61.9081 145.54L43.4281 109.84L41.6519 110.76L60.1319 146.46L61.9081 145.54ZM42.54 109.3H24.2V111.3H42.54V109.3ZM23.2 110.3V146H25.2V110.3H23.2ZM24.2 145H0.12V147H24.2V145ZM48 67.58H24.2V69.58H48V67.58ZM23.2 68.58V90.7H25.2V68.58H23.2ZM24.2 91.7H48V89.7H24.2V91.7ZM48 91.7C51.9236 91.7 55.1714 90.6161 57.6357 88.3572L56.2843 86.8828C54.2686 88.7306 51.5431 89.7 48 89.7V91.7ZM57.6206 88.3707C60.1819 86.1168 61.46 83.1774 61.46 79.64H59.46C59.46 82.6359 58.4048 85.0165 56.2994 86.8693L57.6206 88.3707ZM61.46 79.64C61.46 76.1026 60.1819 73.1632 57.6206 70.9093L56.2994 72.4107C58.4048 74.2635 59.46 76.6441 59.46 79.64H61.46ZM57.6357 70.9228C55.1714 68.6639 51.9236 67.58 48 67.58V69.58C51.5431 69.58 54.2686 70.5494 56.2843 72.3972L57.6357 70.9228ZM89.4575 146L88.5322 145.621L87.9667 147H89.4575V146ZM129.638 48V47H128.967L128.712 47.6206L129.638 48ZM157.218 48L158.145 47.6252L157.892 47H157.218V48ZM196.838 146V147H198.32L197.765 145.625L196.838 146ZM170.798 146L169.862 146.354L170.107 147H170.798V146ZM161.838 122.34L162.773 121.986L162.528 121.34H161.838V122.34ZM123.618 122.34V121.34H122.931L122.684 121.981L123.618 122.34ZM114.518 146V147H115.204L115.451 146.359L114.518 146ZM130.898 103.16L129.964 102.802L129.442 104.16H130.898V103.16ZM154.698 103.16V104.16H156.141L155.634 102.809L154.698 103.16ZM142.938 71.8L143.874 71.4489L142.949 68.9813L142.004 71.4416L142.938 71.8ZM90.3828 146.379L130.563 48.3793L128.712 47.6206L88.5322 145.621L90.3828 146.379ZM129.638 49H157.218V47H129.638V49ZM156.29 48.3748L195.91 146.375L197.765 145.625L158.145 47.6252L156.29 48.3748ZM196.838 145H170.798V147H196.838V145ZM171.733 145.646L162.773 121.986L160.902 122.694L169.862 146.354L171.733 145.646ZM161.838 121.34H123.618V123.34H161.838V121.34ZM122.684 121.981L113.584 145.641L115.451 146.359L124.551 122.699L122.684 121.981ZM114.518 145H89.4575V147H114.518V145ZM130.898 104.16H154.698V102.16H130.898V104.16ZM155.634 102.809L143.874 71.4489L142.001 72.1511L153.761 103.511L155.634 102.809ZM142.004 71.4416L129.964 102.802L131.831 103.518L143.871 72.1584L142.004 71.4416ZM261.502 122.06L261.055 121.166L261.047 121.17L261.502 122.06ZM272.562 112.96L273.263 112.247L272.48 111.477L271.787 112.329L272.562 112.96ZM288.382 128.5L289.162 129.126L289.729 128.421L289.083 127.787L288.382 128.5ZM270.322 142.22L269.902 141.312L269.898 141.314L270.322 142.22ZM226.642 143.48L226.266 144.407L226.271 144.408L226.642 143.48ZM209.982 132.84L209.29 133.561L209.29 133.561L209.982 132.84ZM198.922 116.88L198.007 117.282L198.007 117.282L198.922 116.88ZM198.922 77.12L199.838 77.5223L199.84 77.5172L198.922 77.12ZM209.982 61.02L209.297 60.2918L209.29 60.2986L209.982 61.02ZM271.022 51.78L270.603 52.688L270.613 52.6924L270.623 52.6967L271.022 51.78ZM281.102 57.8L280.483 58.5855L280.491 58.5914L280.498 58.5971L281.102 57.8ZM289.082 65.64L289.783 66.3532L290.417 65.7304L289.873 65.0278L289.082 65.64ZM272.842 81.6L272.063 82.2268L272.755 83.0875L273.543 82.3132L272.842 81.6ZM261.222 71.94L260.752 72.8223L260.763 72.8285L260.775 72.8344L261.222 71.94ZM236.442 70.82L236.827 71.7432L236.839 71.7379L236.442 70.82ZM227.622 76.7L226.915 75.9929L226.908 75.9996L226.902 76.0064L227.622 76.7ZM221.742 85.8L220.82 85.4119L220.815 85.4243L221.742 85.8ZM221.742 108.2L220.815 108.576L220.822 108.591L220.828 108.606L221.742 108.2ZM227.762 117.02L227.055 117.727L227.062 117.734L227.068 117.74L227.762 117.02ZM236.862 123.04L236.465 123.958L236.48 123.964L236.495 123.97L236.862 123.04ZM248.342 126.14C253.251 126.14 257.795 125.08 261.958 122.95L261.047 121.17C257.182 123.147 252.953 124.14 248.342 124.14V126.14ZM261.949 122.954C266.198 120.83 269.993 117.701 273.338 113.591L271.787 112.329C268.598 116.246 265.02 119.183 261.055 121.166L261.949 122.954ZM271.861 113.673L287.681 129.213L289.083 127.787L273.263 112.247L271.861 113.673ZM287.603 127.874C283.137 133.432 277.247 137.916 269.902 141.312L270.742 143.128C278.331 139.618 284.48 134.954 289.162 129.126L287.603 127.874ZM269.898 141.314C262.652 144.708 255.19 146.4 247.502 146.4V148.4C255.494 148.4 263.245 146.639 270.746 143.126L269.898 141.314ZM247.502 146.4C240.25 146.4 233.423 145.115 227.014 142.552L226.271 144.408C232.928 147.071 240.008 148.4 247.502 148.4V146.4ZM227.018 142.553C220.687 139.984 215.243 136.504 210.675 132.119L209.29 133.561C214.054 138.136 219.717 141.749 226.266 144.407L227.018 142.553ZM210.675 132.119C206.106 127.733 202.494 122.523 199.838 116.478L198.007 117.282C200.764 123.557 204.525 128.987 209.29 133.561L210.675 132.119ZM199.838 116.478C197.19 110.451 195.862 103.962 195.862 97H193.862C193.862 104.224 195.241 110.989 198.007 117.282L199.838 116.478ZM195.862 97C195.862 90.0375 197.19 83.5487 199.838 77.5223L198.007 76.7177C195.241 83.0113 193.862 89.7758 193.862 97H195.862ZM199.84 77.5172C202.497 71.3792 206.109 66.1245 210.675 61.7414L209.29 60.2986C204.522 64.8755 200.761 70.3541 198.004 76.7228L199.84 77.5172ZM210.668 61.7482C215.332 57.3581 220.825 53.8765 227.158 51.3066L226.406 49.4534C219.859 52.1102 214.152 55.7219 209.297 60.2918L210.668 61.7482ZM227.158 51.3066C233.472 48.7446 240.25 47.46 247.502 47.46V45.46C240.008 45.46 232.973 46.7887 226.406 49.4534L227.158 51.3066ZM247.502 47.46C251.437 47.46 255.375 47.9175 259.316 48.834L259.769 46.886C255.683 45.9358 251.594 45.46 247.502 45.46V47.46ZM259.316 48.834C263.265 49.7524 267.027 51.0372 270.603 52.688L271.441 50.872C267.738 49.1627 263.846 47.8343 259.769 46.886L259.316 48.834ZM270.623 52.6967C274.185 54.2496 277.471 56.2124 280.483 58.5855L281.721 57.0145C278.573 54.5342 275.139 52.4837 271.422 50.8633L270.623 52.6967ZM280.498 58.5971C283.512 60.8802 286.108 63.4322 288.291 66.2522L289.873 65.0278C287.576 62.0611 284.852 59.3864 281.706 57.0029L280.498 58.5971ZM288.381 64.9268L272.141 80.8868L273.543 82.3132L289.783 66.3532L288.381 64.9268ZM273.621 80.9732C270.091 76.5844 266.109 73.2654 261.669 71.0456L260.775 72.8344C264.922 74.9079 268.686 78.029 272.063 82.2268L273.621 80.9732ZM261.693 71.0576C257.342 68.7373 252.606 67.58 247.502 67.58V69.58C252.291 69.58 256.702 70.6627 260.752 72.8223L261.693 71.0576ZM247.502 67.58C243.452 67.58 239.629 68.3523 236.045 69.9021L236.839 71.7379C240.162 70.301 243.713 69.58 247.502 69.58V67.58ZM236.058 69.8969C232.58 71.3461 229.529 73.3785 226.915 75.9929L228.329 77.4071C230.755 74.9815 233.585 73.0939 236.827 71.7431L236.058 69.8969ZM226.902 76.0064C224.382 78.6234 222.357 81.7632 220.821 85.4119L222.664 86.1881C224.114 82.7434 226.009 79.8166 228.343 77.3936L226.902 76.0064ZM220.815 85.4243C219.363 89.0059 218.642 92.8679 218.642 97H220.642C220.642 93.1054 221.321 89.5008 222.669 86.1757L220.815 85.4243ZM218.642 97C218.642 101.132 219.363 104.994 220.815 108.576L222.669 107.824C221.321 104.499 220.642 100.895 220.642 97H218.642ZM220.828 108.606C222.37 112.075 224.446 115.118 227.055 117.727L228.469 116.313C226.039 113.882 224.101 111.045 222.656 107.794L220.828 108.606ZM227.068 117.74C229.771 120.346 232.906 122.419 236.465 123.958L237.259 122.122C233.912 120.675 230.98 118.734 228.456 116.3L227.068 117.74ZM236.495 123.97C240.167 125.42 244.12 126.14 248.342 126.14V124.14C244.351 124.14 240.65 123.46 237.229 122.11L236.495 123.97ZM298.577 146H297.577V147H298.577V146ZM298.577 48V47H297.577V48H298.577ZM375.857 48H376.857V47H375.857V48ZM375.857 68.86V69.86H376.857V68.86H375.857ZM322.657 68.86V67.86H321.657V68.86H322.657ZM322.657 86.5H321.657V87.5H322.657V86.5ZM357.797 86.5H358.797V85.5H357.797V86.5ZM357.797 106.66V107.66H358.797V106.66H357.797ZM322.657 106.66V105.66H321.657V106.66H322.657ZM322.657 125.14H321.657V126.14H322.657V125.14ZM376.417 125.14H377.417V124.14H376.417V125.14ZM376.417 146V147H377.417V146H376.417ZM299.577 146V48H297.577V146H299.577ZM298.577 49H375.857V47H298.577V49ZM374.857 48V68.86H376.857V48H374.857ZM375.857 67.86H322.657V69.86H375.857V67.86ZM321.657 68.86V86.5H323.657V68.86H321.657ZM322.657 87.5H357.797V85.5H322.657V87.5ZM356.797 86.5V106.66H358.797V86.5H356.797ZM357.797 105.66H322.657V107.66H357.797V105.66ZM321.657 106.66V125.14H323.657V106.66H321.657ZM322.657 126.14H376.417V124.14H322.657V126.14ZM375.417 125.14V146H377.417V125.14H375.417ZM376.417 145H298.577V147H376.417V145Z" fill="black"/>
<path d="M41.6807 -8.64648L42.5751 -9.0937L42.2987 -9.64648H41.6807V-8.64648ZM27.7646 -8.64648V-9.64648H26.7646V-8.64648H27.7646ZM27.7646 29V30H28.7646V29H27.7646ZM2.05664 29H1.05664V30H2.05664V29ZM2.05664 -77.6406V-78.6406H1.05664V-77.6406H2.05664ZM79.8398 -26.957L78.9899 -27.484L78.9861 -27.4778L79.8398 -26.957ZM65.7773 -15.0918L65.3496 -15.9957L64.4127 -15.5523L64.8894 -14.6319L65.7773 -15.0918ZM88.043 27.9014H89.043V27.6578L88.931 27.4415L88.043 27.9014ZM88.043 29V30H89.043V29H88.043ZM60.5039 29L59.6095 29.4472L59.8859 30H60.5039V29ZM27.7646 -28.4951H26.7646V-27.4951H27.7646V-28.4951ZM55.0107 -32.3037L54.2902 -32.9971L54.2899 -32.9968L55.0107 -32.3037ZM55.0107 -53.8369L54.2837 -53.1503L54.2902 -53.1435L55.0107 -53.8369ZM27.7646 -57.792V-58.792H26.7646V-57.792H27.7646ZM41.6807 -9.64648H27.7646V-7.64648H41.6807V-9.64648ZM26.7646 -8.64648V29H28.7646V-8.64648H26.7646ZM27.7646 28H2.05664V30H27.7646V28ZM3.05664 29V-77.6406H1.05664V29H3.05664ZM2.05664 -76.6406H44.0244V-78.6406H2.05664V-76.6406ZM44.0244 -76.6406C56.5333 -76.6406 66.174 -73.8629 73.0687 -68.4322L74.3063 -70.0033C66.9431 -75.8031 56.8085 -78.6406 44.0244 -78.6406V-76.6406ZM73.0687 -68.4322C79.9235 -63.0329 83.3809 -55.4067 83.3809 -45.4141H85.3809C85.3809 -55.9292 81.7093 -64.1722 74.3063 -70.0033L73.0687 -68.4322ZM83.3809 -45.4141C83.3809 -38.1249 81.8944 -32.1685 78.9899 -27.484L80.6897 -26.4301C83.84 -31.5111 85.3809 -37.8594 85.3809 -45.4141H83.3809ZM78.9861 -27.4778C76.1309 -22.7971 71.6117 -18.9594 65.3496 -15.9957L66.2051 -14.1879C72.7359 -17.2788 77.5917 -21.3513 80.6935 -26.4363L78.9861 -27.4778ZM64.8894 -14.6319L87.155 28.3612L88.931 27.4415L66.6653 -15.5517L64.8894 -14.6319ZM87.043 27.9014V29H89.043V27.9014H87.043ZM88.043 28H60.5039V30H88.043V28ZM61.3983 28.5528L42.5751 -9.0937L40.7862 -8.19927L59.6095 29.4472L61.3983 28.5528ZM27.7646 -27.4951H44.0244V-29.4951H27.7646V-27.4951ZM44.0244 -27.4951C49.0716 -27.4951 53.0382 -28.8095 55.7316 -31.6106L54.2899 -32.9968C52.1005 -30.7198 48.7429 -29.4951 44.0244 -29.4951V-27.4951ZM55.7313 -31.6103C58.4468 -34.4323 59.7461 -38.2968 59.7461 -43.0703H57.7461C57.7461 -38.6641 56.5551 -35.3509 54.2902 -32.9971L55.7313 -31.6103ZM59.7461 -43.0703C59.7461 -47.8438 58.4468 -51.7083 55.7313 -54.5303L54.2902 -53.1435C56.5551 -50.7897 57.7461 -47.4765 57.7461 -43.0703H59.7461ZM55.7378 -54.5235C53.0018 -57.4205 49.038 -58.792 44.0244 -58.792V-56.792C48.6788 -56.792 52.0392 -55.5268 54.2837 -53.1503L55.7378 -54.5235ZM44.0244 -58.792H27.7646V-56.792H44.0244V-58.792ZM26.7646 -57.792V-28.4951H28.7646V-57.792H26.7646ZM160.479 9.07812L161.434 8.77985L161.215 8.07812H160.479V9.07812ZM125.25 9.07812V8.07812H124.512L124.295 8.78305L125.25 9.07812ZM119.098 29V30H119.835L120.053 29.2951L119.098 29ZM91.6318 29L90.693 28.6557L90.1999 30H91.6318V29ZM130.743 -77.6406V-78.6406H130.045L129.804 -77.985L130.743 -77.6406ZM154.913 -77.6406L155.851 -77.9872L155.61 -78.6406H154.913V-77.6406ZM194.317 29V30H195.753L195.255 28.6534L194.317 29ZM166.705 29L165.751 29.2983L165.97 30H166.705V29ZM131.402 -10.7705L130.447 -11.0657L130.047 -9.77051H131.402V-10.7705ZM154.327 -10.7705V-9.77051H155.685L155.282 -11.0674L154.327 -10.7705ZM142.828 -47.7578L143.783 -48.0547L142.825 -51.136L141.873 -48.053L142.828 -47.7578ZM160.479 8.07812H125.25V10.0781H160.479V8.07812ZM124.295 8.78305L118.142 28.7049L120.053 29.2951L126.205 9.3732L124.295 8.78305ZM119.098 28H91.6318V30H119.098V28ZM92.5707 29.3443L131.682 -77.2963L129.804 -77.985L90.693 28.6557L92.5707 29.3443ZM130.743 -76.6406H154.913V-78.6406H130.743V-76.6406ZM153.975 -77.294L193.379 29.3466L195.255 28.6534L155.851 -77.9872L153.975 -77.294ZM194.317 28H166.705V30H194.317V28ZM167.66 28.7017L161.434 8.77985L159.525 9.3764L165.751 29.2983L167.66 28.7017ZM131.402 -9.77051H154.327V-11.7705H131.402V-9.77051ZM155.282 -11.0674L143.783 -48.0547L141.873 -47.4609L153.372 -10.4736L155.282 -11.0674ZM141.873 -48.053L130.447 -11.0657L132.358 -10.4754L143.784 -47.4627L141.873 -48.053ZM286.822 -7.1084L287.821 -7.06239L287.869 -8.1084H286.822V-7.1084ZM280.816 12.5938L281.656 13.1367L281.658 13.1334L280.816 12.5938ZM265.362 25.7773L264.937 24.8725L264.934 24.8737L265.362 25.7773ZM202.96 -54.5693L202.053 -54.9916L202.052 -54.9891L202.96 -54.5693ZM218.707 -72.7334L219.235 -71.884L219.239 -71.8868L218.707 -72.7334ZM273.639 -68.9248L272.982 -68.1702L272.985 -68.1679L273.639 -68.9248ZM287.042 -40.7998V-39.7998H288.136L288.038 -40.8892L287.042 -40.7998ZM261.407 -40.7998L260.408 -40.7697L260.437 -39.7998H261.407V-40.7998ZM223.688 -28.9346L222.688 -28.9485V-28.9346H223.688ZM227.936 2.99902L227.07 3.50076L227.074 3.50717L227.936 2.99902ZM261.261 -7.1084V-8.1084H260.292L260.261 -7.14064L261.261 -7.1084ZM285.823 -7.1544C285.489 0.109107 283.533 6.50289 279.975 12.0541L281.658 13.1334C285.424 7.25883 287.472 0.517846 287.821 -7.06239L285.823 -7.1544ZM279.977 12.0508C276.425 17.5442 271.424 21.8198 264.937 24.8725L265.788 26.6822C272.582 23.4849 277.884 18.9715 281.656 13.1367L279.977 12.0508ZM264.934 24.8737C258.496 27.9256 251.103 29.4648 242.73 29.4648V31.4648C251.35 31.4648 259.045 29.8791 265.791 26.6809L264.934 24.8737ZM242.73 29.4648C228.956 29.4648 218.212 24.9892 210.375 16.1069L208.875 17.4302C217.151 26.8097 228.478 31.4648 242.73 31.4648V29.4648ZM210.375 16.1069C202.53 7.21652 198.54 -5.40662 198.54 -21.9033H196.54C196.54 -5.09924 200.606 8.05887 208.875 17.4302L210.375 16.1069ZM198.54 -21.9033V-27.1768H196.54V-21.9033H198.54ZM198.54 -27.1768C198.54 -37.5114 200.327 -46.4937 203.868 -54.1496L202.052 -54.9891C198.367 -47.02 196.54 -37.7405 196.54 -27.1768H198.54ZM203.866 -54.1471C207.453 -61.8465 212.577 -67.7466 219.235 -71.884L218.179 -73.5828C211.165 -69.2241 205.791 -63.0148 202.053 -54.9916L203.866 -54.1471ZM219.239 -71.8868C225.898 -76.0724 233.62 -78.1787 242.438 -78.1787V-80.1787C233.287 -80.1787 225.188 -77.9882 218.175 -73.58L219.239 -71.8868ZM242.438 -78.1787C255.196 -78.1787 265.344 -74.8122 272.982 -68.1702L274.295 -69.6794C266.211 -76.7092 255.558 -80.1787 242.438 -80.1787V-78.1787ZM272.985 -68.1679C280.619 -61.577 284.991 -52.4583 286.046 -40.7104L288.038 -40.8892C286.944 -53.0671 282.381 -62.6984 274.292 -69.6817L272.985 -68.1679ZM287.042 -41.7998H261.407V-39.7998H287.042V-41.7998ZM262.407 -40.8299C262.208 -47.4474 260.538 -52.431 257.177 -55.5248L255.823 -54.0534C258.615 -51.483 260.216 -47.1405 260.408 -40.7697L262.407 -40.8299ZM257.177 -55.5248C253.842 -58.5953 248.863 -60.0371 242.438 -60.0371V-58.0371C248.609 -58.0371 253.006 -56.6469 255.823 -54.0534L257.177 -55.5248ZM242.438 -60.0371C235.751 -60.0371 230.714 -57.5102 227.526 -52.3878L229.224 -51.3309C231.993 -55.7789 236.331 -58.0371 242.438 -58.0371V-60.0371ZM227.526 -52.3878C224.399 -47.3647 222.835 -39.4956 222.688 -28.9485L224.687 -28.9206C224.833 -39.3697 226.394 -46.7838 229.224 -51.3309L227.526 -52.3878ZM222.688 -28.9346V-21.3906H224.688V-28.9346H222.688ZM222.688 -21.3906C222.688 -9.98297 224.098 -1.62415 227.071 3.50074L228.801 2.49731C226.109 -2.14343 224.688 -10.0444 224.688 -21.3906H222.688ZM227.074 3.50717C230.179 8.76897 235.49 11.3232 242.73 11.3232V9.32324C236.006 9.32324 231.454 6.9947 228.797 2.49087L227.074 3.50717ZM242.73 11.3232C248.783 11.3232 253.574 9.89783 256.945 6.8952L255.615 5.40167C252.737 7.96545 248.494 9.32324 242.73 9.32324V11.3232ZM256.945 6.8952C260.352 3.86109 262.06 -0.871391 262.26 -7.07616L260.261 -7.14064C260.071 -1.23603 258.458 2.86938 255.615 5.40167L256.945 6.8952ZM261.261 -6.1084H286.822V-8.1084H261.261V-6.1084ZM365.118 -16.1904V-15.1904H366.118V-16.1904H365.118ZM324.688 -16.1904V-17.1904H323.688V-16.1904H324.688ZM324.688 9.22461H323.688V10.2246H324.688V9.22461ZM372.442 9.22461H373.442V8.22461H372.442V9.22461ZM372.442 29V30H373.442V29H372.442ZM298.98 29H297.98V30H298.98V29ZM298.98 -77.6406V-78.6406H297.98V-77.6406H298.98ZM372.589 -77.6406H373.589V-78.6406H372.589V-77.6406ZM372.589 -57.792V-56.792H373.589V-57.792H372.589ZM324.688 -57.792V-58.792H323.688V-57.792H324.688ZM324.688 -35.3066H323.688V-34.3066H324.688V-35.3066ZM365.118 -35.3066H366.118V-36.3066H365.118V-35.3066ZM365.118 -17.1904H324.688V-15.1904H365.118V-17.1904ZM323.688 -16.1904V9.22461H325.688V-16.1904H323.688ZM324.688 10.2246H372.442V8.22461H324.688V10.2246ZM371.442 9.22461V29H373.442V9.22461H371.442ZM372.442 28H298.98V30H372.442V28ZM299.98 29V-77.6406H297.98V29H299.98ZM298.98 -76.6406H372.589V-78.6406H298.98V-76.6406ZM371.589 -77.6406V-57.792H373.589V-77.6406H371.589ZM372.589 -58.792H324.688V-56.792H372.589V-58.792ZM323.688 -57.792V-35.3066H325.688V-57.792H323.688ZM324.688 -34.3066H365.118V-36.3066H324.688V-34.3066ZM364.118 -35.3066V-16.1904H366.118V-35.3066H364.118Z" fill="black"/>
<path d="M2.12 403V305H52.24C57.28 305 61.9 305.793 66.1 307.38C70.3933 308.873 74.0333 311.02 77.02 313.82C80.1 316.527 82.48 319.793 84.16 323.62C85.9333 327.447 86.82 331.647 86.82 336.22C86.82 342.38 85.14 347.887 81.78 352.74C78.42 357.593 73.9867 361.28 68.48 363.8L89.9 403H63.02L44.54 367.3H26.2V403H2.12ZM50 325.58H26.2V347.7H50C53.7333 347.7 56.72 346.673 58.96 344.62C61.2933 342.567 62.46 339.907 62.46 336.64C62.46 333.373 61.2933 330.713 58.96 328.66C56.72 326.607 53.7333 325.58 50 325.58ZM91.4575 403L131.638 305H159.218L198.838 403H172.798L163.838 379.34H125.618L116.518 403H91.4575ZM132.898 360.16H156.698L144.938 328.8L132.898 360.16ZM250.342 382.14C255.102 382.14 259.489 381.113 263.502 379.06C267.609 377.007 271.296 373.973 274.562 369.96L290.382 385.5C285.809 391.193 279.789 395.767 272.322 399.22C264.949 402.673 257.342 404.4 249.502 404.4C242.129 404.4 235.176 403.093 228.642 400.48C222.202 397.867 216.649 394.32 211.982 389.84C207.316 385.36 203.629 380.04 200.922 373.88C198.216 367.72 196.862 361.093 196.862 354C196.862 346.907 198.216 340.28 200.922 334.12C203.629 327.867 207.316 322.5 211.982 318.02C216.742 313.54 222.342 309.993 228.782 307.38C235.222 304.767 242.129 303.46 249.502 303.46C253.516 303.46 257.529 303.927 261.542 304.86C265.556 305.793 269.382 307.1 273.022 308.78C276.662 310.367 280.022 312.373 283.102 314.8C286.182 317.133 288.842 319.747 291.082 322.64L274.842 338.6C271.389 334.307 267.516 331.087 263.222 328.94C259.022 326.7 254.449 325.58 249.502 325.58C245.582 325.58 241.896 326.327 238.442 327.82C235.082 329.22 232.142 331.18 229.622 333.7C227.196 336.22 225.236 339.253 223.742 342.8C222.342 346.253 221.642 349.987 221.642 354C221.642 358.013 222.342 361.747 223.742 365.2C225.236 368.56 227.242 371.5 229.762 374.02C232.376 376.54 235.409 378.547 238.862 380.04C242.409 381.44 246.236 382.14 250.342 382.14ZM300.577 403V305H377.857V325.86H324.657V343.5H359.797V363.66H324.657V382.14H378.417V403H300.577Z" fill="black"/>
<path d="M2.12 403H1.12V404H2.12V403ZM2.12 305V304H1.12V305H2.12ZM66.1 307.38L65.7466 308.315L65.759 308.32L65.7715 308.324L66.1 307.38ZM77.02 313.82L76.3361 314.55L76.3478 314.561L76.3599 314.571L77.02 313.82ZM84.16 323.62L83.2444 324.022L83.2484 324.031L83.2527 324.04L84.16 323.62ZM81.78 352.74L80.9578 352.171L80.9578 352.171L81.78 352.74ZM68.48 363.8L68.0639 362.891L67.0877 363.337L67.6025 364.28L68.48 363.8ZM89.9 403V404H91.586L90.7775 402.52L89.9 403ZM63.02 403L62.1319 403.46L62.4116 404H63.02V403ZM44.54 367.3L45.4281 366.84L45.1484 366.3H44.54V367.3ZM26.2 367.3V366.3H25.2V367.3H26.2ZM26.2 403V404H27.2V403H26.2ZM26.2 325.58V324.58H25.2V325.58H26.2ZM26.2 347.7H25.2V348.7H26.2V347.7ZM58.96 344.62L58.2994 343.869L58.2918 343.876L58.2843 343.883L58.96 344.62ZM58.96 328.66L58.2843 329.397L58.2918 329.404L58.2994 329.411L58.96 328.66ZM3.12 403V305H1.12V403H3.12ZM2.12 306H52.24V304H2.12V306ZM52.24 306C57.174 306 61.6725 306.776 65.7466 308.315L66.4534 306.445C62.1275 304.81 57.386 304 52.24 304V306ZM65.7715 308.324C69.9473 309.777 73.4623 311.855 76.3361 314.55L77.7039 313.09C74.6044 310.185 70.8394 307.97 66.4285 306.435L65.7715 308.324ZM76.3599 314.571C79.3281 317.18 81.6219 320.326 83.2444 324.022L85.0757 323.218C83.3381 319.26 80.8719 315.874 77.6801 313.069L76.3599 314.571ZM83.2527 324.04C84.96 327.725 85.82 331.779 85.82 336.22H87.82C87.82 331.514 86.9067 327.169 85.0673 323.2L83.2527 324.04ZM85.82 336.22C85.82 342.186 84.1968 347.492 80.9578 352.171L82.6022 353.309C86.0832 348.281 87.82 342.574 87.82 336.22H85.82ZM80.9578 352.171C77.7029 356.872 73.4115 360.443 68.0639 362.891L68.8961 364.709C74.5618 362.117 79.1371 358.314 82.6022 353.309L80.9578 352.171ZM67.6025 364.28L89.0225 403.48L90.7775 402.52L69.3575 363.32L67.6025 364.28ZM89.9 402H63.02V404H89.9V402ZM63.9081 402.54L45.4281 366.84L43.6519 367.76L62.1319 403.46L63.9081 402.54ZM44.54 366.3H26.2V368.3H44.54V366.3ZM25.2 367.3V403H27.2V367.3H25.2ZM26.2 402H2.12V404H26.2V402ZM50 324.58H26.2V326.58H50V324.58ZM25.2 325.58V347.7H27.2V325.58H25.2ZM26.2 348.7H50V346.7H26.2V348.7ZM50 348.7C53.9236 348.7 57.1714 347.616 59.6357 345.357L58.2843 343.883C56.2686 345.731 53.5431 346.7 50 346.7V348.7ZM59.6206 345.371C62.1819 343.117 63.46 340.177 63.46 336.64H61.46C61.46 339.636 60.4048 342.017 58.2994 343.869L59.6206 345.371ZM63.46 336.64C63.46 333.103 62.1819 330.163 59.6206 327.909L58.2994 329.411C60.4048 331.263 61.46 333.644 61.46 336.64H63.46ZM59.6357 327.923C57.1714 325.664 53.9236 324.58 50 324.58V326.58C53.5431 326.58 56.2686 327.549 58.2843 329.397L59.6357 327.923ZM91.4575 403L90.5322 402.621L89.9667 404H91.4575V403ZM131.638 305V304H130.967L130.712 304.621L131.638 305ZM159.218 305L160.145 304.625L159.892 304H159.218V305ZM198.838 403V404H200.32L199.765 402.625L198.838 403ZM172.798 403L171.862 403.354L172.107 404H172.798V403ZM163.838 379.34L164.773 378.986L164.528 378.34H163.838V379.34ZM125.618 379.34V378.34H124.931L124.684 378.981L125.618 379.34ZM116.518 403V404H117.204L117.451 403.359L116.518 403ZM132.898 360.16L131.964 359.802L131.442 361.16H132.898V360.16ZM156.698 360.16V361.16H158.141L157.634 359.809L156.698 360.16ZM144.938 328.8L145.874 328.449L144.949 325.981L144.004 328.442L144.938 328.8ZM92.3828 403.379L132.563 305.379L130.712 304.621L90.5322 402.621L92.3828 403.379ZM131.638 306H159.218V304H131.638V306ZM158.29 305.375L197.91 403.375L199.765 402.625L160.145 304.625L158.29 305.375ZM198.838 402H172.798V404H198.838V402ZM173.733 402.646L164.773 378.986L162.902 379.694L171.862 403.354L173.733 402.646ZM163.838 378.34H125.618V380.34H163.838V378.34ZM124.684 378.981L115.584 402.641L117.451 403.359L126.551 379.699L124.684 378.981ZM116.518 402H91.4575V404H116.518V402ZM132.898 361.16H156.698V359.16H132.898V361.16ZM157.634 359.809L145.874 328.449L144.001 329.151L155.761 360.511L157.634 359.809ZM144.004 328.442L131.964 359.802L133.831 360.518L145.871 329.158L144.004 328.442ZM263.502 379.06L263.055 378.166L263.047 378.17L263.502 379.06ZM274.562 369.96L275.263 369.247L274.48 368.477L273.787 369.329L274.562 369.96ZM290.382 385.5L291.162 386.126L291.729 385.421L291.083 384.787L290.382 385.5ZM272.322 399.22L271.902 398.312L271.898 398.314L272.322 399.22ZM228.642 400.48L228.266 401.407L228.271 401.408L228.642 400.48ZM211.982 389.84L211.29 390.561L211.29 390.561L211.982 389.84ZM200.922 373.88L200.007 374.282L200.007 374.282L200.922 373.88ZM200.922 334.12L201.838 334.522L201.84 334.517L200.922 334.12ZM211.982 318.02L211.297 317.292L211.29 317.299L211.982 318.02ZM273.022 308.78L272.603 309.688L272.613 309.692L272.623 309.697L273.022 308.78ZM283.102 314.8L282.483 315.585L282.491 315.591L282.498 315.597L283.102 314.8ZM291.082 322.64L291.783 323.353L292.417 322.73L291.873 322.028L291.082 322.64ZM274.842 338.6L274.063 339.227L274.755 340.087L275.543 339.313L274.842 338.6ZM263.222 328.94L262.752 329.822L262.763 329.829L262.775 329.834L263.222 328.94ZM238.442 327.82L238.827 328.743L238.839 328.738L238.442 327.82ZM229.622 333.7L228.915 332.993L228.908 333L228.902 333.006L229.622 333.7ZM223.742 342.8L222.82 342.412L222.815 342.424L223.742 342.8ZM223.742 365.2L222.815 365.576L222.822 365.591L222.828 365.606L223.742 365.2ZM229.762 374.02L229.055 374.727L229.062 374.734L229.068 374.74L229.762 374.02ZM238.862 380.04L238.465 380.958L238.48 380.964L238.495 380.97L238.862 380.04ZM250.342 383.14C255.251 383.14 259.795 382.08 263.958 379.95L263.047 378.17C259.182 380.147 254.953 381.14 250.342 381.14V383.14ZM263.949 379.954C268.198 377.83 271.993 374.701 275.338 370.591L273.787 369.329C270.598 373.246 267.02 376.183 263.055 378.166L263.949 379.954ZM273.861 370.673L289.681 386.213L291.083 384.787L275.263 369.247L273.861 370.673ZM289.603 384.874C285.137 390.432 279.247 394.916 271.902 398.312L272.742 400.128C280.331 396.618 286.48 391.954 291.162 386.126L289.603 384.874ZM271.898 398.314C264.652 401.708 257.19 403.4 249.502 403.4V405.4C257.494 405.4 265.245 403.639 272.746 400.126L271.898 398.314ZM249.502 403.4C242.25 403.4 235.423 402.115 229.014 399.552L228.271 401.408C234.928 404.071 242.008 405.4 249.502 405.4V403.4ZM229.018 399.553C222.687 396.984 217.243 393.504 212.675 389.119L211.29 390.561C216.054 395.136 221.717 398.749 228.266 401.407L229.018 399.553ZM212.675 389.119C208.106 384.733 204.494 379.523 201.838 373.478L200.007 374.282C202.764 380.557 206.525 385.987 211.29 390.561L212.675 389.119ZM201.838 373.478C199.19 367.451 197.862 360.962 197.862 354H195.862C195.862 361.224 197.241 367.989 200.007 374.282L201.838 373.478ZM197.862 354C197.862 347.038 199.19 340.549 201.838 334.522L200.007 333.718C197.241 340.011 195.862 346.776 195.862 354H197.862ZM201.84 334.517C204.497 328.379 208.109 323.125 212.675 318.741L211.29 317.299C206.522 321.875 202.761 327.354 200.004 333.723L201.84 334.517ZM212.668 318.748C217.332 314.358 222.825 310.876 229.158 308.307L228.406 306.453C221.859 309.11 216.152 312.722 211.297 317.292L212.668 318.748ZM229.158 308.307C235.472 305.745 242.25 304.46 249.502 304.46V302.46C242.008 302.46 234.973 303.789 228.406 306.453L229.158 308.307ZM249.502 304.46C253.437 304.46 257.375 304.917 261.316 305.834L261.769 303.886C257.683 302.936 253.594 302.46 249.502 302.46V304.46ZM261.316 305.834C265.265 306.752 269.027 308.037 272.603 309.688L273.441 307.872C269.738 306.163 265.846 304.834 261.769 303.886L261.316 305.834ZM272.623 309.697C276.185 311.25 279.471 313.212 282.483 315.585L283.721 314.015C280.573 311.534 277.139 309.484 273.422 307.863L272.623 309.697ZM282.498 315.597C285.512 317.88 288.108 320.432 290.291 323.252L291.873 322.028C289.576 319.061 286.852 316.386 283.706 314.003L282.498 315.597ZM290.381 321.927L274.141 337.887L275.543 339.313L291.783 323.353L290.381 321.927ZM275.621 337.973C272.091 333.584 268.109 330.265 263.669 328.046L262.775 329.834C266.922 331.908 270.686 335.029 274.063 339.227L275.621 337.973ZM263.693 328.058C259.342 325.737 254.606 324.58 249.502 324.58V326.58C254.291 326.58 258.702 327.663 262.752 329.822L263.693 328.058ZM249.502 324.58C245.452 324.58 241.629 325.352 238.045 326.902L238.839 328.738C242.162 327.301 245.713 326.58 249.502 326.58V324.58ZM238.058 326.897C234.58 328.346 231.529 330.379 228.915 332.993L230.329 334.407C232.755 331.981 235.585 330.094 238.827 328.743L238.058 326.897ZM228.902 333.006C226.382 335.623 224.357 338.763 222.821 342.412L224.664 343.188C226.114 339.743 228.009 336.817 230.343 334.394L228.902 333.006ZM222.815 342.424C221.363 346.006 220.642 349.868 220.642 354H222.642C222.642 350.105 223.321 346.501 224.669 343.176L222.815 342.424ZM220.642 354C220.642 358.132 221.363 361.994 222.815 365.576L224.669 364.824C223.321 361.499 222.642 357.895 222.642 354H220.642ZM222.828 365.606C224.37 369.075 226.446 372.118 229.055 374.727L230.469 373.313C228.039 370.882 226.101 368.045 224.656 364.794L222.828 365.606ZM229.068 374.74C231.771 377.346 234.906 379.419 238.465 380.958L239.259 379.122C235.912 377.675 232.98 375.734 230.456 373.3L229.068 374.74ZM238.495 380.97C242.167 382.42 246.12 383.14 250.342 383.14V381.14C246.351 381.14 242.65 380.46 239.229 379.11L238.495 380.97ZM300.577 403H299.577V404H300.577V403ZM300.577 305V304H299.577V305H300.577ZM377.857 305H378.857V304H377.857V305ZM377.857 325.86V326.86H378.857V325.86H377.857ZM324.657 325.86V324.86H323.657V325.86H324.657ZM324.657 343.5H323.657V344.5H324.657V343.5ZM359.797 343.5H360.797V342.5H359.797V343.5ZM359.797 363.66V364.66H360.797V363.66H359.797ZM324.657 363.66V362.66H323.657V363.66H324.657ZM324.657 382.14H323.657V383.14H324.657V382.14ZM378.417 382.14H379.417V381.14H378.417V382.14ZM378.417 403V404H379.417V403H378.417ZM301.577 403V305H299.577V403H301.577ZM300.577 306H377.857V304H300.577V306ZM376.857 305V325.86H378.857V305H376.857ZM377.857 324.86H324.657V326.86H377.857V324.86ZM323.657 325.86V343.5H325.657V325.86H323.657ZM324.657 344.5H359.797V342.5H324.657V344.5ZM358.797 343.5V363.66H360.797V343.5H358.797ZM359.797 362.66H324.657V364.66H359.797V362.66ZM323.657 363.66V382.14H325.657V363.66H323.657ZM324.657 383.14H378.417V381.14H324.657V383.14ZM377.417 382.14V403H379.417V382.14H377.417ZM378.417 402H300.577V404H378.417V402Z" fill="black"/>
<path d="M-0.88 887H-1.88V888H-0.88V887ZM-0.88 789V788H-1.88V789H-0.88ZM63.1 791.38L62.7466 792.315L62.759 792.32L62.7715 792.324L63.1 791.38ZM74.02 797.82L73.3361 798.55L73.3478 798.561L73.3599 798.571L74.02 797.82ZM81.16 807.62L80.2444 808.022L80.2484 808.031L80.2527 808.04L81.16 807.62ZM78.78 836.74L77.9578 836.171L77.9578 836.171L78.78 836.74ZM65.48 847.8L65.0639 846.891L64.0877 847.337L64.6025 848.28L65.48 847.8ZM86.9 887V888H88.586L87.7775 886.52L86.9 887ZM60.02 887L59.1319 887.46L59.4116 888H60.02V887ZM41.54 851.3L42.4281 850.84L42.1484 850.3H41.54V851.3ZM23.2 851.3V850.3H22.2V851.3H23.2ZM23.2 887V888H24.2V887H23.2ZM23.2 809.58V808.58H22.2V809.58H23.2ZM23.2 831.7H22.2V832.7H23.2V831.7ZM55.96 828.62L55.2994 827.869L55.2918 827.876L55.2843 827.883L55.96 828.62ZM55.96 812.66L55.2843 813.397L55.2918 813.404L55.2994 813.411L55.96 812.66ZM0.12 887V789H-1.88V887H0.12ZM-0.88 790H49.24V788H-0.88V790ZM49.24 790C54.174 790 58.6725 790.776 62.7466 792.315L63.4534 790.445C59.1275 788.81 54.386 788 49.24 788V790ZM62.7715 792.324C66.9473 793.777 70.4623 795.855 73.3361 798.55L74.7039 797.09C71.6044 794.185 67.8394 791.97 63.4285 790.435L62.7715 792.324ZM73.3599 798.571C76.3281 801.18 78.6219 804.326 80.2444 808.022L82.0757 807.218C80.3381 803.26 77.8719 799.874 74.6801 797.069L73.3599 798.571ZM80.2527 808.04C81.96 811.725 82.82 815.779 82.82 820.22H84.82C84.82 815.514 83.9067 811.169 82.0673 807.2L80.2527 808.04ZM82.82 820.22C82.82 826.186 81.1968 831.492 77.9578 836.171L79.6022 837.309C83.0832 832.281 84.82 826.574 84.82 820.22H82.82ZM77.9578 836.171C74.7029 840.872 70.4115 844.443 65.0639 846.891L65.8961 848.709C71.5618 846.117 76.1371 842.314 79.6022 837.309L77.9578 836.171ZM64.6025 848.28L86.0225 887.48L87.7775 886.52L66.3575 847.32L64.6025 848.28ZM86.9 886H60.02V888H86.9V886ZM60.9081 886.54L42.4281 850.84L40.6519 851.76L59.1319 887.46L60.9081 886.54ZM41.54 850.3H23.2V852.3H41.54V850.3ZM22.2 851.3V887H24.2V851.3H22.2ZM23.2 886H-0.88V888H23.2V886ZM47 808.58H23.2V810.58H47V808.58ZM22.2 809.58V831.7H24.2V809.58H22.2ZM23.2 832.7H47V830.7H23.2V832.7ZM47 832.7C50.9236 832.7 54.1714 831.616 56.6357 829.357L55.2843 827.883C53.2686 829.731 50.5431 830.7 47 830.7V832.7ZM56.6206 829.371C59.1819 827.117 60.46 824.177 60.46 820.64H58.46C58.46 823.636 57.4048 826.017 55.2994 827.869L56.6206 829.371ZM60.46 820.64C60.46 817.103 59.1819 814.163 56.6206 811.909L55.2994 813.411C57.4048 815.263 58.46 817.644 58.46 820.64H60.46ZM56.6357 811.923C54.1714 809.664 50.9236 808.58 47 808.58V810.58C50.5431 810.58 53.2686 811.549 55.2843 813.397L56.6357 811.923ZM88.4575 887L87.5322 886.621L86.9667 888H88.4575V887ZM128.638 789V788H127.967L127.712 788.621L128.638 789ZM156.218 789L157.145 788.625L156.892 788H156.218V789ZM195.838 887V888H197.32L196.765 886.625L195.838 887ZM169.798 887L168.862 887.354L169.107 888H169.798V887ZM160.838 863.34L161.773 862.986L161.528 862.34H160.838V863.34ZM122.618 863.34V862.34H121.931L121.684 862.981L122.618 863.34ZM113.518 887V888H114.204L114.451 887.359L113.518 887ZM129.898 844.16L128.964 843.802L128.442 845.16H129.898V844.16ZM153.698 844.16V845.16H155.141L154.634 843.809L153.698 844.16ZM141.938 812.8L142.874 812.449L141.949 809.981L141.004 812.442L141.938 812.8ZM89.3828 887.379L129.563 789.379L127.712 788.621L87.5322 886.621L89.3828 887.379ZM128.638 790H156.218V788H128.638V790ZM155.29 789.375L194.91 887.375L196.765 886.625L157.145 788.625L155.29 789.375ZM195.838 886H169.798V888H195.838V886ZM170.733 886.646L161.773 862.986L159.902 863.694L168.862 887.354L170.733 886.646ZM160.838 862.34H122.618V864.34H160.838V862.34ZM121.684 862.981L112.584 886.641L114.451 887.359L123.551 863.699L121.684 862.981ZM113.518 886H88.4575V888H113.518V886ZM129.898 845.16H153.698V843.16H129.898V845.16ZM154.634 843.809L142.874 812.449L141.001 813.151L152.761 844.511L154.634 843.809ZM141.004 812.442L128.964 843.802L130.831 844.518L142.871 813.158L141.004 812.442ZM260.502 863.06L260.055 862.166L260.047 862.17L260.502 863.06ZM271.562 853.96L272.263 853.247L271.48 852.477L270.787 853.329L271.562 853.96ZM287.382 869.5L288.162 870.126L288.729 869.421L288.083 868.787L287.382 869.5ZM269.322 883.22L268.902 882.312L268.898 882.314L269.322 883.22ZM225.642 884.48L225.266 885.407L225.271 885.408L225.642 884.48ZM208.982 873.84L208.29 874.561L208.29 874.561L208.982 873.84ZM197.922 857.88L197.007 858.282L197.007 858.282L197.922 857.88ZM197.922 818.12L198.838 818.522L198.84 818.517L197.922 818.12ZM208.982 802.02L208.297 801.292L208.29 801.299L208.982 802.02ZM270.022 792.78L269.603 793.688L269.613 793.692L269.623 793.697L270.022 792.78ZM280.102 798.8L279.483 799.585L279.491 799.591L279.498 799.597L280.102 798.8ZM288.082 806.64L288.783 807.353L289.417 806.73L288.873 806.028L288.082 806.64ZM271.842 822.6L271.063 823.227L271.755 824.087L272.543 823.313L271.842 822.6ZM260.222 812.94L259.752 813.822L259.763 813.829L259.775 813.834L260.222 812.94ZM235.442 811.82L235.827 812.743L235.839 812.738L235.442 811.82ZM226.622 817.7L225.915 816.993L225.908 817L225.902 817.006L226.622 817.7ZM220.742 826.8L219.82 826.412L219.815 826.424L220.742 826.8ZM220.742 849.2L219.815 849.576L219.822 849.591L219.828 849.606L220.742 849.2ZM226.762 858.02L226.055 858.727L226.062 858.734L226.068 858.74L226.762 858.02ZM235.862 864.04L235.465 864.958L235.48 864.964L235.495 864.97L235.862 864.04ZM247.342 867.14C252.251 867.14 256.795 866.08 260.958 863.95L260.047 862.17C256.182 864.147 251.953 865.14 247.342 865.14V867.14ZM260.949 863.954C265.198 861.83 268.993 858.701 272.338 854.591L270.787 853.329C267.598 857.246 264.02 860.183 260.055 862.166L260.949 863.954ZM270.861 854.673L286.681 870.213L288.083 868.787L272.263 853.247L270.861 854.673ZM286.603 868.874C282.137 874.432 276.247 878.916 268.902 882.312L269.742 884.128C277.331 880.618 283.48 875.954 288.162 870.126L286.603 868.874ZM268.898 882.314C261.652 885.708 254.19 887.4 246.502 887.4V889.4C254.494 889.4 262.245 887.639 269.746 884.126L268.898 882.314ZM246.502 887.4C239.25 887.4 232.423 886.115 226.014 883.552L225.271 885.408C231.928 888.071 239.008 889.4 246.502 889.4V887.4ZM226.018 883.553C219.687 880.984 214.243 877.504 209.675 873.119L208.29 874.561C213.054 879.136 218.717 882.749 225.266 885.407L226.018 883.553ZM209.675 873.119C205.106 868.733 201.494 863.523 198.838 857.478L197.007 858.282C199.764 864.557 203.525 869.987 208.29 874.561L209.675 873.119ZM198.838 857.478C196.19 851.451 194.862 844.962 194.862 838H192.862C192.862 845.224 194.241 851.989 197.007 858.282L198.838 857.478ZM194.862 838C194.862 831.038 196.19 824.549 198.838 818.522L197.007 817.718C194.241 824.011 192.862 830.776 192.862 838H194.862ZM198.84 818.517C201.497 812.379 205.109 807.125 209.675 802.741L208.29 801.299C203.522 805.875 199.761 811.354 197.004 817.723L198.84 818.517ZM209.668 802.748C214.332 798.358 219.825 794.876 226.158 792.307L225.406 790.453C218.859 793.11 213.152 796.722 208.297 801.292L209.668 802.748ZM226.158 792.307C232.472 789.745 239.25 788.46 246.502 788.46V786.46C239.008 786.46 231.973 787.789 225.406 790.453L226.158 792.307ZM246.502 788.46C250.437 788.46 254.375 788.917 258.316 789.834L258.769 787.886C254.683 786.936 250.594 786.46 246.502 786.46V788.46ZM258.316 789.834C262.265 790.752 266.027 792.037 269.603 793.688L270.441 791.872C266.738 790.163 262.846 788.834 258.769 787.886L258.316 789.834ZM269.623 793.697C273.185 795.25 276.471 797.212 279.483 799.585L280.721 798.015C277.573 795.534 274.139 793.484 270.422 791.863L269.623 793.697ZM279.498 799.597C282.512 801.88 285.108 804.432 287.291 807.252L288.873 806.028C286.576 803.061 283.852 800.386 280.706 798.003L279.498 799.597ZM287.381 805.927L271.141 821.887L272.543 823.313L288.783 807.353L287.381 805.927ZM272.621 821.973C269.091 817.584 265.109 814.265 260.669 812.046L259.775 813.834C263.922 815.908 267.686 819.029 271.063 823.227L272.621 821.973ZM260.693 812.058C256.342 809.737 251.606 808.58 246.502 808.58V810.58C251.291 810.58 255.702 811.663 259.752 813.822L260.693 812.058ZM246.502 808.58C242.452 808.58 238.629 809.352 235.045 810.902L235.839 812.738C239.162 811.301 242.713 810.58 246.502 810.58V808.58ZM235.058 810.897C231.58 812.346 228.529 814.379 225.915 816.993L227.329 818.407C229.755 815.981 232.585 814.094 235.827 812.743L235.058 810.897ZM225.902 817.006C223.382 819.623 221.357 822.763 219.821 826.412L221.664 827.188C223.114 823.743 225.009 820.817 227.343 818.394L225.902 817.006ZM219.815 826.424C218.363 830.006 217.642 833.868 217.642 838H219.642C219.642 834.105 220.321 830.501 221.669 827.176L219.815 826.424ZM217.642 838C217.642 842.132 218.363 845.994 219.815 849.576L221.669 848.824C220.321 845.499 219.642 841.895 219.642 838H217.642ZM219.828 849.606C221.37 853.075 223.446 856.118 226.055 858.727L227.469 857.313C225.039 854.882 223.101 852.045 221.656 848.794L219.828 849.606ZM226.068 858.74C228.771 861.346 231.906 863.419 235.465 864.958L236.259 863.122C232.912 861.675 229.98 859.734 227.456 857.3L226.068 858.74ZM235.495 864.97C239.167 866.42 243.12 867.14 247.342 867.14V865.14C243.351 865.14 239.65 864.46 236.229 863.11L235.495 864.97ZM297.577 887H296.577V888H297.577V887ZM297.577 789V788H296.577V789H297.577ZM374.857 789H375.857V788H374.857V789ZM374.857 809.86V810.86H375.857V809.86H374.857ZM321.657 809.86V808.86H320.657V809.86H321.657ZM321.657 827.5H320.657V828.5H321.657V827.5ZM356.797 827.5H357.797V826.5H356.797V827.5ZM356.797 847.66V848.66H357.797V847.66H356.797ZM321.657 847.66V846.66H320.657V847.66H321.657ZM321.657 866.14H320.657V867.14H321.657V866.14ZM375.417 866.14H376.417V865.14H375.417V866.14ZM375.417 887V888H376.417V887H375.417ZM298.577 887V789H296.577V887H298.577ZM297.577 790H374.857V788H297.577V790ZM373.857 789V809.86H375.857V789H373.857ZM374.857 808.86H321.657V810.86H374.857V808.86ZM320.657 809.86V827.5H322.657V809.86H320.657ZM321.657 828.5H356.797V826.5H321.657V828.5ZM355.797 827.5V847.66H357.797V827.5H355.797ZM356.797 846.66H321.657V848.66H356.797V846.66ZM320.657 847.66V866.14H322.657V847.66H320.657ZM321.657 867.14H375.417V865.14H321.657V867.14ZM374.417 866.14V887H376.417V866.14H374.417ZM375.417 886H297.577V888H375.417V886Z" fill="black"/>
</svg>
